<svg width="40" height="82" viewBox="0 0 40 82" fill="none" xmlns="http://www.w3.org/2000/svg">
<path d="M4.60497 53.7051C5.00132 53.3379 5.30525 53.1927 5.81738 53.0353L6.0172 52.9718C8.62304 52.1882 11.675 53.8082 14.1145 54.5828C15.5196 55.0289 17.0593 55.437 18.5127 55.6904C20.6323 56.0601 22.728 55.9412 24.8604 55.8272C26.558 55.7363 28.2018 55.8161 29.7029 54.8728L29.8494 54.7822C29.6 57.3837 29.3951 59.9017 29.5127 62.5222C29.7562 67.9411 31.221 73.5428 33.449 78.4835C33.9512 79.5972 34.6228 80.6415 35.1111 81.764C30.7192 82.1525 26.7504 81.3258 22.8926 79.1767C13.4709 73.9277 7.5414 63.8192 4.60497 53.7051Z" fill="#EBD4A2"/>
<path d="M4.60498 53.7051C1.08711 42.3364 1.19172 29.8991 1.05689 18.1041L0.974119 0.540894C2.45871 2.17326 4.53516 3.51237 6.26528 4.88346L18.2514 14.3153L32.1388 25.1467L36.2859 28.4246C37.2261 29.1691 38.1521 29.9633 39.2063 30.5427L39.35 30.6202C38.3588 32.4191 36.9808 34.0758 35.8299 35.7795C34.8919 37.1677 34.146 38.8201 33.4254 40.3341C32.9473 41.3381 32.3676 42.3996 32.0876 43.4775C31.1412 47.1812 29.9103 50.9205 29.8494 54.7822L29.7029 54.8728C28.2018 55.8161 26.558 55.7363 24.8604 55.8272C22.7281 55.9412 20.6323 56.0601 18.5127 55.6904C17.0593 55.437 15.5197 55.0289 14.1145 54.5828C11.675 53.8082 8.62305 52.1882 6.01721 52.9718L5.81738 53.0353C5.30525 53.1927 5.00133 53.3379 4.60498 53.7051Z" fill="#FEF7E1"/>
</svg>
