<svg width="146" height="127" viewBox="0 0 146 127" fill="none" xmlns="http://www.w3.org/2000/svg">
<path d="M108.899 110.2C110.179 110.433 111.441 110.608 112.743 110.662C113.544 110.696 114.36 110.68 115.161 110.637C115.603 110.613 116.194 110.49 116.611 110.624L116.72 110.55C117.034 110.369 117.426 110.295 117.774 110.199L117.355 110.826L116.922 110.838C117.009 111.604 117.735 112.622 118.058 113.354C118.379 114.083 118.583 114.889 118.986 115.577C119.203 115.947 119.477 116.257 119.813 116.524C120.463 117.041 121.157 117.521 121.953 117.783C123.659 118.345 125.593 118.318 127.37 118.313L135.566 118.064C136.479 118.049 137.604 117.918 138.497 118.078C139.092 118.184 139.458 118.405 139.889 118.815C139.991 118.612 140.001 118.546 140.029 118.329C140.093 117.848 140.219 117.416 140.402 116.967C140.569 118.361 140.596 119.369 139.69 120.54C137.817 122.959 132.97 123.658 130.123 123.955C127.266 124.253 123.212 123.815 120.909 121.96C120.479 121.613 120.093 121.185 119.756 120.749C119.625 120.579 119.375 120.13 119.221 120.019C119.05 119.895 117.646 119.87 117.346 119.851C115.86 119.761 114.358 119.824 112.869 119.808C111.714 119.796 110.502 119.686 109.357 119.743C109.173 119.752 109.014 119.788 108.836 119.828L108.899 110.2Z" fill="#EBD4A2"/>
<path d="M117.774 110.199C118.061 110.179 118.52 109.93 118.797 109.825L121.475 108.752C124.232 107.67 128.112 107.455 131.04 107.834L131.256 107.864C133.227 108.127 134.827 108.68 136.407 109.898C137.563 111.334 138.415 112.772 139.324 114.372C139.693 115.022 140.135 115.669 140.431 116.354L140.402 116.967C140.219 117.416 140.093 117.848 140.029 118.329C140.001 118.546 139.991 118.612 139.889 118.815C139.458 118.405 139.092 118.184 138.497 118.078C137.604 117.918 136.479 118.049 135.566 118.064L127.37 118.313C125.593 118.319 123.659 118.345 121.953 117.783C121.157 117.521 120.463 117.041 119.813 116.524C119.477 116.258 119.203 115.948 118.986 115.577C118.583 114.889 118.379 114.083 118.058 113.354C117.735 112.622 117.009 111.604 116.922 110.838L117.355 110.826L117.774 110.199Z" fill="#FEF7E1"/>
<path d="M38.2132 110.328L38.2988 119.839C37.0173 119.789 29.5052 119.57 28.8367 119.888C28.5079 120.045 28.1263 120.648 27.8784 120.939C27.2241 121.706 26.6424 122.338 25.7294 122.815L25.5341 122.914C24.8613 123.261 24.1714 123.406 23.4394 123.573C20.5588 124.231 17.2416 124.076 14.3661 123.481C12.1822 123.03 9.15311 122.244 7.88739 120.231L7.79395 120.075C7.39735 119.429 7.4494 118.789 7.45626 118.057L12.4277 118.052L15.8555 118.272L24.012 118.117C25.0776 118.076 26.8052 118.282 27.6634 117.636L27.7891 117.537C28.7364 116.811 28.8029 115.914 29.1272 114.843C29.3613 114.07 29.6614 113.354 29.85 112.561C29.9727 112.046 30.0509 111.262 30.3248 110.812L30.4198 110.667C30.691 110.837 31.1742 110.808 31.4961 110.829L34.3906 110.985C35.3834 111.01 37.5205 110.992 38.2132 110.328Z" fill="#EBD4A2"/>
<path d="M10.6357 110.852C11.6041 109.886 12.6966 108.857 13.9504 108.274C17.5277 106.609 22.9204 107.293 26.5195 108.533C27.4996 108.871 28.403 109.386 29.3201 109.864C29.7762 110.102 30.1852 110.201 30.4198 110.667L30.3248 110.812C30.0509 111.262 29.9727 112.046 29.85 112.561C29.6614 113.354 29.3613 114.07 29.1272 114.843C28.8029 115.914 28.7364 116.811 27.7891 117.537L27.6634 117.636C26.8052 118.282 25.0776 118.076 24.012 118.117L15.8555 118.272L12.4277 118.052L7.45626 118.057L7.5431 117.136C7.88282 116.371 8.07478 115.539 8.40435 114.766C8.9929 113.386 9.74294 112.054 10.6357 110.852Z" fill="#FEF7E1"/>
<path d="M84.0385 112.201C85.5124 112.243 86.7784 112.335 88.2064 111.871C88.9993 114.538 89.2301 117.31 89.4843 120.066L67.9847 119.96L61.8963 119.947C61.224 119.944 60.5638 119.724 59.9082 119.731C59.454 119.736 58.9723 119.861 58.5321 119.966C58.8332 117.238 59.1859 114.609 59.9996 111.978L84.0385 112.201Z" fill="#C6A37D"/>
<path d="M88.1073 110.835C89.4634 110.779 90.7916 110.525 92.1358 110.378L97.4107 110.027C101.272 109.803 105.045 110.006 108.899 110.2L108.836 119.828C108.771 122.098 108.555 124.418 108.816 126.679C107.53 126.897 106.24 126.729 104.95 126.826L89.9875 126.798C89.7458 126.295 89.8806 125.239 89.8471 124.633L89.4843 120.066C89.2301 117.31 88.9993 114.538 88.2064 111.871C88.1152 111.531 88.1195 111.184 88.1073 110.835Z" fill="#FEF7E1"/>
<path d="M131.263 45.0391V46.038C131.383 46.639 131.464 47.1257 131.827 47.6348L135.199 52.1622C138.927 57.4884 141.894 63.2574 143.841 69.4614C144.512 72.2305 145.189 75.0138 145.531 77.8482C146.646 87.0969 144.828 97.2369 139.942 105.235C138.969 106.827 137.836 108.685 136.407 109.898C134.827 108.68 133.227 108.127 131.256 107.864L131.04 107.834C128.112 107.455 124.232 107.67 121.475 108.752L118.798 109.825C118.52 109.93 118.061 110.179 117.774 110.199C117.426 110.295 117.034 110.369 116.72 110.55L116.611 110.624C116.194 110.49 115.603 110.613 115.161 110.637C114.36 110.68 113.544 110.696 112.743 110.662C111.441 110.608 110.179 110.433 108.899 110.2C108.816 109.154 108.93 108.175 108.993 107.133C109.25 102.927 110.408 98.8718 111.863 94.9325C112.154 94.1449 112.356 93.3004 112.676 92.5293C112.962 91.8402 113.497 91.2762 113.782 90.5716L115.745 85.4869L118.138 80.0559C118.428 79.3406 118.628 78.5921 118.937 77.8829L121.417 72.7177L124.888 64.0496L128.977 52.2823C129.396 51.0143 129.648 49.6615 130.158 48.4262C130.248 48.2071 130.316 48.0916 130.295 47.8461C130.237 47.1483 130.854 45.6442 131.263 45.0391Z" fill="#C6A37D"/>
<path d="M131.263 46.038C131.383 46.639 131.464 47.1257 131.827 47.6348L135.199 52.1622C138.927 57.4884 141.894 63.2574 143.841 69.4613C142.355 71.1927 140.654 72.882 138.859 74.3003L134.526 77.9642L131.55 80.2435L127.145 83.9525L123.453 86.8118C122.821 87.3513 122.339 88.0247 121.715 88.5658C121.892 88.2098 122.063 87.8571 122.285 87.5265C123.252 86.0887 123.549 83.6839 124.024 81.985L128.824 62.823C129.383 60.3738 130.092 57.9497 130.511 55.4703C131.039 52.3478 131.182 49.1917 131.263 46.038Z" fill="#EBD4A2"/>
<path d="M17.304 45.6042C17.5914 46.3495 17.7021 47.1678 17.8903 47.9445L18.6551 50.6387L23.3678 67.0251L24.47 69.9991C25.4349 72.9561 26.2151 76.0311 27.375 78.9221L31.9869 90.0846C34.2449 95.2927 36.8751 100.795 37.9334 106.403C38.1738 107.678 38.1622 109.031 38.2132 110.328C37.5205 110.992 35.3834 111.01 34.3906 110.985L31.4961 110.829C31.1742 110.808 30.691 110.837 30.4198 110.667C30.1852 110.201 29.7762 110.102 29.3201 109.864C28.403 109.386 27.4996 108.871 26.5195 108.533C22.9204 107.293 17.5277 106.609 13.9504 108.274C12.6966 108.857 11.6041 109.886 10.6357 110.852C8.85528 109.159 7.46108 106.806 6.11106 104.764C5.6228 103.641 4.95122 102.597 4.44899 101.483C2.22097 96.5427 0.756179 90.941 0.512683 85.5221C0.395124 82.9016 0.600028 80.3836 0.849364 77.7821C0.910301 73.9204 2.14124 70.1811 3.08755 66.4774C3.36761 65.3996 3.94727 64.338 4.42538 63.334C5.14597 61.82 5.89194 60.1676 6.82987 58.7795C7.98083 57.0757 9.35878 55.419 10.35 53.6201C11.6978 51.6221 13.3129 50.076 14.9341 48.3208C15.691 47.5014 16.1482 46.4988 17.2037 46.0336L17.304 45.6042Z" fill="#C6A37D"/>
<path d="M17.2037 46.0336C16.9323 53.9332 18.7734 61.788 20.5527 69.4278C20.9168 70.9909 21.1152 72.5971 21.5239 74.1515C21.8337 75.3286 22.3448 76.4539 22.7089 77.6173C23.5844 80.4146 24.3532 83.2109 25.4359 85.9444C26.2595 88.0247 26.9395 90.1153 27.8754 92.156L28.8745 94.3076C28.9687 94.5097 29.1406 94.7534 29.1259 94.9769L25.6784 95.7422L17.6133 97.7384C17.1311 97.8483 16.1576 98.2101 15.7245 98.1276C15.3114 96.4927 14.6263 94.9817 14.0342 93.4082L10.0334 83.2065L5.31684 71.9034C4.57417 70.104 3.96378 68.2185 3.08755 66.4774C3.36761 65.3996 3.94727 64.338 4.42538 63.3341C5.14597 61.82 5.89194 60.1676 6.82987 58.7795C7.98083 57.0758 9.35878 55.419 10.35 53.6201C11.6978 51.6221 13.3129 50.0761 14.9341 48.3208C15.6909 47.5015 16.1482 46.4988 17.2037 46.0336Z" fill="#EBD4A2"/>
<path d="M126.935 18.3582C129.095 25.6806 130.573 33.236 131.053 40.8634C131.136 42.1903 131.398 43.7163 131.263 45.0391C130.854 45.6442 130.237 47.1483 130.295 47.8461C130.316 48.0916 130.248 48.2071 130.158 48.4263C129.648 49.6615 129.396 51.0143 128.977 52.2823L124.888 64.0496L121.417 72.7177L118.937 77.8829C118.628 78.5921 118.428 79.3406 118.138 80.0559L115.745 85.4869L113.782 90.5717C113.497 91.2762 112.962 91.8402 112.676 92.5293C112.356 93.3004 112.154 94.1449 111.863 94.9325C110.408 98.8719 109.25 102.927 108.993 107.133C108.93 108.175 108.816 109.154 108.899 110.2C105.045 110.006 101.272 109.803 97.4107 110.027L92.1358 110.378C90.7916 110.525 89.4634 110.779 88.1073 110.835C88.1195 111.184 88.1152 111.531 88.2063 111.871C86.7784 112.335 85.5124 112.243 84.0385 112.201C84.2596 111.757 84.009 103.295 84.0141 101.864L84.2825 95.2258C84.318 93.0744 84.1256 90.7895 84.3838 88.659L84.4333 68.8195C84.3929 68.2665 84.4468 67.699 84.4259 67.1427C84.3493 65.0932 84.1616 63.0924 84.3934 61.0385C84.4262 59.9968 84.3447 58.9342 84.0852 57.9239L84.0326 57.7246C84.6468 56.991 85.4906 56.4624 86.2767 55.9322L91.0118 53.0357L100.406 46.5547C102.215 45.259 103.876 43.7871 105.584 42.3665L111.56 37.3298C114.235 34.9248 116.497 32.3227 118.878 29.642C120.437 27.8867 121.923 26.1571 123.273 24.2328L125.593 20.6271C125.981 19.9646 126.284 19.066 126.794 18.5062L126.935 18.3582Z" fill="#EBD4A2"/>
<path d="M26.8958 4.00836C28.1095 6.37248 30.6275 7.97437 32.7824 9.44525C36.8198 12.2009 40.9887 14.4703 45.4594 16.4495C47.2589 17.246 49.1769 18.1169 51.05 18.7113L58.4176 21.0165C61.3517 21.8092 64.4021 22.3782 67.3992 22.8703C69.0253 23.1374 70.7782 23.4614 72.4248 23.4926C77.8637 23.4604 83.163 23.0407 88.492 21.8879C96.8569 20.0786 104.993 16.478 112.192 11.8914C115.565 9.74233 118.637 7.19564 121.827 4.79089C123.271 8.36437 124.894 11.8688 126.152 15.5164C126.437 16.3413 126.949 17.4875 126.935 18.3581L126.794 18.5062C126.284 19.066 125.981 19.9646 125.593 20.627L123.273 24.2328C121.923 26.1571 120.437 27.8867 118.878 29.642C116.497 32.3227 114.235 34.9248 111.56 37.3298L105.584 42.3665C103.876 43.7871 102.215 45.259 100.406 46.5547L91.0118 53.0356L86.2767 55.9322C85.4906 56.4624 84.6468 56.991 84.0326 57.7245L84.0852 57.9239C84.3447 58.9341 84.4262 59.9967 84.3935 61.0385C84.1616 63.0924 84.3493 65.0932 84.4259 67.1427C84.4468 67.699 84.3929 68.2665 84.4333 68.8195L84.3838 88.659C84.1256 90.7895 84.318 93.0744 84.2825 95.2257L84.0141 101.864C84.009 103.295 84.2596 111.757 84.0385 112.201L59.9996 111.978C59.1859 114.609 58.8332 117.238 58.5321 119.966L58.2693 124.018C58.2355 124.862 58.3211 126.016 58.0301 126.811L42.6708 126.828C41.6671 126.727 40.5852 126.813 39.5734 126.816C39.1984 126.816 38.8129 126.879 38.478 126.684L38.3445 125.78L38.2988 119.839L38.2132 110.328C38.1622 109.031 38.1739 107.678 37.9334 106.403C36.8751 100.795 34.2449 95.2928 31.9869 90.0847L27.375 78.9222C26.2151 76.0312 25.4349 72.9561 24.47 69.9991L23.3678 67.0251L18.6551 50.6388L17.8903 47.9446C17.7021 47.1679 17.5914 46.3495 17.304 45.6043C17.1057 43.7782 17.4086 42.0131 17.5793 40.2037C17.8679 37.1393 18.1297 34.1006 18.6584 31.0618C19.1385 28.3011 19.8502 25.5503 20.5479 22.836C20.9382 21.3174 21.2482 19.7368 21.7078 18.2403C21.9718 17.3803 22.3446 16.5422 22.6597 15.6985L22.7216 15.4578L25.2904 7.72859C25.77 6.45246 26.173 5.17633 26.8958 4.00836Z" fill="#EBD4A2"/>
<path d="M38.2132 110.328C40.1696 109.834 42.262 109.789 44.2709 109.787C47.3663 109.784 50.4185 110.002 53.4971 110.312C55.7371 110.537 58.0606 110.724 60.2462 111.269L59.9996 111.978C59.1859 114.609 58.8332 117.238 58.5321 119.966L58.2693 124.018C58.2355 124.862 58.3211 126.016 58.0301 126.811L42.6708 126.828C41.6671 126.727 40.5852 126.813 39.5734 126.816C39.1984 126.816 38.8129 126.879 38.478 126.684L38.3445 125.78L38.2988 119.839L38.2132 110.328Z" fill="#FEF7E1"/>
<path d="M26.8958 4.00836C28.1095 6.37248 30.6275 7.97437 32.7824 9.44525C36.8198 12.2009 40.9886 14.4703 45.4594 16.4495C47.2589 17.246 49.1769 18.1169 51.0499 18.7113L58.4175 21.0165C61.3517 21.8092 64.4021 22.3782 67.3992 22.8703C69.0252 23.1374 70.7782 23.4614 72.4248 23.4926L73.4287 23.6434C73.5999 24.2937 73.4983 25.1689 73.4981 25.8466L73.4965 30.6609L73.5128 47.1326L73.5844 58.5048C73.6644 60.4121 73.4503 62.4528 73.7482 64.3319C73.2208 64.8552 72.7569 65.2409 72.0957 65.6005L71.9104 65.7023C70.846 66.2771 68.6812 67.1848 67.4962 67.1478C66.7302 67.1236 65.9014 66.8883 65.1458 66.7534C65.1529 66.0493 65.256 65.3529 65.274 64.6719C65.2875 64.1654 65.1897 63.3468 65.3492 62.889C65.4353 62.6419 65.4457 61.7043 65.3411 61.4699L65.2471 58.2374C65.2443 58.0861 65.2827 57.4404 65.2329 57.3701C65.1425 57.2429 64.57 56.944 64.4176 56.8399L60.2728 54.2463L56.1667 51.5069L51.4153 48.1632C41.3484 41.1025 31.4768 32.9062 25.0337 22.2711C25.214 21.4197 24.3903 19.2341 23.9602 18.4198C23.4717 17.4943 22.9791 17.1752 22.9758 16.044C22.9748 15.7614 22.8724 15.6906 22.7216 15.4577L25.2904 7.72859C25.77 6.45246 26.173 5.17633 26.8958 4.00836Z" fill="#FEF7E1"/>
<path d="M72.4248 23.4926C77.8637 23.4604 83.163 23.0407 88.492 21.8879C96.8569 20.0786 104.993 16.478 112.192 11.8914C115.565 9.74233 118.637 7.19564 121.827 4.79089C123.271 8.36437 124.894 11.8688 126.152 15.5164C126.437 16.3413 126.949 17.4875 126.935 18.3581L126.794 18.5062C126.284 19.066 125.981 19.9646 125.593 20.627L123.273 24.2328C121.923 26.1571 120.437 27.8867 118.878 29.642C116.497 32.3227 114.235 34.9248 111.56 37.3298L105.584 42.3665C103.876 43.7871 102.215 45.259 100.406 46.5547L91.0118 53.0356L86.2767 55.9322C85.4906 56.4624 84.6468 56.991 84.0326 57.7245L84.0852 57.9239C84.3447 58.9341 84.4262 59.9967 84.3935 61.0385C84.1616 63.0924 84.3493 65.0932 84.4259 67.1427C84.4468 67.699 84.3929 68.2665 84.4333 68.8195L84.3838 88.659C84.1256 90.7895 84.318 93.0744 84.2825 95.2257L84.0141 101.864C84.009 103.295 84.2596 111.757 84.0385 112.201L59.9996 111.978L60.2462 111.269C60.7774 111.007 60.9259 109.975 61.2803 109.517C61.2133 110.29 60.6689 111.135 60.2063 111.746L60.1408 111.83H64.9137L64.9864 110.116C65.1319 109.001 65.239 107.273 65.0031 106.18C64.9496 105.931 64.9493 106.057 64.9493 105.812C64.9493 105.138 64.8752 104.386 64.9399 103.725C64.965 103.469 64.9127 103.227 64.9379 102.971C64.9765 102.576 64.9206 102.193 65.0039 101.801C65.1831 100.959 65.3055 99.9715 65.1321 99.1179C65.0808 98.8662 65.076 98.9262 65.076 98.6946L65.0062 92.5326C64.9564 92.2096 64.947 92.3772 64.9582 92.1266C64.9859 91.5073 65.0564 90.6925 64.9572 90.0854L64.9242 89.9308C65.1268 89.5032 65.0674 89.002 65.0674 88.5389L65.0717 85.6448L65.0582 73.4109C65.0529 73.0625 64.949 72.7398 64.949 72.3993L64.9551 72.2208V71.84C64.965 71.6307 64.9932 71.4431 64.9727 71.2329C64.8899 70.3879 65.0064 69.5675 65.0082 68.7212C65.0097 67.9415 64.9112 67.1577 64.9242 66.381C64.9285 66.1278 64.9996 65.8927 64.9747 65.639C64.9102 64.9822 65.1864 64.318 65.0844 63.6931C65.0437 63.4453 65.0364 63.5982 65.0803 63.33C65.1153 63.116 65.123 63.1894 65.1037 62.9928L65.0511 62.3185C65.2273 62.0531 65.1819 61.8843 65.1882 61.575L65.3411 61.4699C65.4457 61.7043 65.4353 62.6419 65.3492 62.889C65.1897 63.3468 65.2875 64.1654 65.274 64.6719C65.256 65.3529 65.1529 66.0494 65.1458 66.7534C65.9014 66.8883 66.7302 67.1236 67.4962 67.1478C68.6812 67.1848 70.846 66.2771 71.9104 65.7023L72.0957 65.6005C72.7569 65.2409 73.2208 64.8552 73.7482 64.3319C73.4503 62.4528 73.6644 60.4121 73.5844 58.5048L73.5128 47.1326L73.4965 30.6609L73.4981 25.8466C73.4983 25.1689 73.5999 24.2937 73.4288 23.6434L72.4248 23.4926Z" fill="url(#paint0_linear_58_8530)"/>
<path d="M118.789 0.253601C119.244 1.06432 119.724 1.8329 120.279 2.58116C120.8 3.28499 121.556 3.94311 121.827 4.79091C118.637 7.19565 115.565 9.74234 112.192 11.8914C104.993 16.478 96.8569 20.0786 88.492 21.8879C83.163 23.0407 77.8637 23.4604 72.4248 23.4926C70.7782 23.4614 69.0252 23.1374 67.3992 22.8703C64.4021 22.3782 61.3517 21.8092 58.4175 21.0165L51.0499 18.7113C49.1769 18.1169 47.2589 17.246 45.4594 16.4495C40.9887 14.4703 36.8198 12.2009 32.7824 9.44526C30.6275 7.97438 28.1095 6.3725 26.8958 4.00837C27.5385 2.97244 28.5853 1.28091 29.5796 0.589774C29.9635 0.612372 30.3632 0.621008 30.7237 0.767512C31.9689 1.27355 33.115 2.07309 34.3498 2.62153C37.1102 3.84739 40.1173 4.78176 42.9999 5.67171C53.2013 8.82116 63.6742 10.0054 74.3212 10.0224C80.447 10.032 86.5478 9.69155 92.5928 8.68075C94.9549 8.28567 97.3673 7.96397 99.6997 7.41274C102.675 6.70942 105.689 5.7075 108.545 4.64491C109.346 4.34682 110.19 4.15996 110.98 3.83978C113.635 2.76398 116.252 1.58255 118.789 0.253601Z" fill="#EBD4A2"/>
<defs>
<linearGradient id="paint0_linear_58_8530" x1="84.2088" y1="13.7467" x2="105.585" y2="106.852" gradientUnits="userSpaceOnUse">
<stop stop-color="#F8EBC2"/>
<stop offset="1" stop-color="#F0E6D7"/>
</linearGradient>
</defs>
</svg>
