<svg width="123" height="148" viewBox="0 0 123 148" fill="none" xmlns="http://www.w3.org/2000/svg">
<path d="M1.44503 63.1696C0.840737 61.8244 0.525381 60.3339 0.264619 58.8872C-0.147471 56.6 0.073682 54.0056 0.0797758 51.6846L0.18439 37.4943L0.086889 21.06C0.114057 18.9403 0.065054 16.7508 0.286206 14.642C0.655132 11.1251 1.39374 7.59461 3.02585 4.43627C3.82413 2.89153 5.38591 0.991039 7.1112 0.467332L7.27548 0.419242C8.39064 0.0690796 9.41769 0.112802 10.4767 0.63227C12.6324 1.68979 14.4268 3.73856 16.2719 5.25425L27.0071 14.1968L36.6517 22.2706C38.2081 23.4916 39.6254 25.0376 41.3251 26.0479C41.4569 26.1264 41.662 26.2864 41.8032 26.3209C41.9251 26.3506 42.2569 26.2874 42.3864 26.278L44.4078 26.1297C45.4686 26.0693 46.5568 26.1117 47.621 26.1104L67.482 26.1269L73.8751 26.1201C76.0199 26.1162 78.0034 26.0982 80.1166 26.5276L109.845 1.49235C110.864 0.787584 112.78 0.0393984 114.022 0.274059L114.193 0.308768C115.318 0.518469 116.091 0.93419 116.905 1.73333C119.786 4.56002 121.096 9.72255 121.7 13.5985C121.955 15.2377 121.944 16.9555 121.978 18.6109L121.968 29.0603L122.074 50.5697L122.338 57.3774C122.596 60.8791 121.219 64.6849 118.95 67.339C118.079 68.3576 116.894 69.649 115.761 70.3703C116.495 72.6103 117.007 74.8772 117.575 77.1598C118.126 79.3734 118.727 81.7162 119.015 83.98C119.396 86.9718 119.515 89.9227 119.702 92.9259C120.136 94.4521 120.207 96.0641 120.386 97.6338C121.026 103.256 121.039 108.265 118.21 113.307C117.594 114.404 116.701 115.257 116.077 116.313C115.611 117.101 114.808 117.792 114.138 118.413C111.648 120.722 108.814 122.706 105.789 124.254C106.244 125.064 106.724 125.833 107.279 126.581C107.8 127.285 108.556 127.943 108.827 128.791C105.637 131.196 102.565 133.742 99.1919 135.891C91.9934 140.478 83.8569 144.079 75.492 145.888C70.163 147.041 64.8637 147.46 59.4248 147.493C57.7782 147.461 56.0253 147.137 54.3992 146.87C51.4021 146.378 48.3517 145.809 45.4176 145.017L38.05 142.711C36.1769 142.117 34.2589 141.246 32.4594 140.45C27.9887 138.47 23.8198 136.201 19.7824 133.445C17.6275 131.974 15.1095 130.372 13.8958 128.008C14.5385 126.972 15.5853 125.281 16.5796 124.59C15.8961 123.652 14.8388 123.283 13.9052 122.679L11.1003 120.735C9.77544 119.774 8.31066 118.33 7.31154 117.051C3.81753 112.578 2.37585 106.887 2.47361 101.255C2.52845 98.1073 3.07206 94.8507 3.4646 91.7249L6.72374 71.1483C5.55146 70.4993 4.47998 69.8699 3.70302 68.7403L3.57327 68.5486C2.41191 66.8512 1.84443 65.1673 1.44503 63.1696Z" fill="#EBD4A2"/>
<path d="M3.4646 91.7249L3.6238 91.9232C4.8263 93.4433 5.83202 95.0475 7.16934 96.4821C10.4237 99.9733 16.0848 103.111 20.8379 103.749C23.1441 104.058 25.8106 103.994 28.079 103.467C30.2832 102.955 32.3312 101.994 34.3612 101.039C37.4484 99.5868 40.5138 97.9039 43.1966 95.7681L47.3104 92.1441C48.7722 90.7448 50.2755 89.248 52.0151 88.1961C53.3671 87.3785 55.0642 86.7767 56.577 86.3382C60.7129 85.139 65.4312 85.8947 69.1586 87.9312C71.9086 89.4336 73.5928 91.7459 75.916 93.7119C80.222 97.3557 85.0132 100.344 90.2272 102.487C92.2699 103.327 94.4037 104.151 96.6345 104.291C99.2528 104.456 102.369 103.706 104.882 103.003C109.103 101.823 113.322 100.244 116.789 97.5185C118.15 96.449 119.33 94.5894 119.702 92.9258C120.136 94.4521 120.207 96.0641 120.386 97.6338C121.026 103.256 121.039 108.265 118.21 113.307C117.594 114.404 116.701 115.257 116.077 116.313C115.611 117.101 114.808 117.792 114.138 118.413C111.648 120.722 108.814 122.706 105.789 124.254C106.244 125.064 106.724 125.833 107.279 126.581C107.8 127.285 108.556 127.943 108.827 128.791C105.637 131.196 102.565 133.742 99.1919 135.891C91.9934 140.478 83.8569 144.079 75.492 145.888C70.163 147.041 64.8637 147.46 59.4248 147.493C57.7782 147.461 56.0252 147.137 54.3992 146.87C51.4021 146.378 48.3517 145.809 45.4175 145.017L38.0499 142.711C36.1769 142.117 34.2589 141.246 32.4594 140.449C27.9887 138.47 23.8198 136.201 19.7824 133.445C17.6275 131.974 15.1095 130.372 13.8958 128.008C14.5385 126.972 15.5853 125.281 16.5796 124.59C15.8961 123.652 14.8388 123.283 13.9052 122.679L11.1003 120.735C9.77544 119.774 8.31065 118.33 7.31153 117.051C3.81753 112.578 2.37585 106.887 2.4736 101.255C2.52845 98.1073 3.07206 94.8507 3.4646 91.7249Z" fill="#FEF7E1"/>
<path d="M61.0892 108.727L61.8953 109.275C62.7342 109.834 70.7749 114.747 71.1413 114.749C71.8043 114.752 73.3488 113.874 74.0313 113.582L79.0878 111.514C80.1969 111.069 81.3473 110.525 82.5186 110.29L82.7146 110.464C82.628 110.847 82.4216 111.054 82.1449 111.317C81.1328 112.276 79.7206 113.075 78.5567 113.842L73.1436 117.381C70.8488 118.853 68.5616 120.738 66.0264 121.763C64.2462 122.482 62.4958 122.749 60.5877 122.643C58.7403 122.505 57.0213 121.978 55.3506 121.187C53.9643 120.531 52.8743 119.582 51.5959 118.766L42.8457 113.078C41.3111 111.997 39.7869 110.977 38.5441 109.547L39.2276 109.731C40.4593 110.061 41.6303 110.607 42.8082 111.091L47.1355 112.915C48.4682 113.529 49.7723 114.26 51.2074 114.6L61.0892 108.727Z" fill="black"/>
<path d="M58.6435 91.6576C59.326 91.5436 60.0725 91.5718 60.7654 91.5609C63.0856 91.5241 65.4277 91.7721 67.6168 92.5943C68.9146 93.0818 70.1341 93.9872 70.6927 95.2877C71.3604 96.8419 70.9819 98.8894 70.358 100.39C68.961 103.752 65.9893 106.492 62.6451 107.871L60.963 108.399C59.6955 108.633 57.8534 107.871 56.8411 107.174C53.9051 105.153 51.0441 101.999 50.4797 98.3399C50.2611 96.9216 50.9286 95.4456 51.7799 94.3569C53.2333 92.498 56.4373 91.9537 58.6435 91.6576Z" fill="black"/>
</svg>
