<?xml version="1.0" encoding="UTF-8" standalone="no"?>
<!-- Created with Inkscape (http://www.inkscape.org/) -->

<svg
   width="619.31226"
   height="323.99265"
   viewBox="0 0 619.31226 323.99265"
   version="1.1"
   id="svg1"
   xmlSpace="preserve"
   xmlns="http://www.w3.org/2000/svg"
   xmlnsSvg="http://www.w3.org/2000/svg"><defs
     id="defs1" /><g
     id="layer3"
     style="display:inline"
     transform="translate(-1147.4645,-457.32541)"><g
       id="g40"
       style="display:inline"
       transform="translate(4.6257071,-117.95553)"><path
         style="display:inline;fill:#ebd4a2;fill-opacity:1;stroke-width:7.392"
         d="m 1523.4091,610.7837 c 0.2143,-0.005 1.6259,1.69881 3.5579,4.7514 1.113,1.75867 5.23,6.72649 9.7229,9.86656 10.7788,7.53318 32.8703,37.23088 32.8703,37.23088 l 42.4987,67.07275 c 0,0 6.0713,13.58801 5.7822,28.33245 -0.2892,14.74445 -2.3129,19.94837 -9.8297,30.35621 -7.5168,10.40784 -41.3422,30.93441 -58.1104,34.40369 -16.7682,3.46928 -40.7641,14.16623 -58.3996,16.18998 -17.6355,2.02374 -45.3897,4.91481 -60.1342,1.44553 -14.7444,-3.46928 -40.1858,-4.04749 -55.7976,-6.93856 -15.6117,-2.89107 -41.0531,-13.0098 -57.5322,-21.10479 -16.4791,-8.09499 -49.4372,-28.33245 -49.4372,-28.33245 0,0 -25.1523,-15.32266 -27.7543,-18.79194 -2.6019,-3.46928 -60.4233,0.28911 -60.4233,0.28911 0,0 -26.0976,29.70946 -27.2885,9.0955 -1.0458,-18.10244 -10.294,-81.63465 -10.294,-81.63465 0,0 -0.3324,-9.19116 9.5392,-25.17891 11.1045,-17.98444 22.0072,-27.21111 38.1971,-34.14967 16.19,-6.93856 36.6815,-9.50544 54.0279,-7.19259 17.3464,2.31285 40.4749,5.20392 55.2194,8.38409 14.7444,3.18018 42.4987,10.69695 67.9401,12.7207 25.4414,2.02375 52.7258,5.746 76.1434,4.87868 15.9732,-9.72121 79.5019,-41.69397 79.5019,-41.69397 z"
         id="path40" /><path
         style="display:inline;fill:#fef7e1;fill-opacity:1;stroke-width:7.392"
         d="m 1535.2288,624.47045 c 0,0 84.5576,51.0886 108.9082,55.35517 43.2973,7.58627 82.919,6.41248 93.0859,4.59376 12.2137,-2.18487 22.4417,-4.96128 22.4417,-4.96128 0,0 1.0557,108.21927 -54.2242,161.98692 -47.558,46.25707 -81.809,52.64425 -100.0309,55.36394 -20.3712,3.04048 -138.7712,5.78213 -202.6638,-8.09499 -63.8926,-13.87712 -98.6314,-17.6439 -124.9402,-30.9428 -23.9065,-12.08455 -117.1599,-36.71191 -123.5829,-77.15733 -14.9425,-94.09293 58.5474,-36.21462 94.6425,-17.71828 34.6072,17.73384 48.2777,35.13669 101.5523,55.85459 10.4078,4.04749 79.2152,21.97211 117.0882,16.76819 51.3611,-7.05723 102.922,-21.97211 131.2544,-48.56993 28.3325,-26.59781 8.095,-55.50848 8.095,-55.50848 0,0 -38.9288,-64.02314 -47.4135,-74.30042 -7.6974,-9.32369 -25.5136,-30.0671 -24.2127,-32.66906 z"
         id="path39" /><path
         fill="#c6a37d"
         d="m 1535.984,575.28094 c 19.196,27.575 49.531,46.155 80.152,58.623 18.129,7.381 36.471,12.943 55.75,16.443 29.267,5.313 61.015,7.117 90.265,0.599 l -1.028,30.003 c -13.241,3.876 -27.544,6.144 -41.277,7.322 -34.434,2.953 -67.485,-3.183 -99.8,-14.875 -30.511,-11.039 -58.587,-26.377 -83.412,-47.347 -2.237,-2.209 -4.688,-4.317 -6.656,-6.772 -1.782,-2.224 -3.076,-5.02 -5.155,-6.927 -1.221,-2.861 -0.571,-6.738 -0.836,-9.845 l 3.074,-12.645 c 0.771,-2.628 2.519,-5.389 2.442,-8.093 l -0.024,-0.022 z"
         id="path32-4"
         style="display:inline" /></g></g></svg>
