<?xml version="1.0" encoding="UTF-8" standalone="no"?>
<!-- Created with Inkscape (http://www.inkscape.org/) -->

<svg
   width="178.18335"
   height="266.0069"
   viewBox="0 0 178.18335 266.0069"
   version="1.1"
   id="svg1"
   xmlSpace="preserve"
   xmlns="http://www.w3.org/2000/svg"><defs
     id="defs1" /><g
     id="layer2"
     style="display:none"
     transform="translate(-1243.5953,-680.20129)"><rect
       style="fill:#e11f27;stroke-width:6.58991"
       id="rect1"
       width="1920.0383"
       height="1080.1802"
       x="-0.85588235"
       y="-0.11330665" /></g><g
     id="layer4"
     style="display:none"
     transform="translate(-1238.9696,-798.15682)"><path
       fill="#ebd4a2"
       d="m 1332.1516,582.29413 c -1.962,4.348 -2.997,7.247 -7.749,9.075 -4.165,1.602 -8.75,2.452 -13.188,2.791 -0.429,-0.304 -0.765,-0.524 -1.097,-0.937 l -19.628,19.29 c -1.98,1.918 -5.055,5.575 -7.539,6.662 -5.5002,2.98509 -9.4241,4.97359 -13.102,7.395 l -30.6,33.182 -60.754,61.985 -30.33,28.915 -6.847,6.499 c -0.877,0.833 -2.28,1.829 -2.905,2.797 l -10.592,9.881 c -1.514,13.571 -4.603,28.043 -10.369,40.475 -3.209,6.921 -7.313,13.425 -11.006,20.092 l -11.796,16.65 -6.262,7.709 c -0.98,1.131 -2.686,2.621 -3.327,3.935 l -15.836,18.576 c -19.006,20.345 -41.809,39.811 -65.646,54.241 -6.712,4.063 -13.875,7.071 -20.726,10.832 -3.849,-1.479 -7.502,-3.799 -11.033,-5.905 -11.866,-7.076 -21.732,-15.535 -32.35,-24.275 -4.471,1.83 -8.918,3.663 -13.675,4.602 l -0.83,0.158 c -3.263,0.652 -7.492,0.779 -10.759,0.106 -9.149,-1.887 -18.421,-5.365 -26.788,-9.499 6.32704,-9.50663 7.21948,-12.04942 15.466,-25.265 2.265,-2.308 3.86,-7.316 5.302,-10.288 l 9.157,-18.263 c 4.506,-9.417 9.152,-18.803 12.575,-28.689 6.716,-19.4 9.698,-39.918 8.067,-60.415 l -2.896,-27.035 c -1.194,-15.515 -0.126,-30.101 2.689,-45.377 2.572,-11.033 5.592,-22.673 11.178,-32.635 1.252,-3.896 3.989,-7.849 6.132,-11.336 10.957,-17.835 25.093,-32.249 43.341,-42.569 13.439,-6.208 27.649,-7.84 42.296,-7.905 11.892,-0.054 23.748,0.54 35.521,2.305 22.03,3.303 43.719,9.574 65.701,13.39 27.884,4.84 56.448,8.811 84.744,10.107 l 18.604,0.516 c 2.401,0.052 5.77,0.542 8.017,-0.195 l 7.4673,-4.03236 c 3.9035,-3.69189 11.5081,-5.51954 24.3065,-13.85081 27.3233,-13.43551 28.6321,-16.04462 47.0662,-23.69483 z"
       id="path12-62"
       style="display:inline"
       transform="translate(191.2368,28.511073)" /><path
       fill="#ebd4a2"
       d="m 1332.1516,582.29413 c 2.079,1.907 3.373,4.703 5.155,6.927 1.968,2.455 4.419,4.563 6.656,6.772 24.825,20.97 52.901,36.308 83.412,47.347 32.315,11.692 65.366,17.828 99.8,14.875 13.733,-1.178 28.036,-3.446 41.277,-7.322 -0.356,45.976 -9.647,97.014 -34.974,136.191 l -13.072,18.252 -5.211,6.428 c -0.406,0.496 -1.441,1.467 -1.565,2.065 l -11.997,110.839 c -16.642,0.18 -33.115,2.982 -48.83,8.544 -4.832,1.711 -9.923,3.464 -14.355,6.036 -7.502,5.255 -14.888,11.455 -19.308,19.626 l -11.621,-64.684 c -1.619,3.326 -2.203,7.309 -3.106,10.898 l -7.192,32.089 c -0.741,3.347 -1.268,8.017 -2.926,10.958 l -105.308,-27.229 -7.465,-64.624 -63.578,-0.46 c -37.95,-2.083 -77.172,-8.414 -111.498,-25.426 3.693,-6.667 7.797,-13.171 11.006,-20.092 5.766,-12.432 8.855,-26.904 10.369,-40.475 l 10.592,-9.881 c 0.625,-0.968 2.028,-1.964 2.905,-2.797 l 6.847,-6.499 30.33,-28.915 60.754,-61.985 30.6,-33.182 c 6.2739,-4.41401 9.3533,-5.94992 13.102,-7.395 2.484,-1.087 5.559,-4.744 7.539,-6.662 l 19.628,-19.29 c 0.332,0.413 0.668,0.633 1.097,0.937 4.438,-0.339 9.023,-1.189 13.188,-2.791 4.752,-1.828 5.787,-4.727 7.749,-9.075 z"
       id="path17-7"
       style="display:inline"
       transform="translate(191.2368,28.511073)" /><path
       fill="#ffffff"
       d="m 1138.4126,759.94813 c 3.794,5.278 7.117,10.826 11.369,15.776 17.491,20.362 42.009,32.171 68.164,36.492 10.648,1.758 22.586,1.971 33.269,0.309 l 25.177,-5.615 5.13,49.372 -63.578,-0.46 c -37.95,-2.083 -77.172,-8.414 -111.498,-25.426 3.693,-6.667 7.797,-13.171 11.006,-20.092 5.766,-12.432 8.855,-26.904 10.369,-40.475 z"
       id="path18-8"
       transform="translate(191.2368,28.511073)"
       style="display:inline" /></g><g
     id="layer3"
     style="display:inline"
     transform="translate(-1243.5953,-680.20129)"><g
       id="g3"
       style="display:inline"
       transform="translate(-24.531516,-117.75128)"><path
         fill="#c6a37d"
         d="m 1084.8873,858.68475 c 0.641,-1.314 -8.2833,-29.37981 -7.3033,-30.51081 0,0 -3.9697,-21.69897 7.0797,-36.3291 11.0494,-14.63013 23.2932,-22.04086 44.9135,-22.37402 41.3839,-0.6377 113.8692,8.82955 104.9563,58.13469 -7.765,23.218 -31.7482,77.29624 -31.7462,101.91824 -8.184,-3.111 -17.327,-3.646 -26.017,-3.779 -13.987,-0.212 -27.626,1.009 -41.509,2.521 -8.721,0.949 -18.435,1.782 -26.852,4.222 -5.01,-11.552 -9.835,-23.126 -13.692,-35.125 -4.115,-12.801 -7.048,-25.554 -9.83,-38.678 z"
         id="path4-1"
         transform="translate(191.2368,28.511073)" /><path
         fill="#ffffff"
         d="m 1108.5826,932.49313 c 8.417,-2.44 18.131,-3.273 26.852,-4.222 13.883,-1.512 27.522,-2.733 41.509,-2.521 8.69,0.133 17.833,0.668 26.017,3.779 0.713,6.553 1.551,13.094 3.038,19.525 2.254,9.746 11.987,35.903 19.258,41.764 2.639,2.127 6.539,3.003 9.806,3.617 5.971,2.075 10.935,4.504 15.111,9.37797 4.146,4.838 5.447,10.857 4.7,17.083 -0.48,3.998 -2.911,8.045 -6.061,10.509 -2.463,1.926 -5.193,3.123 -8.273,3.607 -3.645,0.574 -7.487,0.361 -11.17,0.38 l -18.885,0.052 -17.942,-0.024 c -3.268,-0.023 -6.783,0.196 -10.005,-0.305 -6.199,-0.965 -11.682,-5.457 -16.174,-9.561 -9.979,-9.116 -17.899,-20.053 -25.737,-31.00497 z"
         id="path6-4"
         transform="translate(191.2368,28.511073)"
         style="fill:#fef7e1;fill-opacity:1" /></g><g
       id="g40"
       style="display:none"
       transform="translate(4.6257071,-117.95553)"><path
         style="display:inline;fill:#ebd4a2;fill-opacity:1;stroke-width:7.392"
         d="m 1523.4091,610.7837 c 0.2143,-0.005 1.6259,1.69881 3.5579,4.7514 1.113,1.75867 5.23,6.72649 9.7229,9.86656 10.7788,7.53318 32.8703,37.23088 32.8703,37.23088 l 42.4987,67.07275 c 0,0 6.0713,13.58801 5.7822,28.33245 -0.2892,14.74445 -2.3129,19.94837 -9.8297,30.35621 -7.5168,10.40784 -41.3422,30.93441 -58.1104,34.40369 -16.7682,3.46928 -40.7641,14.16623 -58.3996,16.18998 -17.6355,2.02374 -45.3897,4.91481 -60.1342,1.44553 -14.7444,-3.46928 -40.1858,-4.04749 -55.7976,-6.93856 -15.6117,-2.89107 -41.0531,-13.0098 -57.5322,-21.10479 -16.4791,-8.09499 -49.4372,-28.33245 -49.4372,-28.33245 0,0 -25.1523,-15.32266 -27.7543,-18.79194 -2.6019,-3.46928 -60.4233,0.28911 -60.4233,0.28911 0,0 -23.3535,-1.59435 -38.0979,-16.04968 -14.7444,-14.45533 -11.3393,-37.72417 -11.3393,-37.72417 0,0 7.8059,-27.75424 21.3939,-43.94421 13.588,-16.18998 22.0072,-27.21111 38.1971,-34.14967 16.19,-6.93856 36.6815,-9.50544 54.0279,-7.19259 17.3464,2.31285 40.4749,5.20392 55.2194,8.38409 14.7444,3.18018 42.4987,10.69695 67.9401,12.7207 25.4414,2.02375 52.7258,5.746 76.1434,4.87868 15.9732,-9.72121 79.5019,-41.69397 79.5019,-41.69397 z"
         id="path40" /><path
         style="display:inline;fill:#fef7e1;fill-opacity:1;stroke-width:7.392"
         d="m 1535.2288,624.47045 c 0,0 84.5576,51.0886 108.9082,55.35517 43.2973,7.58627 82.919,6.41248 93.0859,4.59376 12.2137,-2.18487 22.4417,-4.96128 22.4417,-4.96128 0,0 1.0557,108.21927 -54.2242,161.98692 -47.558,46.25707 -81.809,52.64425 -100.0309,55.36394 -20.3712,3.04048 -138.7712,5.78213 -202.6638,-8.09499 -63.8926,-13.87712 -93.3814,-21.3939 -119.6902,-34.6928 -23.9065,-12.08455 -73.4331,-43.0769 -98.8745,-75.16774 -25.4414,-32.09085 27.7543,-37.87298 27.7543,-37.87298 0,0 85.2075,57.0518 138.4821,77.7697 10.4078,4.04749 79.2152,21.97211 117.0882,16.76819 51.3611,-7.05723 102.922,-21.97211 131.2544,-48.56993 28.3325,-26.59781 8.095,-55.50848 8.095,-55.50848 0,0 -38.9288,-64.02314 -47.4135,-74.30042 -7.6974,-9.32369 -25.5136,-30.0671 -24.2127,-32.66906 z"
         id="path39" /></g><g
       id="g2"
       style="display:none"
       transform="translate(-3.9187269,5.6449018)"><path
         fill="#ffffff"
         d="m 1088.401,812.06777 c 8.367,4.134 17.639,7.612 26.788,9.499 3.267,0.673 7.496,0.546 10.759,-0.106 l 0.83,-0.158 c 4.757,-0.939 9.204,-2.772 13.675,-4.602 10.618,8.74 20.484,17.199 32.35,24.275 3.531,2.106 7.184,4.426 11.033,5.905 -6.682,4.914 -13.376,9.797 -17.779,16.98597 l -0.449,0.708 c -3.345,5.332 -5.153,12.759 -3.94,19.004 l 0.655,2.267 0.212,0.674 c 2.869,8.926 8.984,14.603 17.163,18.669 2.423,1.204 5.991,2.608 8.704,2.615 4.11,1.261 8.118,2.407 11.472,5.247 4.578,3.878 8.188,9.71 8.542,15.775 0.307,5.247 -0.953,10.447 -4.474,14.479 -7.491,8.58 -25.329,8.039 -35.882,8.523 l -27.052,-0.079 c -10.481,-0.379 -23.408,-0.4 -32.704,-5.743 l -0.656,-0.371 c -10.105,-5.889 -16.69,-19.65 -20.737,-30.128 l -3.258,-10.632 c -6.831,-24.143 -6.727,-48.19997 -1.624,-72.58397 1.381,-6.596 3.078,-14.297 6.372,-20.223 z"
         id="path8-3"
         style="fill:#fef7e1;fill-opacity:1" /><path
         fill="#ebd4a2"
         d="m 1328.5952,598.37997 c 2.6575,12.108 2.3391,29.05955 2.3391,29.05955 l 0.9794,12.31622 c -0.877,0.833 -0.3328,9.57647 -0.8993,14.10371 -0.5666,4.52724 -1.4534,13.72582 -2.2104,20.51132 -0.757,6.7855 -4.603,28.043 -10.369,40.475 -3.209,6.921 -7.313,13.425 -11.006,20.092 l -11.796,16.65 -6.262,7.709 c -0.98,1.131 -2.686,2.621 -3.327,3.935 l -15.836,18.576 c -19.006,20.345 -41.809,39.811 -65.646,54.241 -6.712,4.063 -13.875,7.071 -20.726,10.832 -3.849,-1.479 -7.502,-3.799 -11.033,-5.905 -11.866,-7.076 -21.732,-15.535 -32.35,-24.275 -4.471,1.83 -8.918,3.663 -13.675,4.602 l -0.83,0.158 c -3.263,0.652 -7.492,0.779 -10.759,0.106 -9.149,-1.887 -18.421,-5.365 -26.788,-9.499 6.3271,-9.50663 7.2195,-12.04942 15.466,-25.265 2.265,-2.308 3.86,-7.316 5.302,-10.288 l 9.157,-18.263 c 4.506,-9.417 9.152,-18.803 12.575,-28.689 6.716,-19.4 9.698,-39.918 8.067,-60.415 l -2.896,-27.035 c -1.194,-15.515 -0.126,-30.101 2.689,-45.377 2.572,-11.033 5.592,-22.673 11.178,-32.635 1.252,-3.896 3.989,-7.849 6.132,-11.336 10.957,-17.835 25.093,-32.249 43.341,-42.569 13.439,-6.208 27.649,-7.84 42.296,-7.905 11.892,-0.054 21.7243,-0.0382 35.521,2.305 10.4657,2.72479 19.892,10.21464 28.1526,21.14379 8.2607,10.92914 10.9947,20.24162 15.0618,33.6419 4.0672,13.40028 5.4942,26.89052 8.1518,38.99851 z"
         id="path12-6"
         style="display:inline" /></g></g></svg>
