<?xml version="1.0" encoding="UTF-8" standalone="no"?>
<!-- Created with Inkscape (http://www.inkscape.org/) -->

<svg
   width="152.99902"
   height="370.81482"
   viewBox="0 0 152.99902 370.81482"
   version="1.1"
   id="svg1"
   xmlSpace="preserve"
   xmlns="http://www.w3.org/2000/svg"><defs
     id="defs1" /><g
     id="layer2"
     style="display:none"
     transform="translate(-1477.213,-590.66016)"><rect
       style="fill:#e11f27;stroke-width:6.58991"
       id="rect1"
       width="1920.0383"
       height="1080.1802"
       x="-0.85588235"
       y="-0.11330665" /></g><g
     id="layer4"
     style="display:none"
     transform="translate(-1472.5873,-708.61569)"><path
       fill="#ebd4a2"
       d="m 1332.1516,582.29413 c -1.962,4.348 -2.997,7.247 -7.749,9.075 -4.165,1.602 -8.75,2.452 -13.188,2.791 -0.429,-0.304 -0.765,-0.524 -1.097,-0.937 l -19.628,19.29 c -1.98,1.918 -5.055,5.575 -7.539,6.662 -5.5002,2.98509 -9.4241,4.97359 -13.102,7.395 l -30.6,33.182 -60.754,61.985 -30.33,28.915 -6.847,6.499 c -0.877,0.833 -2.28,1.829 -2.905,2.797 l -10.592,9.881 c -1.514,13.571 -4.603,28.043 -10.369,40.475 -3.209,6.921 -7.313,13.425 -11.006,20.092 l -11.796,16.65 -6.262,7.709 c -0.98,1.131 -2.686,2.621 -3.327,3.935 l -15.836,18.576 c -19.006,20.345 -41.809,39.811 -65.646,54.241 -6.712,4.063 -13.875,7.071 -20.726,10.832 -3.849,-1.479 -7.502,-3.799 -11.033,-5.905 -11.866,-7.076 -21.732,-15.535 -32.35,-24.275 -4.471,1.83 -8.918,3.663 -13.675,4.602 l -0.83,0.158 c -3.263,0.652 -7.492,0.779 -10.759,0.106 -9.149,-1.887 -18.421,-5.365 -26.788,-9.499 6.32704,-9.50663 7.21948,-12.04942 15.466,-25.265 2.265,-2.308 3.86,-7.316 5.302,-10.288 l 9.157,-18.263 c 4.506,-9.417 9.152,-18.803 12.575,-28.689 6.716,-19.4 9.698,-39.918 8.067,-60.415 l -2.896,-27.035 c -1.194,-15.515 -0.126,-30.101 2.689,-45.377 2.572,-11.033 5.592,-22.673 11.178,-32.635 1.252,-3.896 3.989,-7.849 6.132,-11.336 10.957,-17.835 25.093,-32.249 43.341,-42.569 13.439,-6.208 27.649,-7.84 42.296,-7.905 11.892,-0.054 23.748,0.54 35.521,2.305 22.03,3.303 43.719,9.574 65.701,13.39 27.884,4.84 56.448,8.811 84.744,10.107 l 18.604,0.516 c 2.401,0.052 5.77,0.542 8.017,-0.195 l 7.4673,-4.03236 c 3.9035,-3.69189 11.5081,-5.51954 24.3065,-13.85081 27.3233,-13.43551 28.6321,-16.04462 47.0662,-23.69483 z"
       id="path12-62"
       style="display:inline"
       transform="translate(191.2368,28.511073)" /><path
       fill="#ebd4a2"
       d="m 1332.1516,582.29413 c 2.079,1.907 3.373,4.703 5.155,6.927 1.968,2.455 4.419,4.563 6.656,6.772 24.825,20.97 52.901,36.308 83.412,47.347 32.315,11.692 65.366,17.828 99.8,14.875 13.733,-1.178 28.036,-3.446 41.277,-7.322 -0.356,45.976 -9.647,97.014 -34.974,136.191 l -13.072,18.252 -5.211,6.428 c -0.406,0.496 -1.441,1.467 -1.565,2.065 l -11.997,110.839 c -16.642,0.18 -33.115,2.982 -48.83,8.544 -4.832,1.711 -9.923,3.464 -14.355,6.036 -7.502,5.255 -14.888,11.455 -19.308,19.626 l -11.621,-64.684 c -1.619,3.326 -2.203,7.309 -3.106,10.898 l -7.192,32.089 c -0.741,3.347 -1.268,8.017 -2.926,10.958 l -105.308,-27.229 -7.465,-64.624 -63.578,-0.46 c -37.95,-2.083 -77.172,-8.414 -111.498,-25.426 3.693,-6.667 7.797,-13.171 11.006,-20.092 5.766,-12.432 8.855,-26.904 10.369,-40.475 l 10.592,-9.881 c 0.625,-0.968 2.028,-1.964 2.905,-2.797 l 6.847,-6.499 30.33,-28.915 60.754,-61.985 30.6,-33.182 c 6.2739,-4.41401 9.3533,-5.94992 13.102,-7.395 2.484,-1.087 5.559,-4.744 7.539,-6.662 l 19.628,-19.29 c 0.332,0.413 0.668,0.633 1.097,0.937 4.438,-0.339 9.023,-1.189 13.188,-2.791 4.752,-1.828 5.787,-4.727 7.749,-9.075 z"
       id="path17-7"
       style="display:inline"
       transform="translate(191.2368,28.511073)" /><path
       fill="#ffffff"
       d="m 1138.4126,759.94813 c 3.794,5.278 7.117,10.826 11.369,15.776 17.491,20.362 42.009,32.171 68.164,36.492 10.648,1.758 22.586,1.971 33.269,0.309 l 25.177,-5.615 5.13,49.372 -63.578,-0.46 c -37.95,-2.083 -77.172,-8.414 -111.498,-25.426 3.693,-6.667 7.797,-13.171 11.006,-20.092 5.766,-12.432 8.855,-26.904 10.369,-40.475 z"
       id="path18-8"
       transform="translate(191.2368,28.511073)"
       style="display:inline" /><path
       fill="#ffffff"
       d="m 1343.9626,595.99313 c 24.825,20.97 52.901,36.308 83.412,47.347 32.315,11.692 65.366,17.828 99.8,14.875 13.733,-1.178 28.036,-3.446 41.277,-7.322 -0.356,45.976 -9.647,97.014 -34.974,136.191 l -13.072,18.252 -5.211,6.428 c -0.406,0.496 -1.441,1.467 -1.565,2.065 -10.954,10.124 -22.302,20.386 -34.901,28.452 -14.025,8.979 -29.512,15.076 -45.249,20.229 l -19.453,5.658 c -0.125,-2.193 0.624,-4.526 1.131,-6.659 l 2.932,-11.705 13.185,-51.21 c 1.787,-7.69 3.986,-15.547 4.617,-23.446 0.507,-6.341 -0.016,-12.941 -0.85,-19.231 -2.265,-17.099 -9.507,-33.272 -17.051,-48.613 -12.794,-26.014 -28.387,-50.563 -45.423,-74.004 l -22.282,-28.511 c -1.642,-2.061 -4.991,-5.023 -6.066,-7.235 -0.23,-0.474 -0.171,-1.04 -0.257,-1.561 z"
       id="path19-8"
       transform="translate(191.2368,28.511073)"
       style="display:inline" /></g><g
     id="layer3"
     style="display:inline"
     transform="translate(-1477.213,-590.66016)"><g
       id="g14"
       style="display:none"
       transform="translate(4.625707,-117.95553)"><path
         fill="#ffffff"
         d="m 1438.4476,939.24813 c 4.432,-2.572 9.523,-4.325 14.355,-6.036 15.715,-5.562 32.188,-8.364 48.83,-8.544 0.117,12.62 1.617,25.332 3.155,37.855 0.718,5.844 1.139,12.001 2.561,17.708 15.865,6.597 35.095,10.192 42.393,27.71797 l 0.449,1.189 c 0.946,4.068 1.347,7.89 -0.043,11.916 l -0.211,0.632 c -1.661,4.781 -5.352,8.954 -9.972,11.077 -7.89,3.625 -19.256,2.311 -27.807,1.999 l -26.586,0.088 c -7.796,-0.041 -16.22,0.377 -23.735,-2 -15.752,-4.983 -23.505,-18.645 -30.63,-32.432 -5.166,-13.41397 -9.681,-27.34197 -12.067,-41.54397 4.42,-8.171 11.806,-14.371 19.308,-19.626 z"
         id="path5-3"
         transform="translate(191.2368,28.511073)"
         style="display:inline;fill:#fef7e1;fill-opacity:1" /><path
         d="m 1697.6981,826.88882 c -2.4147,-2.00033 -4.2687,-4.11525 -8.7606,-5.14892 -12.3744,-2.84758 -14.5388,-2.83681 -27.0043,-0.41937 -12.4655,2.41743 -27.7525,4.99495 -37.608,13.00145 -19.7108,16.01299 -22.3411,27.28558 -29.7665,51.57133 -2.0997,6.86749 3.708,37.69474 4.1855,36.71384 l 11.6211,64.6836 c 4.42,-8.17099 11.8066,-14.37196 19.3086,-19.62696 4.432,-2.57199 9.5234,-4.32415 14.3554,-6.03515 15.715,-5.562 32.1881,-8.36492 48.8301,-8.54492 l 11.9961,-110.83789 c -0.2795,-3.59345 0.3046,-3.2812 -0.7787,-7.49936 -3.184,-5.5259 -2.697,-4.00801 -6.3787,-7.85765 z"
         style="display:inline;fill:#c6a37d;fill-opacity:1;stroke-width:7.392"
         id="path14" /></g><g
       id="g40"
       style="display:none"
       transform="translate(4.6257071,-117.95553)"><path
         style="display:inline;fill:#ebd4a2;fill-opacity:1;stroke-width:7.392"
         d="m 1523.4091,610.7837 c 0.2143,-0.005 1.6259,1.69881 3.5579,4.7514 1.113,1.75867 5.23,6.72649 9.7229,9.86656 10.7788,7.53318 32.8703,37.23088 32.8703,37.23088 l 42.4987,67.07275 c 0,0 6.0713,13.58801 5.7822,28.33245 -0.2892,14.74445 -2.3129,19.94837 -9.8297,30.35621 -7.5168,10.40784 -41.3422,30.93441 -58.1104,34.40369 -16.7682,3.46928 -40.7641,14.16623 -58.3996,16.18998 -17.6355,2.02374 -45.3897,4.91481 -60.1342,1.44553 -14.7444,-3.46928 -40.1858,-4.04749 -55.7976,-6.93856 -15.6117,-2.89107 -41.0531,-13.0098 -57.5322,-21.10479 -16.4791,-8.09499 -49.4372,-28.33245 -49.4372,-28.33245 0,0 -25.1523,-15.32266 -27.7543,-18.79194 -2.6019,-3.46928 -60.4233,0.28911 -60.4233,0.28911 0,0 -23.3535,-1.59435 -38.0979,-16.04968 -14.7444,-14.45533 -11.3393,-37.72417 -11.3393,-37.72417 0,0 7.8059,-27.75424 21.3939,-43.94421 13.588,-16.18998 22.0072,-27.21111 38.1971,-34.14967 16.19,-6.93856 36.6815,-9.50544 54.0279,-7.19259 17.3464,2.31285 40.4749,5.20392 55.2194,8.38409 14.7444,3.18018 42.4987,10.69695 67.9401,12.7207 25.4414,2.02375 52.7258,5.746 76.1434,4.87868 15.9732,-9.72121 79.5019,-41.69397 79.5019,-41.69397 z"
         id="path40" /><path
         style="display:inline;fill:#fef7e1;fill-opacity:1;stroke-width:7.392"
         d="m 1535.2288,624.47045 c 0,0 84.5576,51.0886 108.9082,55.35517 43.2973,7.58627 82.919,6.41248 93.0859,4.59376 12.2137,-2.18487 22.4417,-4.96128 22.4417,-4.96128 0,0 1.0557,108.21927 -54.2242,161.98692 -47.558,46.25707 -81.809,52.64425 -100.0309,55.36394 -20.3712,3.04048 -138.7712,5.78213 -202.6638,-8.09499 -63.8926,-13.87712 -93.3814,-21.3939 -119.6902,-34.6928 -23.9065,-12.08455 -73.4331,-43.0769 -98.8745,-75.16774 -25.4414,-32.09085 27.7543,-37.87298 27.7543,-37.87298 0,0 85.2075,57.0518 138.4821,77.7697 10.4078,4.04749 79.2152,21.97211 117.0882,16.76819 51.3611,-7.05723 102.922,-21.97211 131.2544,-48.56993 28.3325,-26.59781 8.095,-55.50848 8.095,-55.50848 0,0 -38.9288,-64.02314 -47.4135,-74.30042 -7.6974,-9.32369 -25.5136,-30.0671 -24.2127,-32.66906 z"
         id="path39" /></g><g
       id="g38"
       style="display:inline"
       transform="translate(4.6257071,-117.95553)"><path
         fill="#ffffff"
         d="m 1288.9866,920.90613 105.308,27.229 c -2.449,10.757 -4.056,21.812 -5.283,32.774 -0.469,4.189 -1.812,11.132 0.455,14.934 0.853,1.43 2.377,2.62 3.919,3.199 l 11.268,4.29697 c 8.712,3.769 16.895,9.142 20.352,18.388 2.075,5.551 2.084,11.691 -0.43,17.08 -2.179,4.672 -6.634,8.87 -11.608,10.383 -4.307,1.31 -8.837,1.112 -13.285,1.13 l -17.77,0.063 c -12.373,0.113 -25.891,1.32 -38.093,-0.308 -4.696,-0.627 -9.218,-2.382 -13.334,-4.68 -18.102,-10.104 -23.133,-32.332 -28.266,-50.75797 z"
         id="path7-7"
         transform="translate(191.2368,28.511073)"
         style="display:inline;fill:#fef7e1;fill-opacity:1" /><path
         d="m 1598.6922,923.00162 5.2754,-28.4122 17.58,-66.64449 c 0,0 15.947,-42.1108 -15.5351,-96.08008 -31.4821,-53.96929 -115.2994,-2.86306 -123.4766,40.88477 -8.0762,43.20769 -10.5556,97.0265 -9.8281,112.5332 l 7.4277,64.293 105.3086,27.2304 c 1.658,-2.941 2.1848,-7.6119 2.9258,-10.9589 l 7.1914,-32.0879 c 0.903,-3.589 1.4865,-7.5725 3.1055,-10.8985 z"
         style="display:inline;fill:#ebd4a2"
         id="path38" /></g></g></svg>
