<?xml version="1.0" encoding="UTF-8" standalone="no"?>
<!-- Created with Inkscape (http://www.inkscape.org/) -->

<svg
   width="251.23132"
   height="401.47797"
   viewBox="0 0 251.23132 401.47797"
   version="1.1"
   id="svg1"
   xmlSpace="preserve"
   xmlns="http://www.w3.org/2000/svg"><defs
     id="defs1" /><g
     id="layer3"
     style="display:inline"
     transform="translate(-1074.4288,-555.99469)"><g
       id="g2"
       style="display:inline"
       transform="translate(-3.9187269,5.6449018)"><path
         fill="#ffffff"
         d="m 1088.401,812.06777 c 8.367,4.134 17.639,7.612 26.788,9.499 3.267,0.673 7.496,0.546 10.759,-0.106 l 0.83,-0.158 c 4.757,-0.939 9.204,-2.772 13.675,-4.602 10.618,8.74 20.484,17.199 32.35,24.275 3.531,2.106 7.184,4.426 11.033,5.905 -6.682,4.914 -13.376,9.797 -17.779,16.98597 l -0.449,0.708 c -3.345,5.332 -5.153,12.759 -3.94,19.004 l 0.655,2.267 0.212,0.674 c 2.869,8.926 8.984,14.603 17.163,18.669 2.423,1.204 5.991,2.608 8.704,2.615 4.11,1.261 8.118,2.407 11.472,5.247 4.578,3.878 8.188,9.71 8.542,15.775 0.307,5.247 -0.953,10.447 -4.474,14.479 -7.491,8.58 -25.329,8.039 -35.882,8.523 l -27.052,-0.079 c -10.481,-0.379 -23.408,-0.4 -32.704,-5.743 l -0.656,-0.371 c -10.105,-5.889 -16.69,-19.65 -20.737,-30.128 l -3.258,-10.632 c -6.831,-24.143 -6.727,-48.19997 -1.624,-72.58397 1.381,-6.596 3.078,-14.297 6.372,-20.223 z"
         id="path8-3"
         style="fill:#fef7e1;fill-opacity:1" /><path
         d="m 1329.5789,667.17541 c -0.038,-1.43244 -0.1433,-3.62288 -0.1602,-4.82031 -0.5,-35.49997 -21.5,-46.00003 -36,-74.5 -14.5,-28.49997 -52.5,-33 -52.5,-33 0,0 -41.5,-4 -64.5,-4.5 -9.5141,-0.20683 -18.5725,5.67886 -25.957,12.63086 -0.1327,0.31767 -0.4444,0.8692 -0.5234,1.11523 -5.586,9.96199 -8.6058,21.60178 -11.1778,32.63477 -2.815,15.27598 -3.8834,29.86197 -2.6894,45.37695 l 2.8965,27.03516 c 1.631,20.49698 -1.3505,41.01408 -8.0665,60.41406 -3.4229,9.88599 -8.0682,19.27246 -12.5742,28.68945 l -9.1582,18.26367 c -1.442,2.972 -3.0358,7.97912 -5.3008,10.28711 -8.2464,13.21557 -9.1397,15.75901 -15.4668,25.26563 8.367,4.13399 17.6382,7.61105 26.7872,9.49805 3.267,0.673 7.4967,0.54653 10.7597,-0.10547 l 0.8301,-0.15821 c 4.757,-0.939 9.2048,-2.77156 13.6758,-4.60156 10.618,8.73999 20.4836,17.1994 32.3496,24.27539 3.531,2.106 7.1842,4.4253 11.0332,5.9043 6.851,-3.761 14.0126,-6.76904 20.7246,-10.83203 23.837,-14.42999 46.6405,-33.89526 65.6465,-54.24024 l 15.8359,-18.57617 c 0.641,-1.314 2.3482,-2.80455 3.3282,-3.93555 l 6.2617,-7.70898 11.7949,-16.65039 c 3.693,-6.66699 7.7969,-13.1708 11.0059,-20.0918 5.7659,-12.43198 9.6121,-33.68911 10.3691,-40.47461 0.2655,-2.38028 0.4973,-4.52696 0.7754,-7.19531 z"
         style="display:inline;fill:#ebd4a2;fill-opacity:1"
         id="path13" /></g></g></svg>
