<?xml version="1.0" encoding="UTF-8" standalone="no"?>
<!-- Created with Inkscape (http://www.inkscape.org/) -->

<svg
   width="36.979492"
   height="14.338226"
   viewBox="0 0 36.979492 14.338226"
   version="1.1"
   id="svg1"
   xmlSpace="preserve"
   xmlns="http://www.w3.org/2000/svg"><defs
     id="defs1" /><g
     id="layer2"
     style="display:none"
     transform="translate(-1822.5205,-342.35709)"><rect
       style="fill:#e11f27;stroke-width:6.58991"
       id="rect1"
       width="1920.0383"
       height="1080.1802"
       x="-0.85588235"
       y="-0.11330665" /></g><g
     id="layer3"
     style="display:inline"
     transform="translate(-1822.5205,-342.35709)"><g
       id="g44"
       style="display:none"
       transform="translate(4.6257071,-117.95553)"><path
         d="m 1795.8672,134.32031 c -0.6452,0.0301 -1.3178,0.12773 -2.0313,0.28516 -8.584,1.8933 -17.0535,8.75318 -23.5625,14.35937 -14.4819,12.47299 -27.1773,26.92852 -37.4453,43.0625 -18.421,-1.28299 -38.5972,-2.61249 -55.8261,5.5625 -6.717,-17.52698 -14.4904,-34.44726 -26.0274,-49.37695 -3.06,-3.9598 -6.9098,-8.83566 -11.5918,-10.91016 -3.287,-1.45649 -7.1676,-0.19176 -10.2676,1.14844 -10.827,4.6806 -20.1879,13.23281 -28.0859,21.8418 -16.576,18.06698 -28.9411,38.51447 -37.8711,61.31445 -6.423,16.39599 -11.4578,33.19336 -15.6738,50.27735 l -5.5449,23.83007 c -9.149,1.763 -17.5946,3.91162 -26.1426,7.72461 l 14.039,18.20899 c 0.932,1.321 3.0069,3.73267 3.2579,5.26367 l -28.4512,14.19726 21.7988,28.1504 c -6.952,6.69499 -14.493,10.21842 -23.332,13.85742 l 13.0215,21.53125 c 3.013,4.92999 4.2139,11.43752 6.2539,16.85351 2.435,6.467 5.591,12.82084 8.83,18.92383 l 5.6485,10.33203 c 1.027,1.694 3.6161,4.74636 3.7461,6.56836 19.196,27.57497 49.5313,46.15506 80.1523,58.62305 18.129,7.38099 36.471,12.94141 55.75,16.4414 29.267,5.313 61.0157,7.11761 90.2656,0.59961 6.2429,-1.45486 11.5035,-3.84761 16.0977,-6.38476 9.71,-6.30155 20.0146,-12.02859 29.6328,-18.84766 8.3227,-5.90057 4.8494,-5.48403 14.791,-12.29687 2.02,-1.815 11.9634,-6.49333 13.3614,-8.86133 3.7828,-6.83897 10.788,-14.33815 19.1875,-41.23633 6.6929,-6.02899 10.8176,-12.59498 13.8046,-21.04297 1.18,-2.103 3.6038,-3.78276 5.3848,-5.38476 5.431,-4.887 8.403,-10.64498 10.541,-17.54297 l 0.6758,-2.63867 c 0.795,-2.838 0.954,-7.42943 -0.373,-10.10743 -2.429,-4.89799 -9.4328,-7.36331 -14.2618,-9.07031 -3.975,-2.17 -11.6092,-2.64656 -16.0722,-3.22656 l -0.7813,-1.16992 -1.8886,-1.80469 c 1.2586,-5.09809 0.7638,-7.78547 1.5918,-11.35547 l 0.9179,-12.75391 0.4571,-7.88867 c 0.2758,-7.48201 -1.0516,-15.33433 -0.8086,-21.61133 -0.2078,-5.95773 -0.8891,-11.32545 -2.3985,-19.96679 -0.3969,-3.2796 -1.2621,-5.12016 -1.8301,-7.41016 -3.71,-14.95998 -10.4086,-27.45073 -18.9746,-40.13672 l -2.664,-27.26758 c -3.242,-24.61397 -9.4561,-50.59036 -20.541,-72.90234 -2.709,-5.45299 -6.3024,-12.40544 -11.3594,-16.05664 -1.779,-1.28422 -3.4648,-1.79538 -5.4004,-1.70508 z"
         style="display:inline;fill:#ebd4a2"
         id="path41"
         transform="translate(-4.6257071,117.95553)" /><path
         fill="#ffffff"
         d="m 1771.295,323.43494 c 7.3,-11.836 14.733,-27.358 27.64,-33.806 1.785,1.557 3.646,3.087 4.789,5.202 2.037,3.767 2.813,8.393 3.821,12.524 3.64,14.927 5.696,30.067 7.24,45.335 l -13.647,-11.58 c -8.879,-6.886 -19.435,-13.364 -29.843,-17.675 z"
         id="path27-4"
         style="display:inline;fill:#c6a37d;fill-opacity:1" /><path
         fill="#ffffff"
         d="m 1579.402,401.99594 1.222,-5.435 c 7.771,-31.543 20.352,-64.192 40.25,-90.142 3.325,-4.336 7.796,-10.191 12.573,-12.941 l 0.674,-0.368 c 1.225,-0.68 2.492,-1.456 3.889,-1.715 1.418,-0.262 2.98,0.014 4.163,0.852 4.426,3.135 7.362,9.916 9.538,14.741 6.114,13.552 10.11,26.683 13.521,41.128 -33.005,5.482 -64.058,24.919 -83.609,52.244 l -1.245,1.916 -0.601,-0.189 z"
         id="path31-5"
         style="display:inline;fill:#c6a37d;fill-opacity:1" /><path
         fill="#ffffff"
         d="m 1803.8009,627.86768 c -25.7533,11.37638 -45.2369,10.56726 -72.8359,6.24826 -13.533,-2.117 -26.667,-5.098 -39.579,-9.744 -29.812,-10.726 -55.889,-26.657 -79.25,-48.024 -16.646,-15.225 -30.891,-32.742 -40.513,-53.24 6.832,0.664 13.569,2.404 20.431,3.081 22.939,2.262 43.723,-4.939 63.953,-14.844 7.794,6.001 18.174,11.526 27.456,14.756 20.015,6.966 40.327,3.013 58.971,-5.988 11.36,-5.484 23.488,-15.816 27.595,-28.071 1.046,-3.121 1.678,-5.548 1.62,-8.882 l -0.019,-0.845 c 15.518,-1.572 30.14,-1.901 45.642,0.378 2.015,0.398 4.635,0.589 6.502,1.365 3.126,0.214 5.836,0.619 8.878,1.423 3.817,0.993 7.924,1.78 11.6,3.198 l 9.887,4.457 0.782,1.17 c 4.463,0.58 12.097,1.056 16.072,3.226 4.829,1.707 11.834,4.172 14.263,9.07 1.327,2.678 1.168,7.269 0.373,10.107 l -0.677,2.64 c -2.138,6.898 -5.11,12.656 -10.541,17.543 -1.781,1.602 -4.205,3.28 -5.385,5.383 -2.987,8.448 -7.111,15.014 -13.804,21.043 -4.2529,9.70219 -6.1832,16.86989 -8.7672,22.92731 -3.5137,8.23685 -4.6519,10.42107 -8.7552,16.21321 -2.9694,4.19169 -8.2901,8.70712 -11.4201,11.1428 -12.1684,9.46907 -11.9833,9.63018 -22.4786,14.26642 z"
         id="path33-3"
         style="display:inline;fill:#fef7e1;fill-opacity:1" /><g
         id="g42"
         style="display:inline"><path
           fill="#43414a"
           d="m 1839.3872,596.05469 c -1.3698,1.25149 -2.0987,1.75152 -3.8152,2.02225 -1.5785,0.24896 -2.824,0.399 -4.436,-0.193 -7.964,-2.924 -11.226,-14.064 -14.387,-21.234 -4.546,0.052 -9.835,0.158 -14.233,-0.999 -6.797,-1.788 -15.007,-4.406 -20.561,-8.838 -0.981,-0.784 -2.588,-2.405 -2.745,-3.688 -0.246,-2.022 -0.089,-3.202 1.269,-4.813 1.245,-1.476 3.048,-2.079 4.907,-1.433 2.716,0.945 5.433,3.698 8.027,5.126 9.024,4.967 19.978,5.784 30.003,4.898 15.5458,-2.19876 19.8535,-6.03721 23.7867,-8.50102 4.0777,0.49953 5.502,2.61441 8.0202,4.91995 -0.9316,3.78765 -4.7407,14.87354 -7.3229,20.16495 -2.5979,5.32343 -3.3416,7.33602 -8.5128,12.56787 z"
           id="path34-6"
           style="display:inline" /><path
           fill="#43414a"
           d="m 1854.921,494.30594 c 4.463,0.58 12.097,1.056 16.072,3.226 4.829,1.707 11.834,4.172 14.263,9.07 1.327,2.678 1.168,7.269 0.373,10.107 l -0.677,2.64 c -2.138,6.898 -5.11,12.656 -10.541,17.543 -1.781,1.602 -4.205,3.28 -5.385,5.383 -2.987,8.448 -7.111,15.014 -13.804,21.043 l -8.042,-4.901 c 5.842,-4.231 9.632,-9.725 13.066,-15.975 -0.98,-1.437 -5.305,-2.209 -7.128,-3.037 -2.516,-1.143 -4.941,-2.559 -7.232,-4.099 -6.396,-4.3 -14.037,-12.122 -15.415,-20.066 -0.699,-4.029 0.243,-8.606 2.655,-11.934 4.833,-6.669 14.279,-8.011 21.795,-9 z"
           id="path36-5"
           style="display:inline" /><path
           fill="#19192e"
           d="m 1884.952,519.34894 c -2.667,0.915 -4.869,3.019 -7.566,3.844 -1.497,0.458 -3.247,0.052 -4.5,-0.876 -2.334,-1.729 -1.559,-13.695 -1.769,-16.846 -0.159,-2.371 -0.588,-4.762 -0.947,-7.111 l 0.823,-0.828 c 4.829,1.707 11.834,4.172 14.263,9.07 1.327,2.678 1.168,7.269 0.373,10.107 z"
           id="path37-8"
           style="display:inline" /></g></g><g
       id="g45"
       style="display:none"
       transform="translate(4.6257071,-117.95553)"><path
         d="m 1847.6341,443.85592 c -0.7809,-0.0274 -1.5588,-0.007 -2.3282,0.0644 -7.95,0.973 -15.2058,4.09491 -20.2558,10.58789 -5.1,6.558 -9.0109,15.25177 -7.9199,23.71875 0.1954,1.51701 0.6769,3.09653 1.3554,4.66407 1.7894,0.28476 3.7645,0.53232 5.2891,1.16601 3.126,0.214 5.8349,0.61983 8.8769,1.42383 3.817,0.993 7.9236,1.77927 11.5996,3.19727 l 9.8887,4.45703 -1.8887,-1.80469 c 1.2586,-5.09808 0.7638,-7.78547 1.5918,-11.35547 l 0.918,-12.75391 0.457,-7.88867 c 0.1745,-4.73226 -0.2744,-9.57324 -0.58,-14.10937 -2.287,-0.78033 -4.6612,-1.28505 -7.0039,-1.36719 z"
         style="display:inline;fill:#19192e"
         id="path47" /><path
         fill="#ffffff"
         d="m 1830.7072,456.98953 c 1.625,-0.342 3.617,-0.096 5.199,0.384 1.999,0.606 3.498,2.217 4.404,4.04 0.883,1.775 1.269,4.425 0.539,6.306 -0.938,2.42 -3.11,3.607 -5.297,4.721 -1.535,0.182 -3.336,0.518 -4.848,0.103 -2.053,-0.565 -3.621,-2.007 -4.507,-3.92 -1.049,-2.266 -1.23,-5.134 -0.296,-7.474 0.874,-2.188 2.715,-3.339 4.806,-4.16 z"
         id="path30-2-7"
         style="display:inline" /></g><path
       style="display:inline;fill:#19192e;fill-opacity:1;stroke-width:7.392"
       d="m 1823.3125,354.1875 c 0,0 20.096,-19.49058 36.1875,-8.4375 -0.062,1.4375 -0.125,3.625 -0.125,3.625 0,0 -13.0755,-7.29339 -34.6982,6.54327 -3.8561,2.46756 -1.3643,-1.73077 -1.3643,-1.73077 z"
       id="path49" /></g></svg>
