<?xml version="1.0" encoding="UTF-8" standalone="no"?>
<!-- Created with Inkscape (http://www.inkscape.org/) -->

<svg
   width="38.310669"
   height="49.290955"
   viewBox="0 0 38.310669 49.290955"
   version="1.1"
   id="svg1"
   xmlSpace="preserve"
   xmlns="http://www.w3.org/2000/svg"
   xmlnsSvg="http://www.w3.org/2000/svg"><defs
     id="defs1" /><g
     id="layer2"
     style="display:none"
     transform="translate(-1821.5721,-325.88867)"><rect
       style="fill:#e11f27;stroke-width:6.58991"
       id="rect1"
       width="1920.0383"
       height="1080.1802"
       x="-0.85588235"
       y="-0.11330665" /></g><g
     id="layer3"
     style="display:inline"
     transform="translate(-1821.5721,-325.88867)"><g
       id="g44"
       style="display:none"
       transform="translate(4.6257071,-117.95553)"><path
         fill="#ebd4a2"
         d="m 1728.203,309.98294 c 10.268,-16.134 22.963,-30.589 37.445,-43.062 6.509,-5.6062 14.978,-12.4674 23.562,-14.3607 2.854,-0.6297 5.06,-0.2916 7.432,1.4207 5.057,3.6512 8.65,10.604 11.359,16.057 11.085,22.312 17.299,48.288 20.541,72.902 l 2.664,27.267 c 8.566,12.686 15.264,25.178 18.974,40.138 0.568,2.29 1.4335,4.1304 1.8304,7.41 1.5094,8.64135 2.1907,14.00827 2.3985,19.96601 -0.243,6.277 1.0856,14.12891 0.8097,21.61093 l -0.4573,7.88896 -0.9184,12.75439 c -0.828,3.57 -0.3331,6.25727 -1.5917,11.35537 l 1.8878,1.80534 0.782,1.17 c 4.463,0.58 12.097,1.056 16.072,3.226 4.829,1.707 11.834,4.172 14.263,9.07 1.327,2.678 1.168,7.269 0.373,10.107 l -0.677,2.64 c -2.138,6.898 -5.11,12.656 -10.541,17.543 -1.781,1.602 -4.205,3.28 -5.385,5.383 -2.987,8.448 -7.111,15.014 -13.804,21.043 -8.3995,26.89821 -15.4041,34.39844 -19.1869,41.23742 -1.398,2.368 -11.3422,7.04702 -13.3622,8.86202 -9.9416,6.81285 -6.4686,6.39594 -14.7913,12.29652 -9.6182,6.81907 -19.9223,12.54547 -29.6323,18.84703 -4.5942,2.53715 -9.8554,4.93014 -16.0983,6.38501 l -1.028,30.003 c -13.241,3.876 -27.544,6.144 -41.277,7.322 -34.434,2.953 -67.485,-3.183 -99.8,-14.875 -30.511,-11.039 -58.587,-26.377 -83.412,-47.347 -2.237,-2.209 -4.688,-4.317 -6.656,-6.772 -1.782,-2.224 -3.076,-5.02 -5.155,-6.927 -1.221,-2.861 -0.571,-6.738 -0.836,-9.845 l 3.074,-12.645 c 0.771,-2.628 2.519,-5.389 2.442,-8.093 l -0.024,-0.022 6.505,-6.464 c -0.13,-1.822 -2.72,-4.873 -3.747,-6.567 l -5.647,-10.333 c -3.239,-6.103 -6.395,-12.456 -8.83,-18.923 -2.04,-5.416 -3.241,-11.924 -6.254,-16.854 l -13.022,-21.532 c 8.839,-3.639 16.379,-7.161 23.331,-13.856 l -21.798,-28.151 28.452,-14.197 c -0.251,-1.531 -2.326,-3.943 -3.258,-5.264 l -14.04,-18.208 c 8.548,-3.813 16.994,-5.962 26.143,-7.725 l 5.545,-23.83 c 4.216,-17.084 9.251,-33.882 15.674,-50.278 8.93,-22.8 21.295,-43.247 37.871,-61.314 7.898,-8.609 17.258,-17.1614 28.085,-21.842 3.1,-1.3402 6.982,-2.6055 10.269,-1.149 4.682,2.0745 8.531,6.9505 11.591,10.9103 11.537,14.9297 19.31,31.8507 26.027,49.3777 17.229,-8.175 37.406,-6.846 55.827,-5.563 z"
         id="path20-9"
         style="display:inline" /><path
         fill="#ffffff"
         d="m 1771.295,323.43494 c 7.3,-11.836 14.733,-27.358 27.64,-33.806 1.785,1.557 3.646,3.087 4.789,5.202 2.037,3.767 2.813,8.393 3.821,12.524 3.64,14.927 5.696,30.067 7.24,45.335 l -13.647,-11.58 c -8.879,-6.886 -19.435,-13.364 -29.843,-17.675 z"
         id="path27-4"
         style="display:inline;fill:#c6a37d;fill-opacity:1" /><path
         fill="#ffffff"
         d="m 1579.402,401.99594 1.222,-5.435 c 7.771,-31.543 20.352,-64.192 40.25,-90.142 3.325,-4.336 7.796,-10.191 12.573,-12.941 l 0.674,-0.368 c 1.225,-0.68 2.492,-1.456 3.889,-1.715 1.418,-0.262 2.98,0.014 4.163,0.852 4.426,3.135 7.362,9.916 9.538,14.741 6.114,13.552 10.11,26.683 13.521,41.128 -33.005,5.482 -64.058,24.919 -83.609,52.244 l -1.245,1.916 -0.601,-0.189 z"
         id="path31-5"
         style="display:inline;fill:#c6a37d;fill-opacity:1" /><path
         fill="#ffffff"
         d="m 1803.8009,627.86768 c -25.7533,11.37638 -45.2369,10.56726 -72.8359,6.24826 -13.533,-2.117 -26.667,-5.098 -39.579,-9.744 -29.812,-10.726 -55.889,-26.657 -79.25,-48.024 -16.646,-15.225 -30.891,-32.742 -40.513,-53.24 6.832,0.664 13.569,2.404 20.431,3.081 22.939,2.262 43.723,-4.939 63.953,-14.844 7.794,6.001 18.174,11.526 27.456,14.756 20.015,6.966 40.327,3.013 58.971,-5.988 11.36,-5.484 23.488,-15.816 27.595,-28.071 1.046,-3.121 1.678,-5.548 1.62,-8.882 l -0.019,-0.845 c 15.518,-1.572 30.14,-1.901 45.642,0.378 2.015,0.398 4.635,0.589 6.502,1.365 3.126,0.214 5.836,0.619 8.878,1.423 3.817,0.993 7.924,1.78 11.6,3.198 l 9.887,4.457 0.782,1.17 c 4.463,0.58 12.097,1.056 16.072,3.226 4.829,1.707 11.834,4.172 14.263,9.07 1.327,2.678 1.168,7.269 0.373,10.107 l -0.677,2.64 c -2.138,6.898 -5.11,12.656 -10.541,17.543 -1.781,1.602 -4.205,3.28 -5.385,5.383 -2.987,8.448 -7.111,15.014 -13.804,21.043 -4.2529,9.70219 -6.1832,16.86989 -8.7672,22.92731 -3.5137,8.23685 -4.6519,10.42107 -8.7552,16.21321 -2.9694,4.19169 -8.2901,8.70712 -11.4201,11.1428 -12.1684,9.46907 -11.9833,9.63018 -22.4786,14.26642 z"
         id="path33-3"
         style="display:inline;fill:#fef7e1;fill-opacity:1" /><path
         fill="#c6a37d"
         d="m 1535.984,575.28094 c 19.196,27.575 49.531,46.155 80.152,58.623 18.129,7.381 36.471,12.943 55.75,16.443 29.267,5.313 61.015,7.117 90.265,0.599 l -1.028,30.003 c -13.241,3.876 -27.544,6.144 -41.277,7.322 -34.434,2.953 -67.485,-3.183 -99.8,-14.875 -30.511,-11.039 -58.587,-26.377 -83.412,-47.347 -2.237,-2.209 -4.688,-4.317 -6.656,-6.772 -1.782,-2.224 -3.076,-5.02 -5.155,-6.927 -1.221,-2.861 -0.571,-6.738 -0.836,-9.845 l 3.074,-12.645 c 0.771,-2.628 2.519,-5.389 2.442,-8.093 l -0.024,-0.022 z"
         id="path32-4"
         style="display:inline" /><g
         id="g42"
         style="display:inline"><path
           fill="#43414a"
           d="m 1839.3872,596.05469 c -1.3698,1.25149 -2.0987,1.75152 -3.8152,2.02225 -1.5785,0.24896 -2.824,0.399 -4.436,-0.193 -7.964,-2.924 -11.226,-14.064 -14.387,-21.234 -4.546,0.052 -9.835,0.158 -14.233,-0.999 -6.797,-1.788 -15.007,-4.406 -20.561,-8.838 -0.981,-0.784 -2.588,-2.405 -2.745,-3.688 -0.246,-2.022 -0.089,-3.202 1.269,-4.813 1.245,-1.476 3.048,-2.079 4.907,-1.433 2.716,0.945 5.433,3.698 8.027,5.126 9.024,4.967 19.978,5.784 30.003,4.898 15.5458,-2.19876 19.8535,-6.03721 23.7867,-8.50102 4.0777,0.49953 5.502,2.61441 8.0202,4.91995 -0.9316,3.78765 -4.7407,14.87354 -7.3229,20.16495 -2.5979,5.32343 -3.3416,7.33602 -8.5128,12.56787 z"
           id="path34-6"
           style="display:inline" /><path
           fill="#43414a"
           d="m 1854.921,494.30594 c 4.463,0.58 12.097,1.056 16.072,3.226 4.829,1.707 11.834,4.172 14.263,9.07 1.327,2.678 1.168,7.269 0.373,10.107 l -0.677,2.64 c -2.138,6.898 -5.11,12.656 -10.541,17.543 -1.781,1.602 -4.205,3.28 -5.385,5.383 -2.987,8.448 -7.111,15.014 -13.804,21.043 l -8.042,-4.901 c 5.842,-4.231 9.632,-9.725 13.066,-15.975 -0.98,-1.437 -5.305,-2.209 -7.128,-3.037 -2.516,-1.143 -4.941,-2.559 -7.232,-4.099 -6.396,-4.3 -14.037,-12.122 -15.415,-20.066 -0.699,-4.029 0.243,-8.606 2.655,-11.934 4.833,-6.669 14.279,-8.011 21.795,-9 z"
           id="path36-5"
           style="display:inline" /><path
           fill="#19192e"
           d="m 1884.952,519.34894 c -2.667,0.915 -4.869,3.019 -7.566,3.844 -1.497,0.458 -3.247,0.052 -4.5,-0.876 -2.334,-1.729 -1.559,-13.695 -1.769,-16.846 -0.159,-2.371 -0.588,-4.762 -0.947,-7.111 l 0.823,-0.828 c 4.829,1.707 11.834,4.172 14.263,9.07 1.327,2.678 1.168,7.269 0.373,10.107 z"
           id="path37-8"
           style="display:inline" /></g></g><g
       id="g45"
       style="display:inline"
       transform="translate(4.6257071,-117.95553)"><path
         d="m 1847.6341,443.85592 c -0.7809,-0.0274 -1.5588,-0.007 -2.3282,0.0644 -7.95,0.973 -15.2058,4.09491 -20.2558,10.58789 -5.1,6.558 -9.0109,15.25177 -7.9199,23.71875 0.1954,1.51701 0.6769,3.09653 1.3554,4.66407 1.7894,0.28476 3.7645,0.53232 5.2891,1.16601 3.126,0.214 5.8349,0.61983 8.8769,1.42383 3.817,0.993 7.9236,1.77927 11.5996,3.19727 l 9.8887,4.45703 -1.8887,-1.80469 c 1.2586,-5.09808 0.7638,-7.78547 1.5918,-11.35547 l 0.918,-12.75391 0.457,-7.88867 c 0.1745,-4.73226 -0.2744,-9.57324 -0.58,-14.10937 -2.287,-0.78033 -4.6612,-1.28505 -7.0039,-1.36719 z"
         style="display:inline;fill:#19192e"
         id="path47" /><path
         fill="#ffffff"
         d="m 1830.7072,456.98953 c 1.625,-0.342 3.617,-0.096 5.199,0.384 1.999,0.606 3.498,2.217 4.404,4.04 0.883,1.775 1.269,4.425 0.539,6.306 -0.938,2.42 -3.11,3.607 -5.297,4.721 -1.535,0.182 -3.336,0.518 -4.848,0.103 -2.053,-0.565 -3.621,-2.007 -4.507,-3.92 -1.049,-2.266 -1.23,-5.134 -0.296,-7.474 0.874,-2.188 2.715,-3.339 4.806,-4.16 z"
         id="path30-2-7"
         style="display:inline" /></g></g></svg>
