<?xml version="1.0" encoding="UTF-8" standalone="no"?>
<!-- Created with Inkscape (http://www.inkscape.org/) -->

<svg
   width="227.68433"
   height="280.94736"
   viewBox="0 0 227.68433 280.94736"
   version="1.1"
   id="svg1"
   xmlSpace="preserve"
   xmlns="http://www.w3.org/2000/svg"
   xmlnsSvg="http://www.w3.org/2000/svg"><defs
     id="defs1" /><g
     id="layer2"
     style="display:none"
     transform="translate(-1025.6257,-322.04446)"><rect
       style="fill:#e11f27;stroke-width:6.58991"
       id="rect1"
       width="1920.0383"
       height="1080.1802"
       x="-0.85588235"
       y="-0.11330665" /></g><g
     id="layer1"
     style="display:none"
     transform="translate(-1025.6257,-322.04446)"><g
       id="g1"
       transform="translate(191.2368,28.511073)"><path
         fill="#c6a37d"
         d="m 900.992,310.773 c 1.671,2.421 2.107,4.966 3.009,7.707 0.835,2.54 1.977,5.177 2.502,7.796 l -9.887,-4.457 c 2.496,-2.8 3.548,-7.476 4.376,-11.046 z"
         id="path2" /><path
         fill="#ffffff"
         d="m 937.993,349.849 c 0.581,0.707 1.565,1.616 1.973,2.401 0.35,0.674 0.44,2.233 0.571,3 0.726,4.277 0.747,9.012 0.337,13.328 -1.521,16.032 -8.385,34.36 -20.265,45.572 -3.708,-6.826 -7.861,-11.957 -13.023,-17.692 6.693,-6.029 10.817,-12.595 13.804,-21.043 1.18,-2.103 3.604,-3.781 5.385,-5.383 5.431,-4.887 8.403,-10.645 10.541,-17.543 z"
         id="path3" /><path
         fill="#c6a37d"
         d="m 330.096,721.886 c 0.641,-1.314 2.347,-2.804 3.327,-3.935 l 6.262,-7.709 11.796,-16.65 c 34.326,17.012 73.548,23.343 111.498,25.426 -7.765,23.218 -14.985,49.085 -14.983,73.707 -8.184,-3.111 -17.327,-3.646 -26.017,-3.779 -13.987,-0.212 -27.626,1.009 -41.509,2.521 -8.721,0.949 -18.435,1.782 -26.852,4.222 -5.01,-11.552 -9.835,-23.126 -13.692,-35.125 -4.115,-12.801 -7.048,-25.554 -9.83,-38.678 z"
         id="path4" /><path
         fill="#ffffff"
         d="m 683.483,802.444 c 4.432,-2.572 9.523,-4.325 14.355,-6.036 15.715,-5.562 32.188,-8.364 48.83,-8.544 0.117,12.62 1.617,25.332 3.155,37.855 0.718,5.844 1.139,12.001 2.561,17.708 15.865,6.597 35.095,10.192 42.393,27.718 l 0.449,1.189 c 0.946,4.068 1.347,7.89 -0.043,11.916 l -0.211,0.632 c -1.661,4.781 -5.352,8.954 -9.972,11.077 -7.89,3.625 -19.256,2.311 -27.807,1.999 l -26.586,0.088 c -7.796,-0.041 -16.22,0.377 -23.735,-2 -15.752,-4.983 -23.505,-18.645 -30.63,-32.432 -5.166,-13.414 -9.681,-27.342 -12.067,-41.544 4.42,-8.171 11.806,-14.371 19.308,-19.626 z"
         id="path5" /><path
         fill="#ffffff"
         d="m 353.618,795.689 c 8.417,-2.44 18.131,-3.273 26.852,-4.222 13.883,-1.512 27.522,-2.733 41.509,-2.521 8.69,0.133 17.833,0.668 26.017,3.779 0.713,6.553 1.551,13.094 3.038,19.525 2.254,9.746 11.987,35.903 19.258,41.764 2.639,2.127 6.539,3.003 9.806,3.617 5.971,2.075 10.935,4.504 15.111,9.378 4.146,4.838 5.447,10.857 4.7,17.083 -0.48,3.998 -2.911,8.045 -6.061,10.509 -2.463,1.926 -5.193,3.123 -8.273,3.607 -3.645,0.574 -7.487,0.361 -11.17,0.38 l -18.885,0.052 -17.942,-0.024 c -3.268,-0.023 -6.783,0.196 -10.005,-0.305 -6.199,-0.965 -11.682,-5.457 -16.174,-9.561 -9.979,-9.116 -17.899,-20.053 -25.737,-31.005 z"
         id="path6" /><path
         fill="#ffffff"
         d="m 534.022,784.102 105.308,27.229 c -2.449,10.757 -4.056,21.812 -5.283,32.774 -0.469,4.189 -1.812,11.132 0.455,14.934 0.853,1.43 2.377,2.62 3.919,3.199 l 11.268,4.297 c 8.712,3.769 16.895,9.142 20.352,18.388 2.075,5.551 2.084,11.691 -0.43,17.08 -2.179,4.672 -6.634,8.87 -11.608,10.383 -4.307,1.31 -8.837,1.112 -13.285,1.13 l -17.77,0.063 c -12.373,0.113 -25.891,1.32 -38.093,-0.308 -4.696,-0.627 -9.218,-2.382 -13.334,-4.68 -18.102,-10.104 -23.133,-32.332 -28.266,-50.758 z"
         id="path7" /><path
         fill="#ffffff"
         d="m 132.453,770.722 c 8.367,4.134 17.639,7.612 26.788,9.499 3.267,0.673 7.496,0.546 10.759,-0.106 l 0.83,-0.158 c 4.757,-0.939 9.204,-2.772 13.675,-4.602 10.618,8.74 20.484,17.199 32.35,24.275 3.531,2.106 7.184,4.426 11.033,5.905 -6.682,4.914 -13.376,9.797 -17.779,16.986 l -0.449,0.708 c -3.345,5.332 -5.153,12.759 -3.94,19.004 l 0.655,2.267 0.212,0.674 c 2.869,8.926 8.984,14.603 17.163,18.669 2.423,1.204 5.991,2.608 8.704,2.615 4.11,1.261 8.118,2.407 11.472,5.247 4.578,3.878 8.188,9.71 8.542,15.775 0.307,5.247 -0.953,10.447 -4.474,14.479 -7.491,8.58 -25.329,8.039 -35.882,8.523 l -27.052,-0.079 c -10.481,-0.379 -23.408,-0.4 -32.704,-5.743 l -0.656,-0.371 c -10.105,-5.889 -16.69,-19.65 -20.737,-30.128 l -3.258,-10.632 c -6.831,-24.143 -6.727,-48.2 -1.624,-72.584 1.381,-6.596 3.078,-14.297 6.372,-20.223 z"
         id="path8" /><path
         fill="#ffffff"
         d="m 134.814,531.251 c -20.956,-15.984 -36.9003,-38.628 -42.7012,-64.562 -0.825,-3.689 -1.4922,-7.57 -1.885,-11.327 -0.2484,-2.376 0.0342,-6.51 -0.7128,-8.618 -0.3933,-1.11 -3.1108,-3.447 -3.9783,-4.494 -1.5807,-1.908 -3.0059,-4.101 -4.2867,-6.221 -6.1997,-10.262 -8.058,-23.55 -5.022,-35.162 2.1104,-8.071 5.8704,-15.348 11.9143,-21.226 0.9947,-0.968 4.1907,-3.231 4.6783,-4.311 0.9375,-2.075 0.5335,-6.374 0.7319,-8.719 0.9864,-11.66 4.8756,-21.937 11.5685,-31.517 2.646,-3.788 6.008,-7.516 9.677,-10.339 4.232,-3.254 8.323,-6.087 13.226,-8.26 2.66,-1.179 5.615,-1.818 8.05,-3.454 1.319,-0.887 2.485,-2.747 3.433,-4.041 4.473,-6.103 10.705,-11.685 16.914,-15.99 24.84,-17.225 53.283,-21.514 82.695,-16.164 15.944,2.9 30.349,9.508 42.769,19.925 4.219,3.538 8.383,7.485 11.487,12.064 4.828,7.122 8.447,15.203 9.029,23.915 l 0.082,6.815 c -0.498,4.45 -0.99,8.453 -2.805,12.595 l -0.357,0.831 c -5.233,11.984 -16.484,21 -28.491,25.682 -8.894,3.469 -17.966,3.951 -27.067,6.38 -12.523,3.343 -20.365,10.798 -25.473,22.499 -1.243,2.848 -1.854,5.561 -2.504,8.58 -1.132,5.264 -0.605,12.134 0.542,17.368 l 3.556,11.975 c 11.239,5.658 17.459,12.312 23.58,23.375 -18.248,10.32 -32.384,24.734 -43.341,42.569 -2.143,3.487 -4.88,7.44 -6.132,11.336 -5.586,9.962 -8.606,21.602 -11.178,32.635 -17.418,-4.597 -33.155,-14.245 -47.999,-24.139 z"
         id="path9" /><path
         fill="#ebd4a2"
         d="m 165.304,505.065 -8.24,-7.622 c -17.39,-18.154 -25.254,-45.506 -24.499,-70.193 0.757,-24.712 10.337,-49.365 28.497,-66.493 13.246,-12.493 29.802,-21.218 47.789,-24.379 15.55,-2.732 30.983,-1.499 46.597,-0.209 l 26.802,1.845 20.233,1.551 c -0.498,4.45 -0.99,8.453 -2.805,12.595 l -0.357,0.831 c -5.233,11.984 -16.484,21 -28.491,25.682 -8.894,3.469 -17.966,3.951 -27.067,6.38 -12.523,3.343 -20.365,10.798 -25.473,22.499 -1.243,2.848 -1.854,5.561 -2.504,8.58 -1.132,5.264 -0.605,12.134 0.542,17.368 l 3.556,11.975 c 11.239,5.658 17.459,12.312 23.58,23.375 -18.248,10.32 -32.384,24.734 -43.341,42.569 -2.143,3.487 -4.88,7.44 -6.132,11.336 l -14.953,-10.129 c -4.815,-1.2 -9.639,-4.832 -13.734,-7.561 z"
         id="path10" /><path
         fill="#c6a37d"
         d="m 179.038,512.626 c -1.316,-2.248 -3.021,-4.154 -4.345,-6.4 -3.868,-6.566 -5.375,-13.398 -4.735,-20.976 0.901,-10.662 7.938,-21.853 16.023,-28.661 10.463,-8.81 20.46,-11.523 33.903,-11.114 11.239,5.658 17.459,12.312 23.58,23.375 -18.248,10.32 -32.384,24.734 -43.341,42.569 -2.143,3.487 -4.88,7.44 -6.132,11.336 z"
         id="path11" /><path
         fill="#ebd4a2"
         d="m 577.187,445.49 c -1.962,4.348 -2.997,7.247 -7.749,9.075 -4.165,1.602 -8.75,2.452 -13.188,2.791 -0.429,-0.304 -0.765,-0.524 -1.097,-0.937 l -19.628,19.29 c -1.98,1.918 -5.055,5.575 -7.539,6.662 -5.50016,2.98509 -9.42407,4.97359 -13.102,7.395 l -30.6,33.182 -60.754,61.985 -30.33,28.915 -6.847,6.499 c -0.877,0.833 -2.28,1.829 -2.905,2.797 l -10.592,9.881 c -1.514,13.571 -4.603,28.043 -10.369,40.475 -3.209,6.921 -7.313,13.425 -11.006,20.092 l -11.796,16.65 -6.262,7.709 c -0.98,1.131 -2.686,2.621 -3.327,3.935 l -15.836,18.576 c -19.006,20.345 -41.809,39.811 -65.646,54.241 -6.712,4.063 -13.875,7.071 -20.726,10.832 -3.849,-1.479 -7.502,-3.799 -11.033,-5.905 -11.866,-7.076 -21.732,-15.535 -32.35,-24.275 -4.471,1.83 -8.918,3.663 -13.675,4.602 l -0.83,0.158 c -3.263,0.652 -7.492,0.779 -10.759,0.106 -9.149,-1.887 -18.421,-5.365 -26.788,-9.499 6.32704,-9.50663 7.21948,-12.04942 15.466,-25.265 2.265,-2.308 3.86,-7.316 5.302,-10.288 l 9.157,-18.263 c 4.506,-9.417 9.152,-18.803 12.575,-28.689 6.716,-19.4 9.698,-39.918 8.067,-60.415 l -2.896,-27.035 c -1.194,-15.515 -0.126,-30.101 2.689,-45.377 2.572,-11.033 5.592,-22.673 11.178,-32.635 1.252,-3.896 3.989,-7.849 6.132,-11.336 10.957,-17.835 25.093,-32.249 43.341,-42.569 13.439,-6.208 27.649,-7.84 42.296,-7.905 11.892,-0.054 23.748,0.54 35.521,2.305 22.03,3.303 43.719,9.574 65.701,13.39 27.884,4.84 56.448,8.811 84.744,10.107 l 18.604,0.516 c 2.401,0.052 5.77,0.542 8.017,-0.195 l 7.46731,-4.03236 c 3.90347,-3.69189 11.50811,-5.51954 24.30646,-13.85081 C 557.44406,455.74932 558.7529,453.14021 577.187,445.49 Z"
         id="path12" /><path
         fill="#ebd4a2"
         d="m 184.505,775.355 26.549,-15.764 60.917,-42.841 31.537,-24.292 46.655,-39.585 c 7.403,-6.423 14.442,-13.41 22.164,-19.44 l 0.529,-0.408 c -1.514,13.571 -4.603,28.043 -10.369,40.475 -3.209,6.921 -7.313,13.425 -11.006,20.092 l -11.796,16.65 -6.262,7.709 c -0.98,1.131 -2.686,2.621 -3.327,3.935 l -15.836,18.576 c -19.006,20.345 -41.809,39.811 -65.646,54.241 -6.712,4.063 -13.875,7.071 -20.726,10.832 -3.849,-1.479 -7.502,-3.799 -11.033,-5.905 -11.866,-7.076 -21.732,-15.535 -32.35,-24.275 z"
         id="path16" /><path
         fill="#ebd4a2"
         d="m 577.187,445.49 c 2.079,1.907 3.373,4.703 5.155,6.927 1.968,2.455 4.419,4.563 6.656,6.772 24.825,20.97 52.901,36.308 83.412,47.347 32.315,11.692 65.366,17.828 99.8,14.875 13.733,-1.178 28.036,-3.446 41.277,-7.322 -0.356,45.976 -9.647,97.014 -34.974,136.191 l -13.072,18.252 -5.211,6.428 c -0.406,0.496 -1.441,1.467 -1.565,2.065 l -11.997,110.839 c -16.642,0.18 -33.115,2.982 -48.83,8.544 -4.832,1.711 -9.923,3.464 -14.355,6.036 -7.502,5.255 -14.888,11.455 -19.308,19.626 l -11.621,-64.684 c -1.619,3.326 -2.203,7.309 -3.106,10.898 l -7.192,32.089 c -0.741,3.347 -1.268,8.017 -2.926,10.958 l -105.308,-27.229 -7.465,-64.624 -63.578,-0.46 c -37.95,-2.083 -77.172,-8.414 -111.498,-25.426 3.693,-6.667 7.797,-13.171 11.006,-20.092 5.766,-12.432 8.855,-26.904 10.369,-40.475 l 10.592,-9.881 c 0.625,-0.968 2.028,-1.964 2.905,-2.797 l 6.847,-6.499 30.33,-28.915 60.754,-61.985 30.6,-33.182 c 6.27395,-4.41401 9.35327,-5.94992 13.102,-7.395 2.484,-1.087 5.559,-4.744 7.539,-6.662 l 19.628,-19.29 c 0.332,0.413 0.668,0.633 1.097,0.937 4.438,-0.339 9.023,-1.189 13.188,-2.791 4.752,-1.828 5.787,-4.727 7.749,-9.075 z"
         id="path17" /><path
         fill="#ffffff"
         d="m 383.448,623.144 c 3.794,5.278 7.117,10.826 11.369,15.776 17.491,20.362 42.009,32.171 68.164,36.492 10.648,1.758 22.586,1.971 33.269,0.309 l 25.177,-5.615 5.13,49.372 -63.578,-0.46 c -37.95,-2.083 -77.172,-8.414 -111.498,-25.426 3.693,-6.667 7.797,-13.171 11.006,-20.092 5.766,-12.432 8.855,-26.904 10.369,-40.475 z"
         id="path18" /><path
         fill="#ffffff"
         d="m 588.998,459.189 c 24.825,20.97 52.901,36.308 83.412,47.347 32.315,11.692 65.366,17.828 99.8,14.875 13.733,-1.178 28.036,-3.446 41.277,-7.322 -0.356,45.976 -9.647,97.014 -34.974,136.191 l -13.072,18.252 -5.211,6.428 c -0.406,0.496 -1.441,1.467 -1.565,2.065 -10.954,10.124 -22.302,20.386 -34.901,28.452 -14.025,8.979 -29.512,15.076 -45.249,20.229 l -19.453,5.658 c -0.125,-2.193 0.624,-4.526 1.131,-6.659 L 663.125,713 676.31,661.79 c 1.787,-7.69 3.986,-15.547 4.617,-23.446 0.507,-6.341 -0.016,-12.941 -0.85,-19.231 -2.265,-17.099 -9.507,-33.272 -17.051,-48.613 -12.794,-26.014 -28.387,-50.563 -45.423,-74.004 l -22.282,-28.511 c -1.642,-2.061 -4.991,-5.023 -6.066,-7.235 -0.23,-0.474 -0.171,-1.04 -0.257,-1.561 z"
         id="path19" /><path
         fill="#ebd4a2"
         d="m 780.567,143.123 c 10.268,-16.134 22.963,-30.589 37.445,-43.062 6.509,-5.6062 14.978,-12.4674 23.562,-14.3607 2.854,-0.6297 5.06,-0.2916 7.432,1.4207 5.057,3.6512 8.65,10.604 11.359,16.057 11.085,22.312 17.299,48.288 20.541,72.902 l 2.664,27.267 c 8.566,12.686 15.264,25.178 18.974,40.138 0.568,2.29 1.43345,4.1304 1.83038,7.41 1.50939,8.64135 1.7488,15.59926 1.95662,21.557 -0.243,6.277 -0.417,13.466 -1.842,19.578 l -0.855,6.077 -2.642,12.666 c -0.828,3.57 -1.88,8.246 -4.376,11.046 l 9.887,4.457 0.782,1.17 c 4.463,0.58 12.097,1.056 16.072,3.226 4.829,1.707 11.834,4.172 14.263,9.07 1.327,2.678 1.168,7.269 0.373,10.107 l -0.677,2.64 c -2.138,6.898 -5.11,12.656 -10.541,17.543 -1.781,1.602 -4.205,3.28 -5.385,5.383 -2.987,8.448 -7.111,15.014 -13.804,21.043 5.162,5.735 9.315,10.866 13.023,17.692 2.141,6.05 3.635,11.341 0.847,17.532 -1.849,4.104 -5.574,7.887 -9.831,9.412 -4.53,1.622 -8.687,0.885 -12.936,-1.22 -1.398,2.368 -3.491,4.061 -5.511,5.876 -8.715,7.835 -17.956,11.951 -28.245,17.048 -0.962,2.224 -2.465,2.944 -4.433,4.152 -9.633,5.915 -19.693,10.342 -30.5,13.613 -5.003,1.515 -10.254,3.08 -15.485,3.523 l -1.028,30.003 c -13.241,3.876 -27.544,6.144 -41.277,7.322 -34.434,2.953 -67.485,-3.183 -99.8,-14.875 -30.511,-11.039 -58.587,-26.377 -83.412,-47.347 -2.237,-2.209 -4.688,-4.317 -6.656,-6.772 -1.782,-2.224 -3.076,-5.02 -5.155,-6.927 -1.221,-2.861 -0.571,-6.738 -0.836,-9.845 L 579.425,423 c 0.771,-2.628 2.519,-5.389 2.442,-8.093 l -0.024,-0.022 6.505,-6.464 c -0.13,-1.822 -2.72,-4.873 -3.747,-6.567 l -5.647,-10.333 c -3.239,-6.103 -6.395,-12.456 -8.83,-18.923 -2.04,-5.416 -3.241,-11.924 -6.254,-16.854 l -13.022,-21.532 c 8.839,-3.639 16.379,-7.161 23.331,-13.856 l -21.798,-28.151 28.452,-14.197 c -0.251,-1.531 -2.326,-3.943 -3.258,-5.264 l -14.04,-18.208 c 8.548,-3.813 16.994,-5.962 26.143,-7.725 l 5.545,-23.83 c 4.216,-17.084 9.251,-33.882 15.674,-50.278 8.93,-22.8 21.295,-43.247 37.871,-61.314 7.898,-8.609 17.258,-17.1614 28.085,-21.842 3.1,-1.3402 6.982,-2.6055 10.269,-1.149 4.682,2.0745 8.531,6.9505 11.591,10.9103 11.537,14.9297 19.31,31.8507 26.027,49.3777 17.229,-8.175 37.406,-6.846 55.827,-5.563 z"
         id="path20" /><path
         fill="#d08e17"
         d="m 869.636,315.833 c 1.392,-3.897 2.509,-8.467 4.495,-12.083 3.306,-6.021 9.823,-10.951 16.354,-12.902 4.572,-1.366 9.804,-1.081 14.004,1.182 l -0.855,6.077 c -5.344,-2.456 -10.798,-2.941 -16.372,-0.853 -2.075,0.777 -5.28,2.34 -6.427,4.326 l -0.216,0.517 -0.328,0.436 c -2.018,2.645 -2.686,3.524 -3.261,6.865 -0.797,0.615 -0.687,1.834 -0.808,2.811 -0.204,1.648 -0.127,3.333 -0.084,4.989 -1.867,-0.776 -4.487,-0.967 -6.502,-1.365 z"
         id="path21" /><path
         fill="#19192e"
         d="m 880.619,302.097 0.216,-0.517 c 1.147,-1.986 4.352,-3.549 6.427,-4.326 5.574,-2.088 11.028,-1.603 16.372,0.853 l -2.642,12.666 c -0.828,3.57 -1.88,8.246 -4.376,11.046 -3.676,-1.418 -7.783,-2.205 -11.6,-3.198 -3.042,-0.804 -5.752,-1.209 -8.878,-1.423 -0.043,-1.656 -0.12,-3.341 0.084,-4.989 0.121,-0.977 0.011,-2.196 0.808,-2.811 0.575,-3.341 1.243,-4.22 3.261,-6.865 z"
         id="path22" /><path
         fill="#ffffff"
         d="m 880.619,302.097 c 3.481,-0.713 6.326,-1.099 9.399,0.982 1.635,1.107 2.495,2.534 2.788,4.486 0.266,1.781 -0.15,4.305 -1.266,5.773 -1.483,1.954 -3.293,2.668 -5.574,3.343 l -0.95,1.94 c -3.042,-0.804 -5.752,-1.209 -8.878,-1.423 -0.043,-1.656 -0.12,-3.341 0.084,-4.989 0.121,-0.977 0.011,-2.196 0.808,-2.811 0.575,-3.341 1.243,-4.22 3.261,-6.865 z"
         id="path23" /><path
         fill="#43414a"
         d="m 876.138,317.198 c -0.043,-1.656 -0.12,-3.341 0.084,-4.989 0.121,-0.977 0.011,-2.196 0.808,-2.811 1.128,2.622 2.046,5.23 4.865,6.422 0.997,0.422 2.02,0.505 3.072,0.679 l 0.999,0.182 -0.95,1.94 c -3.042,-0.804 -5.752,-1.209 -8.878,-1.423 z"
         id="path24" /><path
         fill="#ffffff"
         d="m 906.331,272.452 c -2.28,1.697 -4.332,2.935 -7.089,3.729 -7.356,2.117 -16.41,2.043 -23.242,-1.699 -3.818,-2.09 -7.126,-5.186 -8.237,-9.525 -0.687,-2.684 -0.559,-5.453 0.906,-7.846 2.536,-4.143 7.347,-6.994 12.006,-8.067 l 0.825,-0.183 c 7.715,-1.777 15.269,-1.085 22.513,2.034 3.702,3.446 6.746,5.888 6.94,11.355 0.061,1.705 -0.482,3.651 -1.3,5.134 -0.351,0.636 -3.33,5.029 -3.322,5.068 z"
         id="path25"
         style="display:none" /><path
         fill="#ffffff"
         d="m 764.223,248.673 c 7.591,-0.371 15.644,0.308 22.339,4.26 3,1.771 5.472,4.689 6.179,8.162 0.582,2.855 0.147,6.438 -1.496,8.889 -3.853,5.748 -11.428,7.607 -17.798,8.874 -7.975,0.964 -17.466,0.375 -24.282,-4.362 -3.025,-2.101 -5.129,-5.162 -5.704,-8.841 -0.496,-3.181 0.114,-6.024 2.066,-8.617 4.115,-5.467 12.254,-7.552 18.696,-8.365 z"
         id="path26"
         style="display:none" /><path
         fill="#ffffff"
         d="m 823.659,156.575 c 7.3,-11.836 14.733,-27.358 27.64,-33.806 1.785,1.557 3.646,3.087 4.789,5.202 2.037,3.767 2.813,8.393 3.821,12.524 3.64,14.927 5.696,30.067 7.24,45.335 l -13.647,-11.58 c -8.879,-6.886 -19.435,-13.364 -29.843,-17.675 z"
         id="path27" /><path
         fill="#d08e17"
         d="m 785.649,291.18 c 5.891,-0.55 12.298,1.867 17.049,5.206 6.229,4.378 10.481,10.67 11.65,18.272 1.025,6.675 -1.348,14.13 -5.345,19.437 -5.929,7.872 -13.419,10.868 -22.875,12.221 -5.521,0.691 -13.395,-1.623 -18.016,-4.74 -4.902,-3.307 -9.877,-10.181 -10.638,-16.089 -1.091,-8.467 2.82,-17.161 7.92,-23.719 5.05,-6.493 12.305,-9.615 20.255,-10.588 z"
         id="path28" /><path
         fill="#19192e"
         d="m 782.112,296.625 c 4.877,-0.252 9.668,0.78 13.831,3.392 5.026,3.154 8.393,7.661 9.639,13.485 1.21,5.657 0.168,11.813 -3.126,16.584 -3.533,5.117 -8.838,7.335 -14.766,8.387 -5.025,0.121 -9.256,-0.317 -13.69,-2.986 -4.908,-2.955 -8.677,-7.746 -9.985,-13.369 -1.228,-5.285 -0.196,-12.085 2.762,-16.673 3.357,-5.209 9.54,-7.617 15.335,-8.82 z"
         id="path29" /><path
         fill="#ffffff"
         d="m 771.051,304.25 c 1.625,-0.342 3.617,-0.096 5.199,0.384 1.999,0.606 3.498,2.217 4.404,4.04 0.883,1.775 1.269,4.425 0.539,6.306 -0.938,2.42 -3.11,3.607 -5.297,4.721 -1.535,0.182 -3.336,0.518 -4.848,0.103 -2.053,-0.565 -3.621,-2.007 -4.507,-3.92 -1.049,-2.266 -1.23,-5.134 -0.296,-7.474 0.874,-2.188 2.715,-3.339 4.806,-4.16 z"
         id="path30" /><path
         fill="#ffffff"
         d="m 631.766,235.136 1.222,-5.435 c 7.771,-31.543 20.352,-64.192 40.25,-90.142 3.325,-4.336 7.796,-10.191 12.573,-12.941 l 0.674,-0.368 c 1.225,-0.68 2.492,-1.456 3.889,-1.715 1.418,-0.262 2.98,0.014 4.163,0.852 4.426,3.135 7.362,9.916 9.538,14.741 6.114,13.552 10.11,26.683 13.521,41.128 -33.005,5.482 -64.058,24.919 -83.609,52.244 l -1.245,1.916 -0.601,-0.189 z"
         id="path31" /><path
         fill="#c6a37d"
         d="m 588.348,408.421 c 19.196,27.575 49.531,46.155 80.152,58.623 18.129,7.381 36.471,12.943 55.75,16.443 29.267,5.313 61.015,7.117 90.265,0.599 l -1.028,30.003 c -13.241,3.876 -27.544,6.144 -41.277,7.322 -34.434,2.953 -67.485,-3.183 -99.8,-14.875 -30.511,-11.039 -58.587,-26.377 -83.412,-47.347 -2.237,-2.209 -4.688,-4.317 -6.656,-6.772 -1.782,-2.224 -3.076,-5.02 -5.155,-6.927 -1.221,-2.861 -0.571,-6.738 -0.836,-9.845 L 579.425,423 c 0.771,-2.628 2.519,-5.389 2.442,-8.093 l -0.024,-0.022 z"
         id="path32" /><path
         fill="#ffffff"
         d="m 864.933,462.798 c -26.874,8.393 -54.005,8.777 -81.604,4.458 -13.533,-2.117 -26.667,-5.098 -39.579,-9.744 -29.812,-10.726 -55.889,-26.657 -79.25,-48.024 -16.646,-15.225 -30.891,-32.742 -40.513,-53.24 6.832,0.664 13.569,2.404 20.431,3.081 22.939,2.262 43.723,-4.939 63.953,-14.844 7.794,6.001 18.174,11.526 27.456,14.756 20.015,6.966 40.327,3.013 58.971,-5.988 11.36,-5.484 23.488,-15.816 27.595,-28.071 1.046,-3.121 1.678,-5.548 1.62,-8.882 l -0.019,-0.845 c 15.518,-1.572 30.14,-1.901 45.642,0.378 2.015,0.398 4.635,0.589 6.502,1.365 3.126,0.214 5.836,0.619 8.878,1.423 3.817,0.993 7.924,1.78 11.6,3.198 l 9.887,4.457 0.782,1.17 c 4.463,0.58 12.097,1.056 16.072,3.226 4.829,1.707 11.834,4.172 14.263,9.07 1.327,2.678 1.168,7.269 0.373,10.107 l -0.677,2.64 c -2.138,6.898 -5.11,12.656 -10.541,17.543 -1.781,1.602 -4.205,3.28 -5.385,5.383 -2.987,8.448 -7.111,15.014 -13.804,21.043 5.162,5.735 9.315,10.866 13.023,17.692 2.141,6.05 3.635,11.341 0.847,17.532 -1.849,4.104 -5.574,7.887 -9.831,9.412 -4.53,1.622 -8.687,0.885 -12.936,-1.22 -1.398,2.368 -3.491,4.061 -5.511,5.876 -8.715,7.835 -17.956,11.951 -28.245,17.048 z"
         id="path33"
         style="display:inline" /><path
         fill="#43414a"
         d="m 889.095,429.976 -0.499,0.197 -0.785,0.294 c -1.489,0.58 -2.699,1.149 -4.311,0.557 -7.964,-2.924 -11.226,-14.064 -14.387,-21.234 -4.546,0.052 -9.835,0.158 -14.233,-0.999 -6.797,-1.788 -15.007,-4.406 -20.561,-8.838 -0.981,-0.784 -2.588,-2.405 -2.745,-3.688 -0.246,-2.022 -0.089,-3.202 1.269,-4.813 1.245,-1.476 3.048,-2.079 4.907,-1.433 2.716,0.945 5.433,3.698 8.027,5.126 9.024,4.967 19.978,5.784 30.003,4.898 2.38,11.331 7.757,20.013 13.315,29.933 z"
         id="path34" /><path
         fill="#c6a37d"
         d="m 875.78,400.043 c 8.521,-0.925 16.434,-4.091 23.764,-8.486 l 8.042,4.901 c 5.162,5.735 9.315,10.866 13.023,17.692 2.141,6.05 3.635,11.341 0.847,17.532 -1.849,4.104 -5.574,7.887 -9.831,9.412 -4.53,1.622 -8.687,0.885 -12.936,-1.22 -3.734,-2.467 -7.504,-5.911 -9.594,-9.898 -5.558,-9.92 -10.935,-18.602 -13.315,-29.933 z"
         id="path35"
         style="display:inline" /><path
         fill="#43414a"
         d="m 907.285,327.446 c 4.463,0.58 12.097,1.056 16.072,3.226 4.829,1.707 11.834,4.172 14.263,9.07 1.327,2.678 1.168,7.269 0.373,10.107 l -0.677,2.64 c -2.138,6.898 -5.11,12.656 -10.541,17.543 -1.781,1.602 -4.205,3.28 -5.385,5.383 -2.987,8.448 -7.111,15.014 -13.804,21.043 l -8.042,-4.901 c 5.842,-4.231 9.632,-9.725 13.066,-15.975 -0.98,-1.437 -5.305,-2.209 -7.128,-3.037 -2.516,-1.143 -4.941,-2.559 -7.232,-4.099 -6.396,-4.3 -14.037,-12.122 -15.415,-20.066 -0.699,-4.029 0.243,-8.606 2.655,-11.934 4.833,-6.669 14.279,-8.011 21.795,-9 z"
         id="path36" /><path
         fill="#19192e"
         d="m 937.316,352.489 c -2.667,0.915 -4.869,3.019 -7.566,3.844 -1.497,0.458 -3.247,0.052 -4.5,-0.876 -2.334,-1.729 -1.559,-13.695 -1.769,-16.846 -0.159,-2.371 -0.588,-4.762 -0.947,-7.111 l 0.823,-0.828 c 4.829,1.707 11.834,4.172 14.263,9.07 1.327,2.678 1.168,7.269 0.373,10.107 z"
         id="path37" /></g></g><g
     id="layer4"
     style="display:none"
     transform="translate(-1021,-439.99999)"><path
       fill="#ebd4a2"
       d="m 1332.1516,582.29413 c -1.962,4.348 -2.997,7.247 -7.749,9.075 -4.165,1.602 -8.75,2.452 -13.188,2.791 -0.429,-0.304 -0.765,-0.524 -1.097,-0.937 l -19.628,19.29 c -1.98,1.918 -5.055,5.575 -7.539,6.662 -5.5002,2.98509 -9.4241,4.97359 -13.102,7.395 l -30.6,33.182 -60.754,61.985 -30.33,28.915 -6.847,6.499 c -0.877,0.833 -2.28,1.829 -2.905,2.797 l -10.592,9.881 c -1.514,13.571 -4.603,28.043 -10.369,40.475 -3.209,6.921 -7.313,13.425 -11.006,20.092 l -11.796,16.65 -6.262,7.709 c -0.98,1.131 -2.686,2.621 -3.327,3.935 l -15.836,18.576 c -19.006,20.345 -41.809,39.811 -65.646,54.241 -6.712,4.063 -13.875,7.071 -20.726,10.832 -3.849,-1.479 -7.502,-3.799 -11.033,-5.905 -11.866,-7.076 -21.732,-15.535 -32.35,-24.275 -4.471,1.83 -8.918,3.663 -13.675,4.602 l -0.83,0.158 c -3.263,0.652 -7.492,0.779 -10.759,0.106 -9.149,-1.887 -18.421,-5.365 -26.788,-9.499 6.32704,-9.50663 7.21948,-12.04942 15.466,-25.265 2.265,-2.308 3.86,-7.316 5.302,-10.288 l 9.157,-18.263 c 4.506,-9.417 9.152,-18.803 12.575,-28.689 6.716,-19.4 9.698,-39.918 8.067,-60.415 l -2.896,-27.035 c -1.194,-15.515 -0.126,-30.101 2.689,-45.377 2.572,-11.033 5.592,-22.673 11.178,-32.635 1.252,-3.896 3.989,-7.849 6.132,-11.336 10.957,-17.835 25.093,-32.249 43.341,-42.569 13.439,-6.208 27.649,-7.84 42.296,-7.905 11.892,-0.054 23.748,0.54 35.521,2.305 22.03,3.303 43.719,9.574 65.701,13.39 27.884,4.84 56.448,8.811 84.744,10.107 l 18.604,0.516 c 2.401,0.052 5.77,0.542 8.017,-0.195 l 7.4673,-4.03236 c 3.9035,-3.69189 11.5081,-5.51954 24.3065,-13.85081 27.3233,-13.43551 28.6321,-16.04462 47.0662,-23.69483 z"
       id="path12-62"
       style="display:inline"
       transform="translate(191.2368,28.511073)" /></g><g
     id="layer3"
     style="display:inline"
     transform="translate(-1025.6257,-322.04446)"><g
       id="g41"
       style="display:inline"
       transform="translate(4.6257071,-117.95553)"><path
         fill="#ffffff"
         d="m 889.7786,668.05513 c -20.956,-15.984 -36.9003,-38.628 -42.7012,-64.562 -0.825,-3.689 -1.4922,-7.57 -1.885,-11.327 -0.2484,-2.376 0.0342,-6.51 -0.7128,-8.618 -0.3933,-1.11 -3.1108,-3.447 -3.9783,-4.494 -1.5807,-1.908 -3.0059,-4.101 -4.2867,-6.221 -6.1997,-10.262 -8.058,-23.55 -5.022,-35.162 2.1104,-8.071 5.8704,-15.348 11.9143,-21.226 0.9947,-0.968 4.1907,-3.231 4.6783,-4.311 0.9375,-2.075 0.5335,-6.374 0.7319,-8.719 0.9864,-11.66 4.8756,-21.937 11.5685,-31.517 2.646,-3.788 6.008,-7.516 9.677,-10.339 4.232,-3.254 8.323,-6.087 13.226,-8.26 2.66,-1.179 5.615,-1.818 8.05,-3.454 1.319,-0.887 2.485,-2.747 3.433,-4.041 4.473,-6.103 10.705,-11.685 16.914,-15.99 24.84,-17.225 53.283,-21.514 82.695,-16.164 15.944,2.9 30.349,9.508 42.769,19.925 4.219,3.538 8.383,7.485 11.487,12.064 4.828,7.122 8.447,15.203 9.029,23.915 l 0.082,6.815 c -0.498,4.45 -0.99,8.453 -2.805,12.595 l -0.357,0.831 c -5.233,11.984 -16.484,21 -28.491,25.682 -8.894,3.469 -17.966,3.951 -27.067,6.38 -12.523,3.343 -20.365,10.798 -25.473,22.499 -1.243,2.848 -1.854,5.561 -2.504,8.58 -1.132,5.264 -0.605,12.134 0.542,17.368 l 3.556,11.975 c 11.239,5.658 17.459,12.312 23.58,23.375 -18.248,10.32 -32.384,24.734 -43.341,42.569 -2.143,3.487 -9.47933,8.98192 -6.132,11.336 14.49342,10.19282 22.3869,5.96987 24.48572,14.82672 -12.02397,15.11157 -20.77261,19.15469 -35.66372,17.80828 -17.94123,-1.6222 -33.155,-14.245 -47.999,-24.139 z"
         id="path9-2"
         transform="translate(191.2368,28.511073)"
         style="display:inline;fill:#fef7e1;fill-opacity:1" /><path
         fill="#ebd4a2"
         d="m 920.2686,641.86913 -8.24,-7.622 c -17.39,-18.154 -25.254,-45.506 -24.499,-70.193 0.757,-24.712 10.337,-49.365 28.497,-66.493 13.246,-12.493 29.802,-21.218 47.789,-24.379 15.55,-2.732 30.983,-1.499 46.597,-0.209 l 26.802,1.845 20.233,1.551 c -0.498,4.45 -0.99,8.453 -2.805,12.595 l -0.357,0.831 c -5.233,11.984 -16.484,21 -28.491,25.682 -8.894,3.469 -17.966,3.951 -27.067,6.38 -12.523,3.343 -20.365,10.798 -25.473,22.499 -1.243,2.848 -1.854,5.561 -2.504,8.58 -1.132,5.264 -0.605,12.134 0.542,17.368 l 3.556,11.975 c 11.239,5.658 17.459,12.312 23.58,23.375 -18.248,10.32 -32.384,24.734 -43.341,42.569 -2.143,3.487 -4.88,7.44 -6.132,11.336 l -14.953,-10.129 c -4.815,-1.2 -9.639,-4.832 -13.734,-7.561 z"
         id="path10-5"
         transform="translate(191.2368,28.511073)"
         style="display:inline" /><path
         fill="#c6a37d"
         d="m 934.0026,649.43013 c -1.316,-2.248 -3.021,-4.154 -4.345,-6.4 -3.868,-6.566 -5.375,-13.398 -4.735,-20.976 0.901,-10.662 7.938,-21.853 16.023,-28.661 10.463,-8.81 20.46,-11.523 33.903,-11.114 11.239,5.658 17.459,12.312 23.58,23.375 6.9792,30.80973 1.26794,53.38263 -24.94236,68.73595 -9.60467,-4.38353 -16.83912,-9.52763 -24.53064,-14.83095 z"
         id="path11-1"
         transform="translate(191.2368,28.511073)"
         style="display:inline" /></g><g
       id="g40"
       style="display:none"
       transform="translate(4.6257071,-117.95553)"><path
         style="display:inline;fill:#ebd4a2;fill-opacity:1;stroke-width:7.392"
         d="m 1523.4091,610.7837 c 0.2143,-0.005 1.6259,1.69881 3.5579,4.7514 1.113,1.75867 5.23,6.72649 9.7229,9.86656 10.7788,7.53318 32.8703,37.23088 32.8703,37.23088 l 42.4987,67.07275 c 0,0 6.0713,13.58801 5.7822,28.33245 -0.2892,14.74445 -2.3129,19.94837 -9.8297,30.35621 -7.5168,10.40784 -41.3422,30.93441 -58.1104,34.40369 -16.7682,3.46928 -40.7641,14.16623 -58.3996,16.18998 -17.6355,2.02374 -45.3897,4.91481 -60.1342,1.44553 -14.7444,-3.46928 -40.1858,-4.04749 -55.7976,-6.93856 -15.6117,-2.89107 -41.0531,-13.0098 -57.5322,-21.10479 -16.4791,-8.09499 -49.4372,-28.33245 -49.4372,-28.33245 0,0 -25.1523,-15.32266 -27.7543,-18.79194 -2.6019,-3.46928 -60.4233,0.28911 -60.4233,0.28911 0,0 -23.3535,-1.59435 -38.0979,-16.04968 -14.7444,-14.45533 -11.3393,-37.72417 -11.3393,-37.72417 0,0 7.8059,-27.75424 21.3939,-43.94421 13.588,-16.18998 22.0072,-27.21111 38.1971,-34.14967 16.19,-6.93856 36.6815,-9.50544 54.0279,-7.19259 17.3464,2.31285 40.4749,5.20392 55.2194,8.38409 14.7444,3.18018 42.4987,10.69695 67.9401,12.7207 25.4414,2.02375 52.7258,5.746 76.1434,4.87868 15.9732,-9.72121 79.5019,-41.69397 79.5019,-41.69397 z"
         id="path40" /><path
         style="display:inline;fill:#fef7e1;fill-opacity:1;stroke-width:7.392"
         d="m 1535.2288,624.47045 c 0,0 84.5576,51.0886 108.9082,55.35517 43.2973,7.58627 82.919,6.41248 93.0859,4.59376 12.2137,-2.18487 22.4417,-4.96128 22.4417,-4.96128 0,0 1.0557,108.21927 -54.2242,161.98692 -47.558,46.25707 -81.809,52.64425 -100.0309,55.36394 -20.3712,3.04048 -138.7712,5.78213 -202.6638,-8.09499 -63.8926,-13.87712 -93.3814,-21.3939 -119.6902,-34.6928 -23.9065,-12.08455 -73.4331,-43.0769 -98.8745,-75.16774 -25.4414,-32.09085 27.7543,-37.87298 27.7543,-37.87298 0,0 85.2075,57.0518 138.4821,77.7697 10.4078,4.04749 79.2152,21.97211 117.0882,16.76819 51.3611,-7.05723 102.922,-21.97211 131.2544,-48.56993 28.3325,-26.59781 8.095,-55.50848 8.095,-55.50848 0,0 -38.9288,-64.02314 -47.4135,-74.30042 -7.6974,-9.32369 -25.5136,-30.0671 -24.2127,-32.66906 z"
         id="path39" /></g><g
       id="g2"
       style="display:none"
       transform="translate(-3.9187269,5.6449018)"><path
         fill="#ffffff"
         d="m 1088.401,812.06777 c 8.367,4.134 17.639,7.612 26.788,9.499 3.267,0.673 7.496,0.546 10.759,-0.106 l 0.83,-0.158 c 4.757,-0.939 9.204,-2.772 13.675,-4.602 10.618,8.74 20.484,17.199 32.35,24.275 3.531,2.106 7.184,4.426 11.033,5.905 -6.682,4.914 -13.376,9.797 -17.779,16.98597 l -0.449,0.708 c -3.345,5.332 -5.153,12.759 -3.94,19.004 l 0.655,2.267 0.212,0.674 c 2.869,8.926 8.984,14.603 17.163,18.669 2.423,1.204 5.991,2.608 8.704,2.615 4.11,1.261 8.118,2.407 11.472,5.247 4.578,3.878 8.188,9.71 8.542,15.775 0.307,5.247 -0.953,10.447 -4.474,14.479 -7.491,8.58 -25.329,8.039 -35.882,8.523 l -27.052,-0.079 c -10.481,-0.379 -23.408,-0.4 -32.704,-5.743 l -0.656,-0.371 c -10.105,-5.889 -16.69,-19.65 -20.737,-30.128 l -3.258,-10.632 c -6.831,-24.143 -6.727,-48.19997 -1.624,-72.58397 1.381,-6.596 3.078,-14.297 6.372,-20.223 z"
         id="path8-3"
         style="fill:#fef7e1;fill-opacity:1" /><path
         fill="#ebd4a2"
         d="m 1328.5952,598.37997 c 2.6575,12.108 2.3391,29.05955 2.3391,29.05955 l 0.9794,12.31622 c -0.877,0.833 -0.3328,9.57647 -0.8993,14.10371 -0.5666,4.52724 -1.4534,13.72582 -2.2104,20.51132 -0.757,6.7855 -4.603,28.043 -10.369,40.475 -3.209,6.921 -7.313,13.425 -11.006,20.092 l -11.796,16.65 -6.262,7.709 c -0.98,1.131 -2.686,2.621 -3.327,3.935 l -15.836,18.576 c -19.006,20.345 -41.809,39.811 -65.646,54.241 -6.712,4.063 -13.875,7.071 -20.726,10.832 -3.849,-1.479 -7.502,-3.799 -11.033,-5.905 -11.866,-7.076 -21.732,-15.535 -32.35,-24.275 -4.471,1.83 -8.918,3.663 -13.675,4.602 l -0.83,0.158 c -3.263,0.652 -7.492,0.779 -10.759,0.106 -9.149,-1.887 -18.421,-5.365 -26.788,-9.499 6.3271,-9.50663 7.2195,-12.04942 15.466,-25.265 2.265,-2.308 3.86,-7.316 5.302,-10.288 l 9.157,-18.263 c 4.506,-9.417 9.152,-18.803 12.575,-28.689 6.716,-19.4 9.698,-39.918 8.067,-60.415 l -2.896,-27.035 c -1.194,-15.515 -0.126,-30.101 2.689,-45.377 2.572,-11.033 5.592,-22.673 11.178,-32.635 1.252,-3.896 3.989,-7.849 6.132,-11.336 10.957,-17.835 25.093,-32.249 43.341,-42.569 13.439,-6.208 27.649,-7.84 42.296,-7.905 11.892,-0.054 21.7243,-0.0382 35.521,2.305 10.4657,2.72479 19.892,10.21464 28.1526,21.14379 8.2607,10.92914 10.9947,20.24162 15.0618,33.6419 4.0672,13.40028 5.4942,26.89052 8.1518,38.99851 z"
         id="path12-6"
         style="display:inline" /></g></g></svg>
