<svg width="512" height="512" viewBox="0 0 512 512" fill="none" xmlns="http://www.w3.org/2000/svg">
<g clip-path="url(#clip0_183_1255)">
<path d="M129.039 281.226C200.305 281.226 258.077 227.01 258.077 160.132C258.077 93.2542 200.305 39.0389 129.039 39.0389C57.7726 39.0389 -1.52588e-05 93.2542 -1.52588e-05 160.132C-1.52588e-05 227.01 57.7726 281.226 129.039 281.226Z" fill="#E11F27"/>
<path d="M380.94 282.193C453.323 282.193 512 226.678 512 158.197C512 89.7164 453.323 34.2015 380.94 34.2015C308.558 34.2015 249.881 89.7164 249.881 158.197C249.881 226.678 308.558 282.193 380.94 282.193Z" fill="#E11F27"/>
<path d="M0.532318 178.768C13.341 302.032 252.918 477.798 252.918 477.798C252.918 477.798 505.213 269.618 507.587 180.137C353.912 180.771 168.885 178.959 0.532318 178.768Z" fill="#E11F27"/>
</g>
<defs>
<clipPath id="clip0_183_1255">
<rect width="512" height="512" fill="white"/>
</clipPath>
</defs>
</svg>
