<svg width="48" height="42" viewBox="0 0 48 42" fill="none" xmlns="http://www.w3.org/2000/svg">
<g clip-path="url(#clip0_119_396)">
<path d="M11.9173 22.872C18.4991 22.872 23.8346 17.8522 23.8346 11.6599C23.8346 5.46769 18.4991 0.447891 11.9173 0.447891C5.33556 0.447891 0 5.46769 0 11.6599C0 17.8522 5.33556 22.872 11.9173 22.872Z" fill="#E11F27"/>
<path d="M35.1816 22.9616C41.8664 22.9616 47.2855 17.8214 47.2855 11.4808C47.2855 5.14011 41.8664 -1.52588e-05 35.1816 -1.52588e-05C28.4968 -1.52588e-05 23.0776 5.14011 23.0776 11.4808C23.0776 17.8214 28.4968 22.9616 35.1816 22.9616Z" fill="#E11F27"/>
<path d="M0.0491943 13.3854C1.23213 24.7985 23.3582 41.0727 23.3582 41.0727C23.3582 41.0727 46.6587 21.7972 46.8779 13.5122C32.6854 13.5709 15.5973 13.4031 0.0491943 13.3854Z" fill="#E11F27"/>
</g>
<defs>
<clipPath id="clip0_119_396">
<rect width="47.2855" height="41.0727" fill="white"/>
</clipPath>
</defs>
</svg>
