<svg width="69" height="69" viewBox="0 0 69 69" fill="none" xmlns="http://www.w3.org/2000/svg">
<path d="M43.1274 43.291C43.309 43.519 43.4974 43.7397 43.5071 44.044L43.2809 44.1027L43.0611 43.5072L43.1274 43.291Z" fill="#493F3E"/>
<path d="M43.5071 44.0441C43.7119 43.9753 43.9259 43.8895 44.1378 43.847C45.1809 43.6377 46.4502 43.824 47.3984 44.291C48.5667 44.8664 49.5005 45.802 49.9235 47.049C50.3945 48.4374 50.3411 50.0049 49.678 51.3228C49.0792 52.513 47.9238 53.5133 46.6535 53.9276C45.7588 54.2194 44.8893 54.2739 43.9633 54.1026C43.9751 53.8614 44.1979 53.6641 44.3042 53.4529C44.5196 53.0249 44.6991 52.5668 44.8341 52.1067C44.9446 51.7302 44.978 51.3655 45.008 50.9755C45.1056 49.7057 44.8578 48.4229 44.2348 47.3028C43.8118 46.5423 43.3446 45.9672 42.7091 45.3762C42.5461 45.2247 42.3292 44.9995 42.1101 44.949C42.0164 44.9274 41.9983 44.8814 41.9362 44.8111L43.2809 44.1027L43.5071 44.0441Z" fill="#111723"/>
<path d="M39.3517 43.8366L39.3512 43.4399L41.4068 43.4932L41.4675 43.5668L41.5173 43.681C41.6656 43.803 41.8075 43.9214 42.0064 43.9348L42.4848 43.9731C42.7294 43.8655 42.8955 43.712 43.0611 43.5072L43.2809 44.1027L41.9362 44.8112C41.9983 44.8814 42.0164 44.9275 42.1101 44.949C42.3292 44.9996 42.5461 45.2247 42.7091 45.3762C43.3446 45.9672 43.8118 46.5423 44.2348 47.3028C44.8578 48.423 45.1056 49.7057 45.008 50.9755C44.978 51.3655 44.9446 51.7302 44.8341 52.1067C44.6991 52.5669 44.5196 53.0249 44.3042 53.4529C44.1979 53.6641 43.9751 53.8614 43.9633 54.1027C43.7358 54.2785 43.5544 54.5933 43.3536 54.8076C42.7424 55.4597 41.8937 56.0611 41.0744 56.4194C39.6213 57.0549 37.9621 57.1901 36.4272 56.7889C36.1064 56.705 35.7825 56.5719 35.4738 56.4503C34.0107 55.874 32.7317 54.5803 32.1088 53.1404C31.385 51.4669 31.3724 49.5241 32.0515 47.8317C32.7371 46.1225 34.2356 44.7468 35.9649 44.1388C36.3835 43.9916 36.8813 43.987 37.2744 43.8063L37.3241 43.7822C37.5979 43.6938 37.8975 43.7483 38.1809 43.7586C38.5594 43.7723 38.9538 43.7677 39.3275 43.8303L39.3517 43.8366Z" fill="#493F3E"/>
<path d="M39.3517 43.8366L39.3512 43.4399L41.4067 43.4932L41.4675 43.5668L41.5173 43.681C41.6656 43.803 41.8075 43.9214 42.0064 43.9348L42.4847 43.9731C42.7294 43.8655 42.8955 43.712 43.0611 43.5072L43.2809 44.1027L41.9362 44.8112C41.8397 44.7492 41.7225 44.7091 41.6208 44.6533C41.1609 44.4011 40.7264 44.19 40.2152 44.057C39.9317 43.9832 39.6222 43.9479 39.3517 43.8366Z" fill="#E11F27"/>
<path d="M37.9016 46.0366C38.8795 45.9942 39.9797 46.2 40.7722 46.8165C41.0521 47.0343 41.344 47.2706 41.5804 47.5354C41.7426 47.717 41.8649 47.9306 41.9964 48.1345C42.3732 48.719 42.6414 49.3125 42.7218 50.0106C42.8619 51.2278 42.567 52.2057 41.7937 53.1582C41.0044 54.1304 39.8917 54.7305 38.6522 54.8719C38.3621 54.907 38.0251 54.8904 37.7357 54.8585C36.549 54.7278 35.4836 54.1078 34.7465 53.1714C34.0436 52.2786 33.6636 51.204 33.8112 50.061C33.9364 49.0904 34.3142 48.229 34.9592 47.4904C35.7286 46.6092 36.7378 46.1191 37.9016 46.0366Z" fill="#E11F27"/>
<path d="M37.9518 46.6083C38.8669 46.5641 39.6253 46.7643 40.3924 47.2689C41.3498 47.8987 41.8517 48.733 42.0903 49.8464L42.1309 50.0679C42.2554 51.1665 41.9887 51.9946 41.2908 52.8443C40.6064 53.6774 39.6487 54.1484 38.5848 54.2573L38.5418 54.2658C37.6644 54.3709 36.6244 54.0797 35.9274 53.5431C35.0996 52.9062 34.526 52.0917 34.3983 51.0426C34.298 50.2185 34.4809 49.5308 34.8383 48.7933C34.9639 48.5342 35.0918 48.263 35.2741 48.0378C35.9545 47.1972 36.8831 46.7152 37.9518 46.6083Z" fill="#493F3E"/>
<path d="M19.779 41.0506C19.2471 41.0309 18.7659 40.7114 18.3093 40.4565C17.8455 40.1974 17.364 39.9383 16.9211 39.6451C16.0674 39.0799 15.2449 38.3519 14.5495 37.6028C14.3375 37.3745 14.1946 37.1252 14.0144 36.8753C13.7709 36.5376 13.5148 36.2089 13.3048 35.8477C13.1866 35.6442 13.1049 35.4243 13.0031 35.213C12.5205 34.212 12.1589 33.1391 12.0441 32.027C12.0003 31.6026 12.0196 31.1452 12.0381 30.7186C12.1092 29.0728 12.504 27.4534 13.2135 25.9648L14.0647 24.3664C14.2573 23.9877 14.5805 23.6293 14.8306 23.2834C15.4984 22.36 16.266 21.4867 17.1301 20.7407C17.5089 20.4136 17.9104 20.1307 18.3091 19.8304C19.138 19.2063 20.0071 18.6278 20.9229 18.1386C21.4379 17.8635 21.9698 17.6409 22.4994 17.3996C23.3736 17.0011 24.2599 16.6491 25.1759 16.3576C27.6514 15.5695 30.2086 15.1638 32.7992 15.0611L35.2581 15.0574C35.5905 15.0651 35.9259 15.0476 36.2576 15.0691C38.5379 15.2165 40.7593 15.6877 42.9253 16.4004C44.0053 16.7558 45.1009 17.1644 46.1114 17.6898L47.472 18.4239L48.1635 18.8764C48.352 18.9917 48.5532 19.0792 48.7379 19.2033C51.694 21.1898 54.4254 24.0167 55.4907 27.4922C55.8588 28.6931 56.045 30.0725 55.9097 31.3276C55.8111 32.2423 55.5397 33.0612 55.2049 33.9105C54.9983 34.4344 54.774 34.972 54.5082 35.4688C53.8492 36.7008 53.1147 37.9358 52.1375 38.9478C51.7884 39.3093 51.4203 39.602 51.0179 39.9005C50.6848 40.1478 50.3648 40.4095 50.0112 40.629C49.6684 40.8419 49.3009 41.0147 48.9344 41.1825C48.4849 41.3883 48.0436 41.5893 47.5689 41.7326C46.8977 41.9352 46.1333 42.132 45.4386 42.2277C44.6635 42.3345 43.902 42.3526 43.1216 42.3494C43.0661 41.5903 43.119 40.7944 43.1194 40.0318C43.1196 39.5883 43.0606 39.0888 43.1149 38.6536L43.1587 38.7183C44.0384 38.6475 44.9461 38.6141 45.8162 38.4647C46.605 38.3294 47.409 38.0543 48.1618 37.7886C48.6314 37.6229 49.096 37.4902 49.5385 37.2513C51.0732 36.4229 52.514 35.2217 53.0135 33.4795C53.1608 32.9655 53.1682 32.4454 53.1471 31.9163C53.0865 30.3935 52.6309 28.8723 51.8964 27.5398C51.6838 27.1541 51.4244 26.7936 51.1725 26.4333C50.9275 26.0827 50.6926 25.7222 50.4053 25.4035C50.032 24.9895 49.6151 24.606 49.2064 24.2269C46.7535 21.9512 43.8491 20.4166 40.6412 19.5003C40.0309 19.326 39.3953 19.2161 38.7739 19.0873C37.7901 18.8835 36.7742 18.6906 35.7739 18.5943C32.4478 18.274 29.0285 18.6916 25.8058 19.5165C24.7501 19.7867 23.7203 20.072 22.708 20.4817C21.7311 20.8769 20.7924 21.3768 19.878 21.8985C19.4077 22.1668 18.9666 22.4898 18.5303 22.8088C16.6735 24.1664 14.8278 25.9969 14.2065 28.2837C14.0076 29.0158 13.8584 29.7799 13.8822 30.5413C13.9105 31.45 14.2509 32.4564 14.7055 33.2387C15.8284 35.1715 17.8503 36.8213 19.9299 37.6159C20.2099 37.7229 20.4565 37.8373 20.7496 37.9141C20.6374 37.9945 20.4486 38.0971 20.3635 38.2012C20.187 38.4172 20.0536 39.3001 20.0043 39.6009L19.779 41.0506Z" fill="#E11F27"/>
<path d="M37.2643 38.8103L37.2678 42.2511L32.756 42.2787L30.6585 42.2776C30.4176 42.2805 30.0837 42.2357 29.8608 42.3232C29.8098 42.3432 29.837 42.3345 29.7617 42.342C29.9086 42.1677 30.0344 41.9725 30.1308 41.7658C30.2816 41.4427 30.3723 40.7497 30.2452 40.4069L30.2281 40.3624C30.019 39.7975 29.7323 39.3945 29.2893 38.9871C29.3784 38.8999 29.4394 38.867 29.5642 38.8514C29.9381 38.8046 30.3279 38.8151 30.7044 38.8154L32.4488 38.8278L35.5218 38.7991L37.2643 38.8103Z" fill="#E11F27"/>
<path d="M37.2643 38.8102C37.2598 38.5902 37.231 38.3235 37.3078 38.1144L37.3254 38.0713C37.3788 37.9369 37.4564 37.8074 37.5705 37.7149C37.8497 37.4891 38.665 37.576 38.9978 37.6345C39.138 37.6592 39.1502 37.6863 39.224 37.7979L39.2345 37.7927L39.2681 37.7715C39.4239 37.6872 39.5998 37.6717 39.7727 37.6573C40.2973 37.6135 41.0094 37.6091 41.5085 37.7713C41.6763 37.6169 41.8343 37.5699 42.0637 37.5814C42.1907 37.5878 42.3147 37.616 42.4419 37.6184C42.6258 37.6219 42.7655 37.6791 42.8921 37.8162C43.1145 38.0568 43.1285 38.3464 43.1148 38.6536C43.0606 39.0888 43.1196 39.5882 43.1194 40.0317C43.1189 40.7944 43.0661 41.5902 43.1216 42.3493C43.1361 42.662 43.164 42.9794 43.1274 43.2911L43.0611 43.5072C42.8955 43.712 42.7294 43.8654 42.4847 43.9731L42.0064 43.9348C41.8075 43.9214 41.6656 43.803 41.5173 43.6809L41.4675 43.5668L41.4067 43.4932L39.3512 43.4399L39.3517 43.8366L39.3275 43.8303C38.9537 43.7677 38.5594 43.7722 38.1809 43.7586C37.8975 43.7483 37.5979 43.6937 37.3241 43.7822C37.2304 43.2747 37.2612 42.7648 37.2678 42.2511L37.2643 38.8102Z" fill="#E11F27"/>
<path d="M41.5085 37.7714C41.6764 37.617 41.8343 37.57 42.0637 37.5815C42.1907 37.5878 42.3147 37.6161 42.442 37.6185C42.6258 37.6219 42.7655 37.6791 42.8922 37.8163C43.1145 38.0569 43.1285 38.3465 43.1149 38.6536C43.0606 39.0888 43.1196 39.5883 43.1194 40.0318C43.119 40.7944 43.0661 41.5903 43.1216 42.3494C43.1361 42.662 43.164 42.9795 43.1275 43.2911L43.0611 43.5073C42.8955 43.7121 42.7294 43.8655 42.4848 43.9732L42.0064 43.9348C41.8075 43.9215 41.6656 43.803 41.5173 43.681L41.4675 43.5668L41.4684 41.104L41.4612 38.7431C41.4637 38.4463 41.4174 38.053 41.5085 37.7714Z" fill="#9E191F"/>
<path d="M37.2643 38.8102C37.2598 38.5902 37.231 38.3235 37.3078 38.1144L37.3254 38.0713C37.3788 37.9369 37.4564 37.8074 37.5705 37.7149C37.8497 37.4891 38.665 37.576 38.9978 37.6345C39.138 37.6592 39.1502 37.6863 39.224 37.7979C39.374 38.3933 39.3105 39.1246 39.3117 39.7387L39.2942 42.8556C39.2898 43.1809 39.3369 43.5065 39.3275 43.8303C38.9537 43.7677 38.5594 43.7722 38.1809 43.7586C37.8975 43.7483 37.5979 43.6937 37.3241 43.7822C37.2304 43.2747 37.2612 42.7648 37.2678 42.2511L37.2643 38.8102Z" fill="#9E191F"/>
<path d="M20.7495 37.9141C21.2983 37.7658 21.9131 37.9491 22.4568 38.0471L24.022 38.3053L25.6568 38.4852C26.5371 38.5615 27.4541 38.4578 28.3262 38.5881C28.622 38.6323 28.9452 38.7862 29.2018 38.9352L29.2893 38.987C29.7323 39.3944 30.019 39.7975 30.2281 40.3623L30.2452 40.4069C30.3723 40.7496 30.2816 41.4427 30.1308 41.7658C30.0344 41.9724 29.9086 42.1677 29.7617 42.342C29.2461 42.8184 28.6397 43.1688 27.9273 43.2193C27.1945 43.2712 26.4652 43.2167 25.7352 43.1558C24.2726 43.0338 22.8757 42.8149 21.4486 42.4741C21.0529 42.3796 20.4609 42.3092 20.1558 42.0293C19.8575 41.7557 19.8048 41.4325 19.779 41.0506L20.0043 39.6009C20.0536 39.3 20.187 38.4171 20.3635 38.2012C20.4486 38.0971 20.6374 37.9944 20.7495 37.9141Z" fill="#9E191F"/>
</svg>
