<svg width="48" height="39" viewBox="0 0 48 39" fill="none" xmlns="http://www.w3.org/2000/svg">
<g clip-path="url(#clip0_120_531)">
<path fill-rule="evenodd" clip-rule="evenodd" d="M11.0907 -1.52588e-05C11.4196 -1.52448e-05 11.7351 0.13065 11.9677 0.363235C12.2003 0.59582 12.3309 0.911272 12.3309 1.2402V1.47584C13.8899 2.1009 14.8113 3.86944 14.8113 5.58094C14.8113 7.70542 13.3901 9.92168 11.0907 9.92168C8.79135 9.92168 7.37007 7.70542 7.37007 5.58094C7.37007 3.86944 8.29155 2.1009 9.8505 1.47584V1.2402C9.8505 0.911272 9.98116 0.59582 10.2137 0.363235C10.4463 0.13065 10.7618 -1.52448e-05 11.0907 -1.52588e-05ZM19.2761 4.39405C18.8015 4.41791 18.3382 4.54803 17.9206 4.7748C17.1665 5.17787 16.5377 5.8637 16.1458 6.70457C15.7539 7.54419 15.6324 8.46691 15.8085 9.30281C15.9846 10.14 16.4844 10.9672 17.3835 11.3864C18.2815 11.8056 19.2377 11.6567 19.9917 11.2537C20.7445 10.8506 21.3733 10.1648 21.7652 9.32513C22.1571 8.48427 22.2787 7.56155 22.1025 6.72565C22.0079 6.25984 21.81 5.8212 21.5234 5.44203C21.6525 5.14551 21.6607 4.81028 21.5462 4.50781C21.4317 4.20534 21.2036 3.95956 20.9104 3.82287C20.6173 3.68619 20.2824 3.6694 19.9771 3.7761C19.6718 3.8828 19.4203 4.10455 19.2761 4.39405ZM0.658049 5.44699C0.362878 5.83146 0.174367 6.27794 0.0788698 6.73061C-0.0972397 7.56652 0.0243006 8.48923 0.416207 9.32885C0.808115 10.1697 1.4369 10.8543 2.18971 11.2586C2.94376 11.6617 3.89996 11.8105 4.79787 11.3913C5.69703 10.9721 6.19683 10.1437 6.37294 9.30777C6.54905 8.47187 6.42751 7.54915 6.0356 6.70829C5.6437 5.86866 5.01491 5.18283 4.2621 4.77976C3.84405 4.55285 3.38038 4.42273 2.90531 4.39902C2.76629 4.10093 2.51456 3.87026 2.20549 3.75774C1.89642 3.64523 1.55532 3.66008 1.2572 3.79903C0.959073 3.93797 0.728346 4.18964 0.615755 4.49869C0.503164 4.80773 0.51793 5.14884 0.656807 5.44699H0.658049ZM5.07692 13.1698C6.81087 11.8663 8.92146 11.1616 11.0907 11.1619C13.4347 11.1619 15.5555 11.9879 17.1045 13.1698C18.6089 14.317 19.7722 15.9665 19.7722 17.7077C19.7722 19.4527 18.3038 20.6036 16.8589 21.251C15.3149 21.9418 13.2735 22.3238 11.0907 22.3238C8.90794 22.3238 6.86655 21.9418 5.32248 21.251C3.87764 20.6036 2.40923 19.4527 2.40923 17.7077C2.40923 15.9665 3.57255 14.317 5.07692 13.1685V13.1698Z" fill="#8EA369"/>
<path fill-rule="evenodd" clip-rule="evenodd" d="M36.1689 15.2964C36.5137 15.2964 36.8442 15.4333 37.088 15.6771C37.3317 15.9208 37.4687 16.2514 37.4687 16.5961V16.8431C39.1025 17.4982 40.0682 19.3516 40.0682 21.1452C40.0682 23.3717 38.5787 25.6943 36.1689 25.6943C33.7592 25.6943 32.2697 23.3717 32.2697 21.1452C32.2697 19.3516 33.2354 17.4982 34.8692 16.8431V16.5961C34.8692 16.4254 34.9028 16.2564 34.9681 16.0987C35.0334 15.941 35.1292 15.7978 35.2499 15.6771C35.3706 15.5564 35.5139 15.4606 35.6715 15.3953C35.8292 15.33 35.9983 15.2964 36.1689 15.2964ZM44.7472 19.9014C44.2498 19.9264 43.7643 20.0627 43.3266 20.3004C42.5364 20.7228 41.8774 21.4416 41.4667 22.3228C41.056 23.2027 40.9286 24.1697 41.1132 25.0458C41.2977 25.9231 41.8215 26.79 42.7638 27.2293C43.7049 27.6687 44.707 27.5127 45.4972 27.0903C46.2861 26.6678 46.9451 25.9491 47.3558 25.0692C47.7665 24.1879 47.8939 23.2209 47.7094 22.3449C47.6102 21.8567 47.4028 21.397 47.1024 20.9997C47.2377 20.6889 47.2463 20.3376 47.1263 20.0206C47.0063 19.7036 46.7672 19.446 46.4601 19.3028C46.1529 19.1595 45.8019 19.1419 45.4819 19.2537C45.1619 19.3656 44.8983 19.598 44.7472 19.9014ZM25.2355 21.0049C24.9261 21.4078 24.7286 21.8757 24.6285 22.3501C24.4439 23.2261 24.5713 24.1931 24.982 25.0731C25.3928 25.9543 26.0517 26.6717 26.8407 27.0955C27.6309 27.5179 28.633 27.6738 29.574 27.2345C30.5163 26.7952 31.0401 25.927 31.2247 25.051C31.4093 24.1749 31.2819 23.2079 30.8712 22.3267C30.4605 21.4468 29.8015 20.728 29.0125 20.3056C28.5744 20.0678 28.0885 19.9314 27.5906 19.9066C27.5185 19.7519 27.4166 19.6128 27.2908 19.4975C27.165 19.3821 27.0176 19.2927 26.8572 19.2343C26.5333 19.1163 26.1757 19.1319 25.8633 19.2775C25.5508 19.4231 25.309 19.687 25.191 20.0109C25.073 20.3348 25.0885 20.6924 25.2342 21.0049H25.2355ZM29.8665 29.0984C31.6837 27.7323 33.8956 26.9938 36.1689 26.9941C38.6254 26.9941 40.848 27.8597 42.4714 29.0984C44.048 30.3006 45.2671 32.0293 45.2671 33.8541C45.2671 35.6829 43.7282 36.889 42.214 37.5675C40.5959 38.2915 38.4565 38.6918 36.1689 38.6918C33.8814 38.6918 31.742 38.2915 30.1238 37.5675C28.6096 36.889 27.0707 35.6829 27.0707 33.8541C27.0707 32.0293 28.2899 30.3006 29.8665 29.0971V29.0984Z" fill="#8EA369"/>
</g>
<defs>
<clipPath id="clip0_120_531">
<rect width="47.792" height="38.6918" fill="white"/>
</clipPath>
</defs>
</svg>
