<svg width="56" height="56" viewBox="0 0 56 56" fill="none" xmlns="http://www.w3.org/2000/svg">
<path d="M4.91341 23.2812C5.03872 23.2904 5.09992 23.3762 5.19709 23.4513C5.33489 23.558 5.48524 23.6586 5.63348 23.7501C5.83629 23.8753 6.06777 23.9606 6.28224 24.0643C6.44223 24.1416 6.5891 24.2409 6.74712 24.3204C6.71507 24.3506 6.67929 24.3654 6.67918 24.4127C6.67897 24.5048 6.73098 24.6073 6.7574 24.6959L6.88206 25.1497C6.93424 25.3117 7.01103 25.46 7.05693 25.6258C7.13252 25.8989 7.18049 26.1821 7.23272 26.4604C7.27845 26.7044 7.17245 26.9561 7.22228 27.1844C7.29016 27.4952 7.40874 27.7986 7.5008 28.1031L7.74995 28.9992C7.8071 29.1832 7.90616 29.3842 7.94265 29.569C7.90397 29.6701 7.94368 29.7721 7.95484 29.8785C7.98761 30.1911 8.07496 30.4329 8.16111 30.7323C8.36475 31.44 8.60241 32.1076 8.90089 32.7824C9.38529 33.8774 10.0022 34.9192 10.7017 35.8886C11.1423 36.4992 11.6235 37.0943 12.1814 37.602C12.6888 38.0637 13.2013 38.4422 13.7661 38.8257C14.1921 39.1149 14.6071 39.3801 15.0668 39.6147C15.2085 39.687 15.3498 39.7756 15.4972 39.8346L16.6113 40.2585C16.8672 40.3494 17.0676 40.4409 17.339 40.4829C17.4092 40.4938 17.4599 40.497 17.5142 40.5437L17.458 40.5688C16.78 40.533 16.1001 40.4227 15.4315 40.3091C14.0073 40.0671 12.5296 39.7341 11.2347 39.0703C10.6025 38.7462 10.0066 38.3215 9.45771 37.873C9.12532 37.6014 8.83143 37.285 8.54525 36.9658C7.11868 35.375 6.12165 33.3042 5.78264 31.1895C5.68106 30.5557 5.60049 29.9039 5.56193 29.2632L5.41541 26.7608L5.28274 25.5656L5.06539 24.4725C4.9938 24.0792 4.95345 23.6789 4.91341 23.2812Z" fill="#46326B"/>
<path d="M4.91341 23.2812L4.89385 23.277C4.61973 22.9892 4.35027 22.7208 4.22756 22.3325C4.1593 22.1165 4.14767 21.8932 4.13304 21.6688C4.103 21.2085 4.103 20.776 4.32857 20.3571L4.34898 20.3201C4.49859 20.0439 4.70678 19.8195 4.93951 19.6102C5.01436 19.5429 5.10597 19.4879 5.17618 19.4192L5.22541 19.3708C5.39222 19.2165 5.59223 19.1291 5.78351 19.0135C6.01231 18.8751 6.23258 18.7075 6.46843 18.5831C6.62886 18.4985 6.80597 18.4487 6.97253 18.3769C7.61408 18.1004 8.23413 17.8708 8.90204 17.6666L10.535 17.2133L11.1993 17.0258L13.1582 16.6611L14.6765 16.3907L16.8935 16.1124L17.909 15.9763L19.8943 15.8088L21.6114 15.6511L25.2566 15.5046L27.5813 15.4567L33.2273 15.5599C34.6648 15.5955 36.0946 15.7232 37.5226 15.8817L38.7543 15.9925L40.64 16.2751L43.998 16.8462L45.4867 17.2301C45.665 17.2769 45.8477 17.2976 46.027 17.3473L48.0792 18.0194C48.3468 18.1152 48.6225 18.1902 48.886 18.299C49.7838 18.6694 50.7744 19.1861 51.4373 19.9067C51.8781 20.3857 52.0202 21.0066 51.986 21.6426C51.9631 22.068 51.8036 22.561 51.5305 22.8929C51.4258 23.02 51.2849 23.1316 51.163 23.2423C51.0221 23.3064 50.9022 23.4148 50.7808 23.5097C50.3825 23.7608 49.97 24.0041 49.5424 24.203C49.0588 24.4281 48.5427 24.5881 48.0414 24.7664C46.6379 25.2654 45.2042 25.6044 43.7466 25.9062C40.7678 26.5228 37.7431 26.9564 34.7086 27.1896L28.5526 27.4044C25.6988 27.4141 22.8413 27.3178 19.9995 27.0451L16.7422 26.6389C15.0449 26.4043 13.3426 26.1754 11.6702 25.797L9.07412 25.1594C8.28757 24.9281 7.50501 24.6321 6.74712 24.3204C6.5891 24.2408 6.44223 24.1416 6.28224 24.0643C6.06777 23.9606 5.83629 23.8753 5.63348 23.75C5.48524 23.6585 5.33489 23.5579 5.19709 23.4513C5.09992 23.3761 5.03872 23.2904 4.91341 23.2812Z" fill="#A286E9"/>
<path d="M9.8465 23.2542C9.94796 23.2003 10.0673 23.1611 10.1761 23.1231C10.4447 23.0294 10.7422 22.9918 11.0197 22.9225C12.4217 22.5722 13.8395 22.352 15.2718 22.1666L19.1852 21.7631L23.5456 21.4548L29.4019 21.3874L35.1188 21.5409L39.396 21.8274C40.9132 21.9825 42.4395 22.2082 43.9333 22.5142L45.7099 22.9201C45.9533 22.9886 46.2072 23.0493 46.436 23.1584C46.0714 23.287 45.7165 23.3693 45.3443 23.4671L43.7444 23.8477L42.9141 23.995L41.8163 24.2595C40.3649 24.548 38.8753 24.7236 37.4069 24.9068L34.6745 25.2411C31.4051 25.5277 28.108 25.5149 24.8313 25.3879L21.5355 25.2286L18.1396 24.8598L14.1036 24.2506L10.9395 23.6001C10.6274 23.5238 10.2795 23.4693 9.98926 23.3289L9.8465 23.2542Z" fill="#C8B8F2"/>
<path d="M50.7808 23.5097C50.9022 23.4148 51.0221 23.3064 51.163 23.2423C51.1966 23.5381 51.1836 23.8344 51.1502 24.1299L50.9259 25.5437L50.5985 29.639C50.3714 31.7775 49.7992 33.844 48.6113 35.6554C48.4252 35.9392 48.2376 36.2343 48.0271 36.5007C47.4815 37.1911 46.8175 37.807 46.1085 38.3254C45.7373 38.5968 45.2773 38.8123 44.8626 39.0098C42.8956 39.9463 40.6861 40.4904 38.5128 40.6469L38.5052 40.6534C38.1495 40.7289 37.7773 40.7583 37.4161 40.8023C35.803 40.9984 34.1733 41.0365 32.5502 41.0529L26.5742 41.0585L20.7198 40.9104L19.5954 40.805L18.4869 40.689C18.144 40.6551 17.796 40.6388 17.458 40.5687L17.5142 40.5436C17.4599 40.4969 17.4092 40.4937 17.339 40.4828C17.0676 40.4408 16.8672 40.3494 16.6113 40.2585L15.4972 39.8345C15.3498 39.7755 15.2085 39.687 15.0668 39.6147C14.6071 39.38 14.1921 39.1148 13.7661 38.8257C13.2013 38.4422 12.6888 38.0637 12.1814 37.602C11.6235 37.0943 11.1423 36.4992 10.7017 35.8886C10.0022 34.9191 9.38529 33.8773 8.90089 32.7823C8.60241 32.1075 8.36475 31.44 8.16111 30.7322C8.07496 30.4329 7.98761 30.191 7.95484 29.8785C7.94368 29.7721 7.90397 29.67 7.94265 29.5689C7.90616 29.3842 7.8071 29.1832 7.74994 28.9992L7.5008 28.103C7.40874 27.7985 7.29016 27.4952 7.22228 27.1843C7.17245 26.9561 7.27845 26.7044 7.23272 26.4604C7.18049 26.182 7.13252 25.8989 7.05693 25.6258C7.01103 25.4599 6.93424 25.3116 6.88206 25.1497L6.7574 24.6959C6.73098 24.6073 6.67897 24.5048 6.67918 24.4127C6.67929 24.3653 6.71507 24.3506 6.74712 24.3203C7.50501 24.6321 8.28757 24.9281 9.07412 25.1594L11.6702 25.797C13.3426 26.1754 15.0449 26.4043 16.7422 26.6389L19.9995 27.0451C22.8413 27.3178 25.6988 27.4141 28.5526 27.4044L34.7086 27.1896C37.7431 26.9564 40.7678 26.5227 43.7466 25.9061C45.2042 25.6044 46.6379 25.2654 48.0414 24.7663C48.5427 24.588 49.0588 24.428 49.5424 24.203C49.97 24.0041 50.3825 23.7607 50.7808 23.5097Z" fill="#311F54"/>
<path d="M50.7808 23.5097C50.9022 23.4148 51.0221 23.3064 51.163 23.2423C51.1966 23.5381 51.1836 23.8344 51.1502 24.1299L51.0284 24.2324L50.9874 24.2561C50.9304 24.2804 50.8404 24.2629 50.7857 24.2446C50.7115 24.0804 50.7125 23.975 50.7633 23.8033C50.8086 23.7509 50.8448 23.7117 50.8638 23.643L50.7808 23.5097Z" fill="#46326B"/>
<path d="M50.7633 23.8033C50.8465 23.7465 50.8758 23.7138 50.9782 23.7086C51.0546 23.7715 51.0431 23.8457 51.1251 23.8891L51.0984 24.0277C51.0893 24.0744 51.0946 24.0574 51.0681 24.0925C51.0356 24.1355 51.0322 24.1796 51.0284 24.2325L50.9874 24.2561C50.9304 24.2804 50.8404 24.2629 50.7857 24.2447C50.7115 24.0804 50.7125 23.975 50.7633 23.8033Z" fill="#282336"/>
<path d="M17.458 40.5687L17.5142 40.5436C17.4599 40.4969 17.4092 40.4937 17.339 40.4828C17.0676 40.4408 16.8672 40.3494 16.6113 40.2585L15.4972 39.8345C15.3498 39.7755 15.2085 39.687 15.0668 39.6147C14.6071 39.38 14.1921 39.1148 13.7661 38.8257C13.2013 38.4422 12.6888 38.0637 12.1814 37.602C11.6235 37.0943 11.1423 36.4991 10.7017 35.8886C10.0022 34.9191 9.3853 33.8773 8.9009 32.7823C8.60241 32.1075 8.36475 31.4399 8.16111 30.7322C8.07496 30.4329 7.98761 30.191 7.95485 29.8785C7.94369 29.7721 7.90398 29.67 7.94265 29.5689C8.07835 29.8663 8.22943 30.1502 8.4224 30.415C8.57069 30.6186 8.7408 30.7963 8.87738 31.0101C9.70479 32.3048 10.5338 33.6098 11.5905 34.7358C12.1884 35.3727 12.8003 35.9448 13.6334 36.2608C15.0643 36.8036 17.2884 36.2281 18.6251 35.6036L20.3152 34.7524L20.7959 34.4667L21.3465 34.1996C21.4537 34.1409 21.5499 34.0636 21.6579 34.0066L23.0895 33.2901L24.1252 32.7735C27.7292 31.1308 33.7473 29.5626 37.5719 30.9275C39.1905 31.5052 40.4326 32.5774 41.1657 34.1363C41.3847 34.6018 41.5547 35.0781 41.6855 35.5751C41.7302 35.7454 41.7907 35.9261 41.8115 36.1011C41.8395 36.338 41.8335 36.5801 41.8551 36.818C41.9075 37.3974 41.9305 37.91 41.7302 38.4699C41.668 38.6438 41.5736 38.8038 41.477 38.9602C41.3535 39.1602 41.1595 39.3018 40.9757 39.4425C40.8314 39.553 40.6953 39.6791 40.5404 39.7752C40.2265 39.9698 39.8491 40.1113 39.5138 40.267C39.3889 40.3251 39.2603 40.4243 39.1306 40.4635C38.9401 40.521 38.6632 40.5118 38.5042 40.6337L38.5128 40.6469L38.5052 40.6534C38.1495 40.7289 37.7773 40.7583 37.4161 40.8023C35.803 40.9984 34.1733 41.0365 32.5502 41.0529L26.5742 41.0585L20.7198 40.9103L19.5954 40.805L18.4869 40.689C18.144 40.6551 17.796 40.6388 17.458 40.5687Z" fill="#624E84"/>
</svg>
