<svg width="199" height="182" viewBox="0 0 199 182" fill="none" xmlns="http://www.w3.org/2000/svg">
<g clip-path="url(#clip0_400_1211)">
<path d="M75.8907 0.00787188C74.1021 0.0100073 71.7186 0.0507639 69.9356 0.152395C66.6336 0.393529 60.8268 0.232242 51.4532 4.94535C43.9264 8.72983 38.6544 12.9352 34.1524 17.5098C26.3181 26.2672 20.5905 30.7166 14.0762 49.5508C6.76181 70.6984 4.71564 85.8054 1.73638 106.916C1.07661 112.17 0.100039 121.018 0.00785978 126.309C-0.156436 135.775 2.26609 145.34 8.13869 152.857C9.81798 155.007 12.281 157.434 14.5079 159.049L19.2207 162.316C20.7899 163.332 22.568 163.954 23.7168 165.529C24.3621 165.567 25.0327 165.582 25.6387 165.828C27.7315 166.679 29.6591 168.022 31.7344 168.944C36.3741 171.004 41.4285 172.575 46.2735 174.071C63.4197 179.364 81.0208 181.354 98.9161 181.383C109.212 181.398 119.467 180.826 129.627 179.127C133.597 178.463 137.652 177.923 141.572 176.996C146.573 175.814 151.64 174.13 156.439 172.344C157.786 171.843 159.205 171.531 160.533 170.992C164.994 169.184 169.393 167.197 173.656 164.963C178.742 162.362 183.503 159.028 187.69 155.147C188.815 154.104 190.166 152.942 190.949 151.617C191.998 149.843 193.5 148.41 194.535 146.565C199.289 138.091 199.266 129.673 198.191 120.223C197.891 117.585 197.771 114.874 197.041 112.309C196.727 107.261 196.527 102.302 195.887 97.2736C195.402 93.4687 194.392 89.5312 193.467 85.8108C189.773 71.0177 186.267 59.9537 179.459 47.217C172.205 33.6678 161.03 19.7667 152.336 10.7053C142.493 0.44664 124.538 -0.15645 120.018 0.0236449L109.272 0.0353521L75.8907 0.00787188Z" fill="#EBD4A2"/>
<path d="M99.0372 100.295C96.2945 100.186 93.5502 100.481 90.9434 101.236C88.4008 101.973 85.5479 102.985 83.2754 104.359C80.3517 106.127 77.8241 108.644 75.3672 110.996L68.4532 117.086C63.9441 120.676 58.7925 123.504 53.6036 125.945C50.1916 127.551 46.7497 129.165 43.045 130.025C39.2323 130.911 34.7493 131.02 30.8731 130.5C22.8842 129.428 13.3702 124.155 7.90043 118.287C5.65269 115.876 3.96255 113.178 1.94142 110.623L1.67386 110.291C1.01409 115.545 0.100008 121.018 0.00782919 126.309C-0.156467 135.775 2.26608 145.34 8.13869 152.857C9.81798 155.007 12.281 157.434 14.5078 159.049L19.2207 162.316C20.7899 163.332 22.568 163.954 23.7168 165.529C24.3621 165.567 25.0327 165.582 25.6387 165.828C27.7315 166.679 29.6591 168.022 31.7344 168.944C36.3741 171.004 41.4285 172.575 46.2735 174.071C63.4197 179.364 81.0208 181.354 98.9161 181.383C109.212 181.398 119.467 180.826 129.627 179.127C133.597 178.463 137.652 177.923 141.572 176.996C146.573 175.814 151.64 174.13 156.439 172.344C157.786 171.843 159.205 171.531 160.533 170.992C164.994 169.184 169.393 167.197 173.656 164.963C178.742 162.362 183.503 159.028 187.689 155.147C188.815 154.104 190.166 152.942 190.949 151.617C191.998 149.843 193.5 148.41 194.535 146.565C199.289 138.091 199.266 129.673 198.191 120.223C197.891 117.585 197.771 114.874 197.041 112.309C196.417 115.105 194.431 118.23 192.145 120.028C186.317 124.609 179.228 127.265 172.133 129.248C167.909 130.429 162.67 131.689 158.27 131.412C154.52 131.176 150.935 129.792 147.502 128.381C138.739 124.778 130.685 119.755 123.447 113.631C119.542 110.327 116.712 106.439 112.09 103.914C108.174 101.775 103.608 100.476 99.0372 100.295Z" fill="#FEF7E1"/>
<path d="M98.5267 138.868L99.8816 139.789C101.292 140.727 114.806 148.985 115.422 148.988C116.536 148.994 119.132 147.518 120.279 147.027L128.778 143.551C130.642 142.804 132.576 141.889 134.545 141.495L134.874 141.787C134.729 142.43 134.382 142.779 133.916 143.22C132.215 144.833 129.842 146.175 127.886 147.464L118.787 153.412C114.93 155.886 111.086 159.055 106.825 160.777C103.833 161.987 100.891 162.435 97.6838 162.256C94.5788 162.025 91.6896 161.139 88.8815 159.81C86.5514 158.707 84.7194 157.112 82.5706 155.74L67.8637 146.18C65.2844 144.364 62.7226 142.648 60.6336 140.246L61.7824 140.554C63.8526 141.11 65.8208 142.027 67.8005 142.84L75.0738 145.907C77.3138 146.938 79.5057 148.167 81.9177 148.739L98.5267 138.868Z" fill="black"/>
<path d="M94.4161 110.178C95.5633 109.986 96.8179 110.033 97.9825 110.015C101.882 109.953 105.819 110.37 109.498 111.752C111.679 112.571 113.729 114.093 114.668 116.279C115.79 118.891 115.154 122.332 114.105 124.855C111.757 130.505 106.763 135.11 101.142 137.429L98.3146 138.317C96.1842 138.708 93.0881 137.428 91.3866 136.257C86.452 132.86 81.6433 127.559 80.6946 121.409C80.3272 119.025 81.4491 116.544 82.88 114.714C85.3228 111.59 90.708 110.675 94.4161 110.178Z" fill="black"/>
</g>
<defs>
<clipPath id="clip0_400_1211">
<rect width="198.778" height="181.383" fill="white"/>
</clipPath>
</defs>
</svg>
