<svg width="245" height="207" viewBox="0 0 245 207" fill="none" xmlns="http://www.w3.org/2000/svg">
<g clip-path="url(#clip0_397_1139)">
<path d="M182.23 178.483C184.381 178.875 186.502 179.169 188.691 179.261C190.037 179.317 191.409 179.291 192.755 179.218C193.497 179.178 194.491 178.971 195.192 179.197L195.374 179.072C195.902 178.768 196.561 178.644 197.146 178.482L196.441 179.537L195.715 179.555C195.861 180.843 197.081 182.554 197.623 183.784C198.163 185.009 198.506 186.365 199.183 187.521C199.548 188.144 200.01 188.665 200.574 189.114C201.666 189.982 202.833 190.789 204.17 191.229C207.038 192.173 210.288 192.129 213.276 192.12L227.05 191.701C228.585 191.676 230.475 191.456 231.978 191.725C232.978 191.904 233.592 192.274 234.316 192.963C234.487 192.622 234.504 192.511 234.552 192.147C234.659 191.338 234.872 190.611 235.179 189.857C235.46 192.2 235.504 193.895 233.982 195.862C230.835 199.928 222.688 201.103 217.902 201.603C213.1 202.104 206.286 201.368 202.416 198.25C201.693 197.667 201.044 196.947 200.478 196.214C200.258 195.929 199.837 195.173 199.579 194.987C199.291 194.779 196.931 194.736 196.427 194.705C193.93 194.554 191.404 194.659 188.902 194.633C186.961 194.613 184.925 194.428 182.999 194.523C182.69 194.538 182.424 194.598 182.124 194.666L182.23 178.483Z" fill="#EBD4A2"/>
<path d="M197.146 178.482C197.629 178.448 198.4 178.031 198.867 177.853L203.367 176.05C208.001 174.231 214.522 173.871 219.443 174.507L219.806 174.558C223.119 174.999 225.809 175.929 228.464 177.976C230.408 180.39 231.84 182.807 233.367 185.495C233.988 186.588 234.731 187.676 235.227 188.826L235.179 189.857C234.872 190.611 234.659 191.338 234.552 192.147C234.504 192.511 234.487 192.622 234.316 192.963C233.592 192.274 232.978 191.904 231.978 191.725C230.475 191.456 228.585 191.676 227.05 191.701L213.276 192.12C210.288 192.129 207.038 192.173 204.17 191.229C202.833 190.789 201.666 189.982 200.574 189.114C200.01 188.665 199.548 188.144 199.183 187.521C198.506 186.365 198.163 185.009 197.623 183.784C197.081 182.554 195.861 180.843 195.715 179.555L196.441 179.537L197.146 178.482Z" fill="#FEF7E1"/>
<path d="M63.4231 178.698L63.567 194.685C61.4131 194.6 48.7871 194.232 47.6634 194.767C47.1107 195.031 46.4693 196.045 46.0528 196.533C44.9531 197.823 43.9754 198.885 42.4407 199.687L42.1125 199.853C40.9816 200.437 39.8221 200.68 38.5918 200.961C33.7502 202.067 28.1746 201.805 23.3416 200.807C19.6711 200.048 14.5798 198.727 12.4524 195.344L12.2954 195.082C11.6288 193.996 11.7163 192.919 11.7278 191.689L20.0837 191.682L25.845 192.051L39.5541 191.791C41.3452 191.721 44.2489 192.067 45.6913 190.982L45.9026 190.815C47.4948 189.594 47.6066 188.087 48.1516 186.288C48.5451 184.988 49.0495 183.785 49.3666 182.453C49.5727 181.586 49.7042 180.268 50.1646 179.513L50.3242 179.268C50.78 179.555 51.5921 179.506 52.1333 179.541L56.9983 179.803C58.6669 179.846 62.2589 179.814 63.4231 178.698Z" fill="#EBD4A2"/>
<path d="M17.0717 179.579C18.6993 177.956 20.5357 176.227 22.643 175.246C28.6556 172.449 37.7195 173.597 43.7688 175.682C45.4161 176.249 46.9345 177.115 48.4759 177.919C49.2424 178.319 49.9299 178.485 50.3242 179.268L50.1646 179.513C49.7042 180.268 49.5727 181.586 49.3666 182.453C49.0495 183.785 48.5451 184.988 48.1516 186.288C47.6066 188.087 47.4948 189.594 45.9026 190.815L45.6914 190.982C44.2489 192.067 41.3452 191.721 39.5541 191.791L25.845 192.051L20.0837 191.682L11.7278 191.689L11.8738 190.141C12.4448 188.855 12.7674 187.457 13.3213 186.158C14.3106 183.839 15.5712 181.6 17.0717 179.579Z" fill="#FEF7E1"/>
<path d="M140.445 181.847C142.922 181.917 145.05 182.072 147.45 181.291C148.783 185.775 149.171 190.434 149.598 195.067L113.462 194.888L103.229 194.866C102.099 194.862 100.989 194.491 99.8875 194.503C99.124 194.511 98.3145 194.721 97.5745 194.898C98.0806 190.314 98.6734 185.895 100.041 181.472L140.445 181.847Z" fill="#C6A37D"/>
<path d="M147.284 179.551C149.563 179.457 151.795 179.03 154.055 178.782L162.92 178.193C169.411 177.816 175.753 178.158 182.23 178.483L182.124 194.666C182.014 198.481 181.652 202.38 182.09 206.18C179.929 206.547 177.76 206.266 175.593 206.428L150.444 206.381C150.038 205.536 150.264 203.761 150.208 202.743L149.598 195.067C149.171 190.434 148.783 185.775 147.45 181.291C147.297 180.72 147.304 180.138 147.284 179.551Z" fill="#FEF7E1"/>
<path d="M219.818 68.9632V70.6421C220.019 71.6522 220.156 72.4703 220.767 73.326L226.434 80.9355C232.7 89.8876 237.686 99.584 240.959 110.011C242.087 114.666 243.225 119.344 243.799 124.108C245.674 139.653 242.618 156.696 234.405 170.139C232.771 172.815 230.866 175.938 228.464 177.976C225.809 175.929 223.119 174.999 219.807 174.558L219.443 174.507C214.522 173.871 208.001 174.231 203.367 176.05L198.867 177.853C198.4 178.031 197.629 178.448 197.146 178.482C196.561 178.644 195.903 178.768 195.374 179.072L195.192 179.196C194.491 178.971 193.497 179.178 192.755 179.218C191.409 179.291 190.037 179.317 188.691 179.261C186.502 179.169 184.381 178.875 182.23 178.483C182.09 176.725 182.281 175.081 182.388 173.329C182.82 166.26 184.765 159.444 187.212 152.822C187.701 151.499 188.04 150.079 188.578 148.783C189.058 147.625 189.958 146.677 190.437 145.493L193.736 136.947L197.758 127.818C198.245 126.616 198.583 125.358 199.101 124.166L203.27 115.485L209.103 100.915L215.976 81.1373C216.68 79.0061 217.104 76.7323 217.961 74.6562C218.113 74.2879 218.227 74.0937 218.192 73.681C218.094 72.5083 219.131 69.9802 219.818 68.9632Z" fill="#C6A37D"/>
<path d="M219.818 70.6421C220.019 71.6523 220.156 72.4704 220.767 73.326L226.434 80.9355C232.7 89.8876 237.686 99.584 240.959 110.011C238.461 112.921 235.602 115.761 232.586 118.145L225.303 124.303L220.3 128.134L212.896 134.368L206.691 139.173C205.629 140.08 204.82 141.212 203.77 142.122C204.067 141.523 204.355 140.93 204.729 140.375C206.353 137.958 206.852 133.916 207.652 131.061L215.719 98.8538C216.658 94.7373 217.849 90.663 218.554 86.4957C219.442 81.2475 219.682 75.9429 219.818 70.6421Z" fill="#EBD4A2"/>
<path d="M28.2796 69.9131C28.7627 71.1657 28.9488 72.5411 29.265 73.8466L30.5504 78.3749L38.4715 105.917L40.324 110.915C41.9457 115.885 43.2571 121.054 45.2065 125.913L52.9582 144.674C56.7533 153.428 61.1741 162.675 62.9528 172.102C63.357 174.245 63.3374 176.519 63.4231 178.698C62.2589 179.814 58.6669 179.846 56.9983 179.803L52.1333 179.541C51.5921 179.506 50.78 179.555 50.3242 179.268C49.9299 178.485 49.2424 178.319 48.4759 177.919C46.9345 177.115 45.4161 176.249 43.7688 175.682C37.7195 173.597 28.6556 172.449 22.643 175.246C20.5357 176.227 18.6993 177.956 17.0717 179.579C14.0792 176.734 11.7359 172.779 9.46684 169.347C8.64618 167.46 7.51741 165.705 6.67329 163.833C2.92848 155.529 0.466515 146.114 0.0572541 137.006C-0.140335 132.601 0.204061 128.369 0.623137 123.997C0.725559 117.506 2.79448 111.221 4.38501 104.996C4.85572 103.184 5.83001 101.4 6.6336 99.7128C7.84474 97.168 9.09855 94.3907 10.675 92.0576C12.6095 89.1941 14.9255 86.4095 16.5916 83.3859C18.8568 80.0277 21.5714 77.4292 24.2963 74.479C25.5684 73.1019 26.337 71.4166 28.111 70.6348L28.2796 69.9131Z" fill="#C6A37D"/>
<path d="M28.111 70.6349C27.6548 83.9122 30.7493 97.1143 33.74 109.955C34.352 112.582 34.6853 115.282 35.3723 117.894C35.893 119.873 36.752 121.764 37.364 123.72C38.8355 128.421 40.1277 133.121 41.9474 137.716C43.3318 141.212 44.4747 144.726 46.0477 148.156L47.727 151.772C47.8853 152.112 48.1742 152.522 48.1495 152.897L42.355 154.183L28.7994 157.539C27.989 157.723 26.3528 158.332 25.6248 158.193C24.9304 155.445 23.779 152.905 22.7838 150.261L16.0594 133.114L8.13194 114.116C6.88368 111.092 5.85775 107.922 4.38501 104.996C4.85572 103.185 5.83001 101.4 6.6336 99.7129C7.84474 97.1681 9.09855 94.3908 10.675 92.0577C12.6095 89.1942 14.9255 86.4096 16.5916 83.386C18.8568 80.0278 21.5714 77.4293 24.2963 74.4791C25.5684 73.1019 26.337 71.4167 28.111 70.6349Z" fill="#EBD4A2"/>
<path d="M212.543 24.1187C216.174 36.4259 218.658 49.125 219.465 61.9448C219.605 64.175 220.045 66.7398 219.818 68.9632C219.131 69.9802 218.094 72.5083 218.192 73.681C218.227 74.0937 218.113 74.2879 217.961 74.6562C217.104 76.7324 216.68 79.0061 215.976 81.1374L209.103 100.915L203.27 115.485L199.101 124.166C198.583 125.358 198.245 126.616 197.758 127.818L193.736 136.947L190.437 145.493C189.958 146.677 189.058 147.625 188.578 148.783C188.04 150.079 187.701 151.499 187.212 152.822C184.765 159.444 182.82 166.26 182.388 173.329C182.281 175.081 182.09 176.725 182.23 178.483C175.753 178.158 169.411 177.816 162.92 178.193L154.055 178.782C151.795 179.03 149.563 179.457 147.284 179.551C147.304 180.138 147.297 180.72 147.45 181.291C145.05 182.072 142.922 181.917 140.445 181.848C140.817 181.101 140.395 166.878 140.404 164.473L140.855 153.315C140.915 149.699 140.591 145.859 141.025 142.278L141.108 108.933C141.041 108.003 141.131 107.049 141.096 106.114C140.967 102.669 140.652 99.3066 141.041 95.8545C141.097 94.1035 140.96 92.3176 140.523 90.6195L140.435 90.2845C141.467 89.0516 142.885 88.1631 144.207 87.272L152.165 82.4035L167.955 71.5105C170.995 69.3328 173.787 66.8589 176.659 64.4712L186.702 56.0056C191.198 51.9633 195 47.5899 199.002 43.0842C201.622 40.134 204.12 37.2269 206.39 33.9925L210.288 27.9322C210.941 26.8187 211.449 25.3085 212.307 24.3675L212.543 24.1187Z" fill="#EBD4A2"/>
<path d="M44.4013 0C46.4412 3.97354 50.6733 6.66594 54.2952 9.13815C61.0811 13.7698 68.088 17.5841 75.6024 20.9107C78.6268 22.2494 81.8506 23.7132 84.9988 24.7123L97.382 28.5868C102.314 29.9191 107.441 30.8755 112.478 31.7026C115.211 32.1515 118.157 32.6961 120.925 32.7485C130.067 32.6943 138.973 31.9889 147.93 30.0514C161.99 27.0104 175.665 20.9585 187.764 13.2496C193.433 9.63748 198.597 5.35708 203.958 1.31526C206.386 7.32145 209.113 13.2116 211.228 19.3424C211.707 20.7289 212.567 22.6553 212.543 24.1187L212.307 24.3675C211.449 25.3085 210.941 26.8187 210.288 27.9322L206.39 33.9925C204.12 37.2269 201.622 40.134 199.002 43.0842C195 47.5899 191.198 51.9633 186.702 56.0056L176.659 64.4712C173.787 66.8589 170.995 69.3328 167.955 71.5105L152.165 82.4036L144.207 87.272C142.885 88.1631 141.467 89.0516 140.435 90.2845L140.523 90.6195C140.96 92.3176 141.097 94.1035 141.041 95.8545C140.652 99.3066 140.967 102.669 141.096 106.114C141.131 107.049 141.041 108.003 141.108 108.933L141.025 142.278C140.591 145.859 140.915 149.699 140.855 153.315L140.404 164.473C140.395 166.878 140.817 181.101 140.445 181.848L100.041 181.472C98.6734 185.895 98.0806 190.314 97.5745 194.898L97.1328 201.708C97.076 203.127 97.2198 205.067 96.7308 206.402L70.9153 206.432C69.2283 206.262 67.4099 206.407 65.7093 206.411C65.079 206.411 64.4311 206.518 63.8683 206.189L63.6438 204.67L63.567 194.685L63.4231 178.698C63.3374 176.519 63.357 174.245 62.9529 172.102C61.1741 162.675 56.7533 153.428 52.9582 144.674L45.2066 125.913C43.2571 121.054 41.9457 115.885 40.324 110.915L38.4715 105.917L30.5504 78.375L29.265 73.8466C28.9488 72.5412 28.7627 71.1657 28.2796 69.9132C27.9463 66.844 28.4555 63.8771 28.7422 60.836C29.2275 55.6855 29.6674 50.5781 30.556 45.4706C31.363 40.8305 32.5592 36.207 33.7319 31.645C34.3878 29.0925 34.9089 26.436 35.6813 23.9206C36.1252 22.4752 36.7516 21.0665 37.2812 19.6483L37.3854 19.2438L41.7029 6.25285C42.509 4.10796 43.1863 1.96309 44.4013 0Z" fill="#EBD4A2"/>
<path d="M63.4232 178.698C66.7113 177.868 70.2282 177.793 73.6047 177.789C78.8074 177.784 83.9374 178.151 89.1119 178.671C92.8767 179.049 96.782 179.365 100.456 180.28L100.041 181.472C98.6734 185.895 98.0806 190.314 97.5745 194.898L97.1328 201.708C97.076 203.127 97.2198 205.067 96.7308 206.402L70.9153 206.432C69.2283 206.262 67.4099 206.407 65.7093 206.411C65.079 206.411 64.4312 206.518 63.8683 206.189L63.6438 204.67L63.567 194.685L63.4232 178.698Z" fill="#FEF7E1"/>
<path d="M44.4012 0C46.4412 3.97354 50.6733 6.66594 54.2952 9.13815C61.0811 13.7698 68.088 17.5841 75.6024 20.9107C78.6268 22.2494 81.8505 23.7132 84.9987 24.7123L97.382 28.5868C102.314 29.9191 107.441 30.8755 112.478 31.7026C115.211 32.1515 118.157 32.6961 120.925 32.7485L122.612 33.002C122.9 34.095 122.729 35.566 122.729 36.705L122.726 44.7968L122.754 72.4818L122.874 91.5959C123.008 94.8017 122.649 98.2316 123.149 101.39C122.263 102.27 121.483 102.918 120.372 103.522L120.06 103.693C118.271 104.659 114.633 106.185 112.641 106.123C111.354 106.082 109.961 105.687 108.691 105.46C108.703 104.277 108.876 103.106 108.906 101.961C108.929 101.11 108.764 99.7342 109.032 98.9647C109.177 98.5495 109.195 96.9735 109.019 96.5796L108.861 91.1465C108.856 90.8922 108.921 89.8069 108.837 89.6887C108.685 89.4749 107.723 88.9726 107.467 88.7976L100.5 84.4383L93.5988 79.834L85.6128 74.2141C68.6927 62.3468 52.1008 48.5706 41.2714 30.6954C41.5744 29.2645 40.19 25.591 39.4671 24.2223C38.646 22.6668 37.8181 22.1304 37.8125 20.2292C37.8108 19.7542 37.6388 19.6351 37.3853 19.2438L41.7029 6.25285C42.509 4.10796 43.1863 1.96309 44.4012 0Z" fill="#FEF7E1"/>
<path d="M120.925 32.7485C130.067 32.6943 138.973 31.9889 147.93 30.0514C161.99 27.0103 175.665 20.9585 187.764 13.2495C193.433 9.63747 198.597 5.35707 203.958 1.31525C206.386 7.32144 209.113 13.2116 211.228 19.3424C211.707 20.7289 212.567 22.6553 212.543 24.1186L212.307 24.3674C211.449 25.3084 210.941 26.8187 210.288 27.9321L206.39 33.9925C204.12 37.2269 201.622 40.134 199.002 43.0842C195 47.5899 191.198 51.9633 186.702 56.0056L176.659 64.4712C173.787 66.8589 170.995 69.3328 167.955 71.5105L152.165 82.4035L144.207 87.272C142.885 88.1631 141.467 89.0516 140.435 90.2845L140.523 90.6195C140.96 92.3176 141.097 94.1035 141.041 95.8545C140.652 99.3066 140.967 102.669 141.096 106.114C141.131 107.049 141.041 108.003 141.108 108.933L141.025 142.278C140.591 145.859 140.915 149.699 140.855 153.315L140.404 164.473C140.395 166.878 140.817 181.101 140.445 181.848L100.041 181.472L100.455 180.28C101.348 179.84 101.598 178.105 102.194 177.336C102.081 178.635 101.166 180.056 100.388 181.082L100.278 181.224H108.301L108.423 178.343C108.667 176.469 108.847 173.564 108.451 171.726C108.361 171.308 108.36 171.52 108.36 171.108C108.36 169.976 108.236 168.712 108.345 167.601C108.387 167.171 108.299 166.764 108.341 166.334C108.406 165.669 108.312 165.025 108.452 164.367C108.753 162.952 108.959 161.292 108.668 159.857C108.581 159.434 108.573 159.535 108.573 159.146L108.456 148.789C108.372 148.246 108.356 148.528 108.375 148.106C108.422 147.065 108.54 145.696 108.374 144.676L108.318 144.416C108.659 143.697 108.559 142.855 108.559 142.076L108.566 137.212L108.543 116.65C108.534 116.064 108.36 115.522 108.36 114.949L108.37 114.649V114.009C108.387 113.658 108.434 113.342 108.4 112.989C108.26 111.569 108.456 110.19 108.459 108.767C108.462 107.457 108.296 106.139 108.318 104.834C108.325 104.408 108.445 104.013 108.403 103.587C108.295 102.483 108.759 101.367 108.587 100.316C108.519 99.8998 108.507 100.157 108.581 99.706C108.639 99.3463 108.652 99.4696 108.62 99.1393L108.531 98.0058C108.828 97.5598 108.751 97.2761 108.762 96.7563L109.019 96.5796C109.195 96.9735 109.177 98.5495 109.032 98.9647C108.764 99.7342 108.929 101.11 108.906 101.961C108.876 103.106 108.703 104.277 108.691 105.46C109.961 105.687 111.354 106.082 112.641 106.123C114.633 106.185 118.271 104.659 120.06 103.693L120.372 103.522C121.483 102.918 122.263 102.27 123.149 101.39C122.649 98.2316 123.008 94.8017 122.874 91.5959L122.754 72.4818L122.726 44.7968L122.729 36.705C122.729 35.566 122.9 34.095 122.612 33.002L120.925 32.7485Z" fill="url(#paint0_linear_397_1139)"/>
</g>
<defs>
<linearGradient id="paint0_linear_397_1139" x1="140.731" y1="16.3678" x2="176.659" y2="172.857" gradientUnits="userSpaceOnUse">
<stop stop-color="#F8EBC2"/>
<stop offset="1" stop-color="#F0E6D7"/>
</linearGradient>
<clipPath id="clip0_397_1139">
<rect width="244.332" height="206.432" fill="white"/>
</clipPath>
</defs>
</svg>
