<svg width="90" height="138" viewBox="0 0 90 138" fill="none" xmlns="http://www.w3.org/2000/svg">
<g clip-path="url(#clip0_406_1271)">
<path d="M16.9355 113.136C16.8246 112.963 16.7146 112.789 16.6055 112.615C12.1062 105.061 9.36101 96.5681 8.67388 88.0755C8.60812 88.0944 8.54197 88.1058 8.47659 88.1243L8.1406 88.2316C7.27985 88.4962 6.76963 88.7395 6.10345 89.3566C8.49612 97.5978 12.0826 105.829 16.9355 113.136Z" fill="#EBD4A2"/>
<path d="M6.10257 89.3567C0.189841 70.2486 0.365664 49.3443 0.139043 29.5197L-3.05176e-05 -3.05176e-05C2.49521 2.7436 5.98523 4.99429 8.89316 7.29878L29.0391 23.1516L52.3806 41.3567L59.3509 46.8661C60.9312 48.1173 62.4876 49.4523 64.2594 50.4261L64.501 50.5561C68.5537 53.7672 70.7969 55.3929 73.5441 59.1228C71.1745 61.7715 64.9937 70.275 63.7826 72.8198C62.979 74.5072 60.8263 79.7377 58.4255 83.5097C56.0247 87.2817 51.7232 90.351 48.4111 91.6317C45.099 92.9123 43.0003 92.7706 40.147 92.9234C36.5631 93.115 33.0406 93.3147 29.478 92.6932C27.0352 92.2673 24.4474 91.5815 22.0857 90.8317C17.9854 89.5297 12.8558 86.8069 8.47597 88.1239L8.13997 88.2305C7.27922 88.495 6.76875 88.7396 6.10257 89.3567Z" fill="#FEF7E1"/>
<path d="M73.4784 59.2044C71.0726 61.9159 64.9857 70.2928 63.7831 72.8196C62.9795 74.507 60.8265 79.7371 58.4257 83.5091C56.0443 87.2508 51.7951 90.2962 48.494 91.595C48.094 95.8155 47.7756 99.9171 47.9667 104.177C48.376 113.285 50.8391 122.699 54.5839 131.003C55.428 132.875 56.5562 134.63 57.3769 136.517C49.9952 137.17 43.324 135.781 36.8398 132.169C28.6811 127.624 22.0928 120.902 16.9355 113.136C23.5058 123.79 33.1425 131.732 43.7594 135.242C54.3763 138.752 65.1191 137.549 73.6621 131.892C82.2775 126.183 87.9514 116.409 89.4356 104.72C90.9198 93.0312 88.0926 80.3852 81.5761 69.5638C79.2606 65.7731 76.535 62.2862 73.4784 59.2044Z" fill="#EBD4A2"/>
<path d="M48.494 91.595C48.4676 91.6064 48.4385 91.6214 48.412 91.6328C45.1 92.9134 42.9997 92.771 40.1464 92.9238C36.5625 93.1154 33.041 93.3149 29.4785 92.6932C27.0357 92.2674 24.4476 91.5818 22.0859 90.832C20.5483 90.3437 18.866 89.6565 17.1327 89.0566C16.5556 88.8566 15.9697 88.6656 15.3847 88.496C15.24 88.454 15.0941 88.428 14.9492 88.3887C14.0056 88.1332 13.0609 87.9353 12.125 87.8438C12.0418 87.8362 11.9556 87.8136 11.8729 87.8098C11.0029 87.7421 10.1433 87.769 9.3065 87.9251C9.09409 87.9647 8.88318 88.0203 8.67365 88.0774C9.36077 96.57 12.106 105.063 16.6053 112.616C16.7144 112.791 16.8244 112.965 16.9352 113.138C22.0926 120.904 28.6808 127.626 36.8395 132.171C43.3237 135.783 49.995 137.172 57.3766 136.519C56.556 134.632 55.4278 132.877 54.5837 131.005C50.8389 122.701 48.3757 113.287 47.9665 104.179C47.7752 99.9189 48.0941 95.8155 48.494 91.595Z" fill="#EBD4A2"/>
<path d="M73.4784 59.2044C71.0726 61.9159 64.9857 70.2928 63.7831 72.8196C62.9795 74.507 60.8265 79.7371 58.4257 83.5091C56.0443 87.2508 51.7951 90.2962 48.494 91.595C48.094 95.8155 47.7756 99.9171 47.9667 104.177C48.376 113.285 50.8391 122.699 54.5839 131.003C55.428 132.875 56.5562 134.63 57.3769 136.517C49.9952 137.17 43.324 135.781 36.8398 132.169C28.6811 127.624 22.0928 120.902 16.9355 113.136C23.5058 123.79 33.1425 131.732 43.7594 135.242C54.3763 138.752 65.1191 137.549 73.6621 131.892C82.2775 126.183 87.9514 116.409 89.4356 104.72C90.9198 93.0312 88.0926 80.3852 81.5761 69.5638C79.2606 65.7731 76.535 62.2862 73.4784 59.2044Z" fill="#EBD4A2"/>
<path d="M48.494 91.595C48.4676 91.6064 48.4385 91.6214 48.412 91.6328C45.1 92.9134 42.9997 92.771 40.1464 92.9238C36.5625 93.1154 33.041 93.3149 29.4785 92.6932C27.0357 92.2674 24.4476 91.5818 22.0859 90.832C20.5483 90.3437 18.866 89.6565 17.1327 89.0566C16.5556 88.8566 15.9697 88.6656 15.3847 88.496C15.24 88.454 15.0941 88.428 14.9492 88.3887C14.0056 88.1332 13.0609 87.9353 12.125 87.8438C12.0418 87.8362 11.9556 87.8136 11.8729 87.8098C11.0029 87.7421 10.1433 87.769 9.3065 87.9251C9.09409 87.9647 8.88318 88.0203 8.67365 88.0774C9.36077 96.57 12.106 105.063 16.6053 112.616C16.7144 112.791 16.8244 112.965 16.9352 113.138C22.0926 120.904 28.6808 127.626 36.8395 132.171C43.3237 135.783 49.995 137.172 57.3766 136.519C56.556 134.632 55.4278 132.877 54.5837 131.005C50.8389 122.701 48.3757 113.287 47.9665 104.179C47.7752 99.9189 48.0941 95.8155 48.494 91.595Z" fill="#EBD4A2"/>
</g>
<defs>
<clipPath id="clip0_406_1271">
<rect width="89.8219" height="137.216" fill="white"/>
</clipPath>
</defs>
</svg>
