<svg width="32" height="33" viewBox="0 0 32 33" fill="none" xmlns="http://www.w3.org/2000/svg">
<g clip-path="url(#clip0_397_1203)">
<path d="M14.6109 0.0402785C18.191 -0.241809 21.975 0.976585 24.8198 3.10483C28.2514 5.6722 30.2435 9.90692 30.8477 14.0618C31.4021 17.8719 30.7551 21.9914 28.3661 25.1106C25.311 29.0991 21.617 31.4364 16.5838 32.1146C15.2489 32.2174 13.6285 31.9946 12.3115 31.7356C8.58891 31.0041 5.00713 28.0992 2.93564 24.9907C0.781797 21.7576 -0.584259 17.3278 0.245786 13.4243C0.681932 11.3707 1.2205 8.98469 2.49224 7.28321C5.74072 2.93711 9.24483 0.802895 14.6109 0.0402785Z" fill="black"/>
<path d="M7.95898 5.4089C8.50693 5.3069 9.12061 5.38585 9.63613 5.59838C10.7218 6.04605 11.6415 6.96443 12.0396 8.07059C12.4182 9.12297 12.3 10.2645 11.793 11.2546C11.1294 12.5503 10.1278 13.0325 8.78304 13.4127C8.15315 13.3364 7.50918 13.2638 6.92068 13.0133C5.97456 12.61 5.07025 11.6711 4.71945 10.6998C4.37719 9.75116 4.47449 8.74529 4.96399 7.87001C5.64466 6.6529 6.63005 5.81304 7.95898 5.4089Z" fill="#FEF7E1"/>
</g>
<defs>
<clipPath id="clip0_397_1203">
<rect width="31.0334" height="32.1402" fill="white"/>
</clipPath>
</defs>
</svg>
