<svg width="71" height="120" viewBox="0 0 71 120" fill="none" xmlns="http://www.w3.org/2000/svg">
<g clip-path="url(#clip0_397_1088)">
<path d="M70.0932 43.8356C69.8725 43.7354 69.6153 43.5653 69.433 43.4567C66.5763 41.7587 64.1935 39.1614 61.5775 37.1091L45.3666 23.5388L27.3236 8.50753C24.2224 5.96 21.2065 2.5174 17.5834 0.739951C15.8034 -0.13315 14.0769 -0.207971 12.2025 0.380588L11.9272 0.462597C9.02734 1.34283 6.40167 4.53617 5.05995 7.13252C2.31675 12.441 1.07456 18.3758 0.454486 24.2868C0.082769 27.8312 0.166178 31.5114 0.120484 35.0739L0.284558 62.695L0.108777 86.5466C0.098572 90.4476 -0.273309 94.8078 0.419335 98.6521C0.857613 101.084 1.38803 103.588 2.40371 105.849C3.075 109.207 4.0279 112.037 5.97989 114.89L6.19866 115.213C7.50454 117.111 9.3045 118.171 11.2748 119.261L11.2688 119.302L11.2884 119.291L14.0697 110.865C14.0697 110.865 47.4074 57.2507 59.2639 53.6119C63.9413 49.2138 65.6163 48.0681 70.0932 43.8356Z" fill="#EBD4A2"/>
<path d="M2.40305 105.85C2.4039 98.0882 3.7627 90.4291 4.41521 82.7146L5.5619 65.1488C5.8713 59.9718 6.14913 54.8614 6.85456 49.7156C7.32015 46.3177 7.97821 42.4257 9.72535 39.4072C11.5075 36.3282 14.3416 33.6385 17.8803 32.8599C18.9421 32.6263 20.4485 32.5319 21.5214 32.7391C22.7125 32.9692 23.8843 33.5495 24.9995 34.0109C27.3428 34.9796 29.8133 35.8476 31.939 37.2572L35.7444 39.5591C39.589 41.2282 43.2702 43.5997 46.7906 45.8649L52.1733 49.1638L59.3245 53.5748C55.3702 55.7124 52.1954 59.3692 48.8091 62.3531C47.324 63.662 46.1762 65.2826 44.8029 66.7118C37.6177 75.0652 32.0842 83.0894 25.9442 92.2493L21.1237 99.8805L14.1425 110.713C13.0744 113.372 12.1561 116.223 11.2753 119.26C9.30499 118.17 7.50409 117.112 6.19821 115.213L5.98013 114.891C4.02814 112.038 3.07434 109.208 2.40305 105.85Z" fill="#C6A37D"/>
</g>
<defs>
<clipPath id="clip0_397_1088">
<rect width="70.0931" height="119.302" fill="white"/>
</clipPath>
</defs>
</svg>
