<svg width="160" height="74" viewBox="0 0 160 74" fill="none" xmlns="http://www.w3.org/2000/svg">
<g clip-path="url(#clip0_404_1255)">
<path d="M154.451 34.488C155.215 35.8506 156.023 37.1424 156.955 38.4001C157.831 39.583 159.102 40.6892 159.557 42.1141C154.196 46.156 149.032 50.4364 143.363 54.0484C131.264 61.7574 117.588 67.8092 103.529 70.8503C94.5721 72.7878 85.6653 73.4932 76.5237 73.5474C73.7562 73.4949 70.8098 72.9504 68.0769 72.5014C63.0394 71.6744 57.9123 70.718 52.9807 69.3857L40.5975 65.5111C37.4493 64.5121 34.2256 63.0483 31.2011 61.7096C23.6868 58.383 16.6798 54.5686 9.89395 49.937C6.27206 47.4648 2.0399 44.7724 0 40.7989C1.08012 39.0577 3.54905 33.5722 4.64211 32.0356C9.512 23.1567 17.1364 1.12136 76.3825 0.0316226C132.453 -0.999702 147.62 23.4799 153.004 31.8223C153.498 32.5443 154.043 33.7385 154.451 34.488Z" fill="#EBD4A2"/>
</g>
<defs>
<clipPath id="clip0_404_1255">
<rect width="159.557" height="73.5474" fill="white"/>
</clipPath>
</defs>
</svg>
