<svg width="72" height="119" viewBox="0 0 72 119" fill="none" xmlns="http://www.w3.org/2000/svg">
<g clip-path="url(#clip0_397_1081)">
<path d="M60.0944 118.39C60.0414 118.224 60.004 118.056 59.95 117.89C61.8542 116.678 63.8456 114.507 65.3093 112.795C69.1228 108.334 71.4387 101.938 71.0046 96.0523L70.5613 84.6109L70.3818 48.4566L70.4007 30.8941C70.3436 28.1117 70.3613 25.2255 69.9319 22.4703C68.9171 15.9558 66.7177 7.27794 61.8753 2.52693C60.5062 1.18375 59.2068 0.484846 57.3167 0.132386L57.0275 0.073807C54.9398 -0.320602 51.7201 0.938089 50.008 2.12264L0.0412059 44.2008C0.0260878 44.198 0.0147402 44.1977 0 44.1947C0.0536693 44.2318 0.0926101 44.2671 0.146657 44.3041C48.7646 77.5968 59.8615 118.287 59.8615 118.287L60.0944 118.39Z" fill="#EBD4A2"/>
<path d="M59.9497 117.89C58.1356 113.947 56.6646 109.767 54.7352 105.901C47.5507 91.5081 38.7574 78.5466 27.4299 67.0749C26.5103 66.1437 25.4382 65.3657 24.4844 64.4691C20.0683 60.3176 16.1096 56.2647 11.4731 52.7264C12.0232 52.1388 11.7811 52.5267 12.4405 52.024C15.6476 49.5795 19.0471 47.1445 22.5273 45.0883C25.093 43.5725 27.8042 42.3498 30.4288 40.9475L34.279 38.687C37.8731 36.7333 42.1445 34.9422 46.1181 33.9973C49.9828 33.0783 54.2009 32.7714 57.6713 35.0911C59.8682 36.5596 61.2795 39.3309 62.0699 41.775C63.5917 46.4808 64.0671 51.3984 64.6035 56.2929L66.2073 68.3513L68.0957 78.9559C68.668 81.4537 69.4865 83.8666 69.8821 86.4041C70.1155 87.902 70.3959 89.4524 70.4894 90.9648C70.5897 92.5848 70.5585 94.2193 70.94 95.806L71.0041 96.0522C71.4381 101.938 69.1229 108.334 65.3094 112.795C63.8456 114.507 61.8539 116.678 59.9497 117.89Z" fill="#C6A37D"/>
</g>
<defs>
<clipPath id="clip0_397_1081">
<rect width="71.0566" height="118.39" fill="white"/>
</clipPath>
</defs>
</svg>
