<svg width="32" height="33" viewBox="0 0 32 33" fill="none" xmlns="http://www.w3.org/2000/svg">
<g clip-path="url(#clip0_397_1108)">
<path d="M15.1961 0.0694478L15.4206 0.037019C18.9955 -0.275795 22.6153 1.43465 25.3179 3.62563C28.4043 6.12813 30.7621 10.5562 31.077 14.5408C31.4099 18.7495 30.285 23.2484 27.4884 26.4922C24.4969 29.9621 20.56 32.0276 15.9847 32.323C12.2937 32.2039 9.44894 31.376 6.45992 29.2004C3.23064 26.8494 0.783188 23.2936 0.187434 19.2979C-0.445021 15.0598 0.51731 9.95316 3.1662 6.49515C6.25379 2.46527 10.3012 0.715133 15.1961 0.0694478Z" fill="black"/>
<path d="M6.29091 5.56268C7.01512 5.47605 7.82041 5.42698 8.54035 5.54647C9.51336 5.70821 10.3297 6.26725 10.8811 7.07553C11.3928 7.82535 11.7163 8.96694 11.5029 9.86014C11.1214 11.4558 10.104 12.381 8.74776 13.1982C8.10762 13.325 7.45296 13.4786 6.80044 13.3643C5.74294 13.179 4.91802 12.5257 4.32867 11.6444C3.69664 10.6996 3.24854 9.67535 3.55751 8.52225C3.90831 7.21424 5.18987 6.21989 6.29091 5.56268Z" fill="#FEF7E1"/>
</g>
<defs>
<clipPath id="clip0_397_1108">
<rect width="31.1337" height="32.323" fill="white"/>
</clipPath>
</defs>
</svg>
