<svg width="65" height="137" viewBox="0 0 65 137" fill="none" xmlns="http://www.w3.org/2000/svg">
<g clip-path="url(#clip0_397_1133)">
<path d="M6.10263 89.3567C6.7688 88.7396 7.27963 88.4955 8.1404 88.2309L8.47626 88.1242C12.8561 86.8072 17.9857 89.5299 22.086 90.8319C24.4477 91.5818 27.0355 92.2676 29.4783 92.6935C33.0409 93.3148 36.5633 93.1151 40.1473 92.9235C43.0006 92.7707 45.7634 92.9047 48.2864 91.3193L48.5326 91.167C48.1135 95.5395 47.7691 99.7717 47.9667 104.176C48.376 113.284 50.838 122.699 54.5828 131.004C55.4269 132.875 56.5557 134.631 57.3763 136.517C49.9947 137.17 43.324 135.781 36.8399 132.169C21.0042 123.346 11.0381 106.356 6.10263 89.3567Z" fill="#EBD4A2"/>
<path d="M6.10264 89.3567C0.189906 70.2486 0.36573 49.3443 0.139122 29.5197L0 -3.05176e-05C2.49525 2.7436 5.98528 4.99433 8.89321 7.29882L29.0392 23.1516L52.3807 41.3567L59.3509 46.8661C60.9312 48.1174 62.4876 49.4523 64.2595 50.4261L64.5011 50.5563C62.835 53.5799 60.519 56.3645 58.5845 59.228C57.008 61.5611 55.7542 64.3384 54.5431 66.8832C53.7395 68.5706 52.7652 70.3549 52.2945 72.1665C50.704 78.3916 48.6351 84.6764 48.5326 91.167L48.2864 91.3194C45.7634 92.9048 43.0006 92.7708 40.1473 92.9235C36.5633 93.1151 33.0409 93.3149 29.4783 92.6935C27.0355 92.2676 24.4477 91.5818 22.086 90.832C17.9857 89.53 12.8561 86.8072 8.47627 88.1242L8.14041 88.2309C7.27964 88.4955 6.76881 88.7396 6.10264 89.3567Z" fill="#FEF7E1"/>
</g>
<defs>
<clipPath id="clip0_397_1133">
<rect width="64.5011" height="136.673" fill="white"/>
</clipPath>
</defs>
</svg>
