<?xml version="1.0" encoding="UTF-8" standalone="no"?>
<!-- Created with Inkscape (http://www.inkscape.org/) -->

<svg
   width="65.121941mm"
   height="13.484093mm"
   viewBox="0 0 65.121941 13.484093"
   version="1.1"
   id="svg1"
   xmlns="http://www.w3.org/2000/svg"
   xmlns:svg="http://www.w3.org/2000/svg">
  <defs
     id="defs1" />
  <g
     id="g37"
     transform="matrix(0.67211681,0,0,0.9092301,-37.079643,-78.836967)">
    <path
       style="fill:#e9a07f;fill-opacity:1;stroke:none;stroke-width:1.9558;stroke-opacity:1"
       d="m 55.168442,86.70739 h 96.890808 l -3.95472,1.483021 3.95472,1.186418 -3.46038,1.087552 3.26265,1.384154 -3.26265,1.285285 3.26265,1.087551 -3.16378,1.680758 3.26265,1.186418 -2.76831,1.186418 2.66944,0.988682 -2.47171,1.186423 2.57058,1.08755 -96.693081,-0.0989 3.559254,-1.28529 -3.361518,-1.58189 3.460388,-1.087551 -3.460388,-1.384155 3.064915,-1.186418 -3.262651,-1.087548 3.361518,-1.186419 -3.163782,-1.878496 2.867179,-0.790946 -3.064915,-1.285285 3.262651,-0.889815 z"
       id="path26" />
    <path
       d="m 61.37143,88.363157 a 5.5578732,5.6277838 0 0 1 0.212906,-0.816488 h -2.905249 z"
       style="fill:#f4c988;stroke-width:1.75098"
       id="path27" />
    <path
       d="m 61.301666,90.255031 a 5.5578732,5.6277838 0 0 1 -0.113171,-0.722953 5.5578732,5.6277838 0 0 1 0.144694,-0.926559 l -2.562634,0.654741 z"
       style="fill:#f4c988;stroke-width:1.75098"
       id="path28" />
    <path
       d="m 107.97995,87.546669 a 6.9910355,6.5016632 0 0 1 -6.94272,6.215125 6.9910355,6.5016632 0 0 1 -6.942216,-6.215125 H 71.945978 a 5.5578732,5.6277838 0 0 1 0.358118,1.985409 5.5578732,5.6277838 0 0 1 -5.557801,5.62808 5.5578732,5.6277838 0 0 1 -5.415173,-4.714958 l -2.377633,0.614433 2.92592,1.628325 -3.108854,1.027844 3.017387,0.942578 -2.834453,1.028361 3.200322,1.199927 -3.200322,0.942061 3.108854,1.370976 -3.291788,1.114145 9.230961,0.009 a 5.138411,4.2295766 0 0 1 -0.03152,-0.16381 5.138411,4.2295766 0 0 1 5.138188,-4.229717 5.138411,4.2295766 0 0 1 5.138704,4.229717 5.138411,4.2295766 0 0 1 -0.03359,0.17363 l 7.735962,0.007 a 5.2432771,4.2994871 0 0 1 -1.550293,-2.977599 5.2432771,4.2994871 0 0 1 5.24309,-4.299479 5.2432771,4.2994871 0 0 1 5.243091,4.299479 5.2432771,4.2994871 0 0 1 -1.559078,2.984829 l 2.633431,0.003 a 7.6901393,6.3618426 0 0 1 7.245039,-4.350643 7.6901393,6.3618426 0 0 1 7.29412,4.364593 l 12.11296,0.0119 a 4.9985905,6.1521115 0 0 1 4.88704,-5.284945 4.9985905,6.1521115 0 0 1 4.94388,5.294255 l 15.75253,0.015 -2.37712,-0.942577 2.28565,-1.028361 -2.46858,-0.856795 2.56005,-1.028361 -3.01739,-1.027844 2.92592,-1.456759 -3.01738,-0.942578 3.01738,-1.114144 -3.01738,-1.19941 3.20032,-0.942578 -3.65714,-1.028361 3.65714,-1.285193 h -5.97276 a 6.5016632,6.2569766 0 0 1 0.39015,2.125452 6.5016632,6.2569766 0 0 1 -6.50141,6.256982 6.5016632,6.2569766 0 0 1 -6.50193,-6.256982 6.5016632,6.2569766 0 0 1 0.41961,-2.125452 h -5.94847 a 3.6003833,2.6565933 0 0 1 0.006,0.06305 3.6003833,2.6565933 0 0 1 -3.60081,2.656685 3.6003833,2.6565933 0 0 1 -3.6003,-2.656685 3.6003833,2.6565933 0 0 1 0.017,-0.06305 z"
       style="fill:#f4c988;stroke-width:1.75098"
       id="path29" />
    <path
       d="m 61.331122,90.4452 a 5.5578732,5.6277838 0 0 0 5.415173,4.714958 5.5578732,5.6277838 0 0 0 5.557801,-5.62808 5.5578732,5.6277838 0 0 0 -0.358118,-1.985409 H 61.584336 a 5.5578732,5.6277838 0 0 0 -0.212906,0.816488 l 0.416512,0.12609 -0.454753,0.116272 a 5.5578732,5.6277838 0 0 0 -0.144694,0.926559 5.5578732,5.6277838 0 0 0 0.113171,0.722953 l 0.303341,0.119373 z"
       style="fill:#e9a07f;stroke-width:1.9558"
       id="path30" />
    <path
       d="m 110.49866,100.36346 a 7.6901393,6.3618426 0 0 0 -7.29412,-4.364593 7.6901393,6.3618426 0 0 0 -7.245041,4.350643 z"
       style="fill:#e9a07f;stroke-width:1.9558"
       id="path31" />
    <ellipse
       style="fill:#e9a07f;fill-opacity:1;stroke:none;stroke-width:1.9558;stroke-opacity:1"
       id="ellipse31"
       cx="113.58634"
       cy="90.650833"
       rx="2.551728"
       ry="2.132266" />
    <path
       d="m 93.326068,100.34692 a 5.2432771,4.2994871 0 0 0 1.559078,-2.984829 5.2432771,4.2994871 0 0 0 -5.243091,-4.299479 5.2432771,4.2994871 0 0 0 -5.24309,4.299479 5.2432771,4.2994871 0 0 0 1.550293,2.977599 z"
       style="fill:#e9a07f;stroke-width:1.9558"
       id="path32" />
    <path
       d="m 130.1202,87.546669 a 6.5016632,6.2569766 0 0 0 -0.41961,2.125452 6.5016632,6.2569766 0 0 0 6.50193,6.256982 6.5016632,6.2569766 0 0 0 6.50141,-6.256982 6.5016632,6.2569766 0 0 0 -0.39015,-2.125452 z"
       style="fill:#e9a07f;stroke-width:1.9558"
       id="path33" />
    <path
       d="m 132.44254,100.38465 a 4.9985905,6.1521115 0 0 0 -4.94388,-5.294255 4.9985905,6.1521115 0 0 0 -4.88704,5.284945 z"
       style="fill:#e9a07f;stroke-width:1.9558"
       id="path34" />
    <path
       d="M 107.97995,87.546669 H 94.095014 a 6.9910355,6.5016632 0 0 0 6.942216,6.215125 6.9910355,6.5016632 0 0 0 6.94272,-6.215125 z"
       style="fill:#e9a07f;stroke-width:1.9558"
       id="path35" />
    <ellipse
       style="fill:#e9a07f;fill-opacity:1;stroke:none;stroke-width:1.9558;stroke-opacity:1"
       id="ellipse35"
       cx="117.32654"
       cy="96.348526"
       rx="2.3070419"
       ry="2.0973108" />
    <path
       d="m 116.99387,87.546669 a 3.6003833,2.6565933 0 0 0 -0.017,0.06305 3.6003833,2.6565933 0 0 0 3.6003,2.656685 3.6003833,2.6565933 0 0 0 3.60081,-2.656685 3.6003833,2.6565933 0 0 0 -0.006,-0.06305 z"
       style="fill:#e9a07f;stroke-width:1.9558"
       id="path36" />
    <ellipse
       style="fill:#e9a07f;fill-opacity:1;stroke:none;stroke-width:1.9558;stroke-opacity:1"
       id="ellipse36"
       cx="79.470085"
       cy="92.11895"
       rx="4.5791283"
       ry="3.8800247" />
    <path
       d="m 78.213296,100.33245 a 5.138411,4.2295766 0 0 0 0.03359,-0.17363 5.138411,4.2295766 0 0 0 -5.138704,-4.229717 5.138411,4.2295766 0 0 0 -5.138188,4.229717 5.138411,4.2295766 0 0 0 0.03152,0.16381 z"
       style="fill:#e9a07f;stroke-width:1.9558"
       id="path37" />
  </g>
</svg>
