<svg width="260" height="260" viewBox="0 0 260 260" fill="none" xmlns="http://www.w3.org/2000/svg">
<path d="M164.899 239.2C166.179 239.433 167.441 239.608 168.743 239.662C169.544 239.696 170.36 239.68 171.161 239.637C171.603 239.613 172.194 239.49 172.611 239.624L172.72 239.55C173.034 239.369 173.426 239.295 173.774 239.199L173.355 239.826L172.922 239.838C173.009 240.604 173.735 241.622 174.058 242.354C174.379 243.083 174.583 243.889 174.986 244.577C175.203 244.947 175.477 245.257 175.813 245.524C176.463 246.041 177.157 246.521 177.953 246.783C179.659 247.345 181.593 247.318 183.37 247.313L191.566 247.064C192.479 247.049 193.604 246.918 194.497 247.078C195.092 247.184 195.458 247.405 195.889 247.815C195.991 247.612 196.001 247.546 196.029 247.329C196.093 246.848 196.219 246.416 196.402 245.967C196.569 247.361 196.596 248.369 195.69 249.54C193.817 251.959 188.97 252.658 186.123 252.955C183.266 253.253 179.212 252.815 176.909 250.96C176.479 250.613 176.093 250.185 175.756 249.749C175.625 249.579 175.375 249.13 175.221 249.019C175.05 248.895 173.646 248.87 173.346 248.851C171.86 248.761 170.358 248.824 168.869 248.808C167.714 248.796 166.502 248.686 165.357 248.743C165.173 248.752 165.014 248.788 164.836 248.828L164.899 239.2Z" fill="#EBD4A2"/>
<path d="M173.774 239.199C174.061 239.179 174.52 238.93 174.797 238.825L177.475 237.752C180.232 236.67 184.112 236.455 187.04 236.834L187.256 236.864C189.227 237.127 190.827 237.68 192.407 238.898C193.563 240.334 194.415 241.772 195.324 243.372C195.693 244.022 196.135 244.669 196.431 245.354L196.402 245.967C196.219 246.416 196.093 246.848 196.029 247.329C196.001 247.546 195.991 247.612 195.889 247.815C195.458 247.405 195.092 247.184 194.497 247.078C193.604 246.918 192.479 247.049 191.566 247.064L183.37 247.313C181.593 247.319 179.659 247.345 177.953 246.783C177.157 246.521 176.463 246.041 175.813 245.524C175.477 245.258 175.203 244.948 174.986 244.577C174.583 243.889 174.379 243.083 174.058 242.354C173.735 241.622 173.009 240.604 172.922 239.838L173.355 239.826L173.774 239.199Z" fill="#FEF7E1"/>
<path d="M31.605 205.705C32.0013 205.338 32.3052 205.193 32.8174 205.035L33.0172 204.972C35.623 204.188 38.675 205.808 41.1145 206.583C42.5196 207.029 44.0593 207.437 45.5127 207.69C47.6323 208.06 49.728 207.941 51.8604 207.827C53.558 207.736 55.2018 207.816 56.7029 206.873L56.8494 206.782C56.6 209.384 56.3951 211.902 56.5127 214.522C56.7562 219.941 58.221 225.543 60.449 230.484C60.9512 231.597 61.6228 232.641 62.1111 233.764C57.7192 234.152 53.7504 233.326 49.8926 231.177C40.4709 225.928 34.5414 215.819 31.605 205.705Z" fill="#EBD4A2"/>
<path d="M31.605 205.705C28.0871 194.336 28.1917 181.899 28.0569 170.104L27.9741 152.541C29.4587 154.173 31.5352 155.512 33.2653 156.883L45.2514 166.315L59.1388 177.147L63.2859 180.425C64.2261 181.169 65.1521 181.963 66.2063 182.543L66.35 182.62C65.3588 184.419 63.9808 186.076 62.8299 187.78C61.8919 189.168 61.146 190.82 60.4254 192.334C59.9473 193.338 59.3676 194.4 59.0876 195.477C58.1412 199.181 56.9103 202.92 56.8494 206.782L56.7029 206.873C55.2018 207.816 53.558 207.736 51.8604 207.827C49.7281 207.941 47.6323 208.06 45.5127 207.69C44.0593 207.437 42.5197 207.029 41.1145 206.583C38.675 205.808 35.623 204.188 33.0172 204.972L32.8174 205.035C32.3053 205.193 32.0013 205.338 31.605 205.705Z" fill="#FEF7E1"/>
<path d="M94.2132 239.328L94.2988 248.839C93.0173 248.789 85.5052 248.57 84.8367 248.888C84.5079 249.045 84.1263 249.648 83.8784 249.939C83.2241 250.706 82.6424 251.338 81.7294 251.815L81.5341 251.914C80.8613 252.261 80.1714 252.406 79.4394 252.573C76.5588 253.231 73.2416 253.076 70.3661 252.481C68.1822 252.03 65.1531 251.244 63.8874 249.231L63.794 249.075C63.3973 248.429 63.4494 247.789 63.4563 247.057L68.4277 247.052L71.8555 247.272L80.012 247.117C81.0776 247.076 82.8052 247.282 83.6634 246.636L83.7891 246.537C84.7364 245.811 84.8029 244.914 85.1272 243.843C85.3613 243.07 85.6614 242.354 85.85 241.561C85.9727 241.046 86.0509 240.262 86.3248 239.812L86.4198 239.667C86.691 239.837 87.1742 239.808 87.4961 239.829L90.3906 239.985C91.3834 240.01 93.5205 239.992 94.2132 239.328Z" fill="#EBD4A2"/>
<path d="M66.6357 239.852C67.6041 238.886 68.6966 237.857 69.9504 237.274C73.5277 235.609 78.9204 236.293 82.5195 237.533C83.4996 237.871 84.403 238.386 85.3201 238.864C85.7762 239.102 86.1852 239.201 86.4198 239.667L86.3248 239.812C86.0509 240.262 85.9727 241.046 85.85 241.561C85.6614 242.354 85.3613 243.07 85.1272 243.843C84.8029 244.914 84.7364 245.811 83.7891 246.537L83.6634 246.636C82.8052 247.282 81.0776 247.076 80.012 247.117L71.8555 247.272L68.4277 247.052L63.4563 247.057L63.5431 246.136C63.8828 245.371 64.0748 244.539 64.4043 243.766C64.9929 242.386 65.7429 241.054 66.6357 239.852Z" fill="#FEF7E1"/>
<path d="M140.038 241.201C141.512 241.243 142.778 241.335 144.206 240.871C144.999 243.538 145.23 246.31 145.484 249.066L123.985 248.96L117.896 248.947C117.224 248.944 116.564 248.724 115.908 248.731C115.454 248.736 114.972 248.861 114.532 248.966C114.833 246.238 115.186 243.609 116 240.978L140.038 241.201Z" fill="#C6A37D"/>
<path d="M144.107 239.835C145.463 239.779 146.792 239.525 148.136 239.378L153.411 239.027C157.272 238.803 161.045 239.006 164.899 239.2L164.836 248.828C164.771 251.098 164.555 253.418 164.816 255.679C163.53 255.897 162.24 255.729 160.95 255.826L145.988 255.798C145.746 255.295 145.881 254.239 145.847 253.633L145.484 249.066C145.23 246.31 144.999 243.538 144.206 240.871C144.115 240.531 144.12 240.184 144.107 239.835Z" fill="#FEF7E1"/>
<path d="M187.263 174.039V175.038C187.383 175.639 187.464 176.126 187.827 176.635L191.199 181.162C194.927 186.488 197.894 192.257 199.841 198.461C200.512 201.23 201.189 204.014 201.531 206.848C202.646 216.097 200.828 226.237 195.942 234.235C194.969 235.827 193.836 237.685 192.407 238.898C190.827 237.68 189.227 237.127 187.256 236.864L187.04 236.834C184.112 236.455 180.232 236.67 177.475 237.752L174.798 238.825C174.52 238.93 174.061 239.179 173.774 239.199C173.426 239.295 173.034 239.369 172.72 239.55L172.611 239.624C172.194 239.49 171.603 239.613 171.161 239.637C170.36 239.68 169.544 239.696 168.743 239.662C167.441 239.608 166.179 239.433 164.899 239.2C164.816 238.154 164.93 237.175 164.993 236.133C165.25 231.927 166.408 227.872 167.863 223.932C168.154 223.145 168.356 222.3 168.676 221.529C168.962 220.84 169.497 220.276 169.782 219.572L171.745 214.487L174.138 209.056C174.428 208.341 174.628 207.592 174.937 206.883L177.417 201.718L180.888 193.05L184.977 181.282C185.396 180.014 185.648 178.661 186.158 177.426C186.248 177.207 186.316 177.092 186.295 176.846C186.237 176.148 186.854 174.644 187.263 174.039Z" fill="#C6A37D"/>
<path d="M187.263 175.038C187.383 175.639 187.464 176.126 187.827 176.635L191.199 181.162C194.927 186.488 197.894 192.257 199.841 198.461C198.355 200.193 196.654 201.882 194.859 203.3L190.526 206.964L187.55 209.243L183.145 212.953L179.453 215.812C178.821 216.351 178.339 217.025 177.715 217.566C177.892 217.21 178.063 216.857 178.285 216.527C179.252 215.089 179.549 212.684 180.024 210.985L184.824 191.823C185.383 189.374 186.092 186.95 186.511 184.47C187.039 181.348 187.182 178.192 187.263 175.038Z" fill="#EBD4A2"/>
<path d="M73.304 174.604C73.5914 175.349 73.7021 176.168 73.8903 176.944L74.6551 179.639L79.3678 196.025L80.47 198.999C81.4349 201.956 82.2151 205.031 83.375 207.922L87.9869 219.085C90.2449 224.293 92.8751 229.795 93.9334 235.403C94.1738 236.678 94.1622 238.031 94.2132 239.328C93.5205 239.992 91.3834 240.01 90.3906 239.985L87.4961 239.829C87.1742 239.808 86.691 239.837 86.4198 239.667C86.1852 239.201 85.7762 239.102 85.3201 238.864C84.403 238.386 83.4996 237.871 82.5195 237.533C78.9204 236.293 73.5277 235.609 69.9504 237.274C68.6966 237.857 67.6041 238.886 66.6357 239.852C64.8553 238.159 63.4611 235.806 62.1111 233.764C61.6228 232.641 60.9512 231.597 60.449 230.483C58.221 225.543 56.7562 219.941 56.5127 214.522C56.3951 211.902 56.6 209.384 56.8494 206.782C56.9103 202.92 58.1412 199.181 59.0875 195.477C59.3676 194.4 59.9473 193.338 60.4254 192.334C61.146 190.82 61.8919 189.168 62.8299 187.779C63.9808 186.076 65.3588 184.419 66.35 182.62C67.6978 180.622 69.3129 179.076 70.9341 177.321C71.691 176.501 72.1482 175.499 73.2037 175.034L73.304 174.604Z" fill="#C6A37D"/>
<path d="M73.2037 175.034C72.9323 182.933 74.7734 190.788 76.5527 198.428C76.9168 199.991 77.1152 201.597 77.5239 203.151C77.8337 204.329 78.3448 205.454 78.7089 206.617C79.5844 209.415 80.3532 212.211 81.4359 214.944C82.2595 217.025 82.9395 219.115 83.8754 221.156L84.8745 223.308C84.9687 223.51 85.1406 223.753 85.1259 223.977L81.6784 224.742L73.6133 226.738C73.1311 226.848 72.1576 227.21 71.7245 227.128C71.3114 225.493 70.6263 223.982 70.0342 222.408L66.0334 212.207L61.3168 200.903C60.5742 199.104 59.9638 197.218 59.0875 195.477C59.3676 194.4 59.9473 193.338 60.4254 192.334C61.146 190.82 61.8919 189.168 62.8299 187.779C63.9808 186.076 65.3588 184.419 66.35 182.62C67.6978 180.622 69.3129 179.076 70.9341 177.321C71.6909 176.501 72.1482 175.499 73.2037 175.034Z" fill="#EBD4A2"/>
<path d="M182.935 147.358C185.095 154.681 186.573 162.236 187.053 169.863C187.136 171.19 187.398 172.716 187.263 174.039C186.854 174.644 186.237 176.148 186.295 176.846C186.316 177.092 186.248 177.207 186.158 177.426C185.648 178.662 185.396 180.014 184.977 181.282L180.888 193.05L177.417 201.718L174.937 206.883C174.628 207.592 174.428 208.341 174.138 209.056L171.745 214.487L169.782 219.572C169.497 220.276 168.962 220.84 168.676 221.529C168.356 222.3 168.154 223.145 167.863 223.932C166.408 227.872 165.25 231.927 164.993 236.133C164.93 237.175 164.816 238.154 164.899 239.2C161.045 239.006 157.272 238.803 153.411 239.027L148.136 239.378C146.792 239.525 145.463 239.779 144.107 239.835C144.12 240.184 144.115 240.531 144.206 240.871C142.778 241.335 141.512 241.243 140.038 241.201C140.26 240.757 140.009 232.295 140.014 230.864L140.282 224.226C140.318 222.074 140.126 219.79 140.384 217.659L140.433 197.82C140.393 197.266 140.447 196.699 140.426 196.143C140.349 194.093 140.162 192.092 140.393 190.039C140.426 188.997 140.345 187.934 140.085 186.924L140.033 186.725C140.647 185.991 141.491 185.462 142.277 184.932L147.012 182.036L156.406 175.555C158.215 174.259 159.876 172.787 161.584 171.367L167.56 166.33C170.235 163.925 172.497 161.323 174.878 158.642C176.437 156.887 177.923 155.157 179.273 153.233L181.593 149.627C181.981 148.965 182.284 148.066 182.794 147.506L182.935 147.358Z" fill="#EBD4A2"/>
<path d="M82.8958 133.008C84.1095 135.372 86.6275 136.974 88.7824 138.445C92.8198 141.201 96.9887 143.47 101.459 145.45C103.259 146.246 105.177 147.117 107.05 147.711L114.418 150.017C117.352 150.809 120.402 151.378 123.399 151.87C125.025 152.137 126.778 152.461 128.425 152.493C133.864 152.46 139.163 152.041 144.492 150.888C152.857 149.079 160.993 145.478 168.192 140.891C171.565 138.742 174.637 136.196 177.827 133.791C179.271 137.364 180.894 140.869 182.152 144.516C182.437 145.341 182.949 146.487 182.935 147.358L182.794 147.506C182.284 148.066 181.981 148.965 181.593 149.627L179.273 153.233C177.923 155.157 176.437 156.887 174.878 158.642C172.497 161.323 170.235 163.925 167.56 166.33L161.584 171.366C159.876 172.787 158.215 174.259 156.406 175.555L147.012 182.036L142.277 184.932C141.491 185.462 140.647 185.991 140.033 186.725L140.085 186.924C140.345 187.934 140.426 188.997 140.393 190.039C140.162 192.092 140.349 194.093 140.426 196.143C140.447 196.699 140.393 197.266 140.433 197.819L140.384 217.659C140.126 219.789 140.318 222.074 140.282 224.226L140.014 230.864C140.009 232.295 140.26 240.757 140.038 241.201L116 240.978C115.186 243.609 114.833 246.238 114.532 248.966L114.269 253.018C114.236 253.862 114.321 255.016 114.03 255.811L98.6708 255.828C97.6671 255.727 96.5852 255.813 95.5734 255.816C95.1984 255.816 94.8129 255.879 94.478 255.684L94.3445 254.78L94.2988 248.839L94.2132 239.328C94.1622 238.031 94.1739 236.678 93.9334 235.403C92.8751 229.795 90.2449 224.293 87.9869 219.085L83.375 207.922C82.2151 205.031 81.4349 201.956 80.47 198.999L79.3678 196.025L74.6551 179.639L73.8903 176.945C73.7021 176.168 73.5914 175.35 73.304 174.604C73.1057 172.778 73.4086 171.013 73.5793 169.204C73.8679 166.139 74.1297 163.101 74.6584 160.062C75.1385 157.301 75.8502 154.55 76.5479 151.836C76.9382 150.317 77.2482 148.737 77.7078 147.24C77.9718 146.38 78.3446 145.542 78.6597 144.698L78.7216 144.458L81.2904 136.729C81.77 135.452 82.173 134.176 82.8958 133.008Z" fill="#EBD4A2"/>
<path d="M94.2132 239.328C96.1696 238.834 98.262 238.789 100.271 238.787C103.366 238.784 106.418 239.002 109.497 239.312C111.737 239.537 114.061 239.724 116.246 240.269L116 240.978C115.186 243.609 114.833 246.238 114.532 248.966L114.269 253.018C114.236 253.862 114.321 255.016 114.03 255.811L98.6708 255.828C97.6671 255.727 96.5852 255.813 95.5734 255.816C95.1984 255.816 94.8129 255.879 94.478 255.684L94.3445 254.78L94.2988 248.839L94.2132 239.328Z" fill="#FEF7E1"/>
<path d="M82.8958 133.008C84.1095 135.372 86.6275 136.974 88.7824 138.445C92.8198 141.201 96.9886 143.47 101.459 145.45C103.259 146.246 105.177 147.117 107.05 147.711L114.418 150.017C117.352 150.809 120.402 151.378 123.399 151.87C125.025 152.137 126.778 152.461 128.425 152.493L129.429 152.643C129.6 153.294 129.498 154.169 129.498 154.847L129.497 159.661L129.513 176.133L129.584 187.505C129.664 189.412 129.45 191.453 129.748 193.332C129.221 193.855 128.757 194.241 128.096 194.6L127.91 194.702C126.846 195.277 124.681 196.185 123.496 196.148C122.73 196.124 121.901 195.888 121.146 195.753C121.153 195.049 121.256 194.353 121.274 193.672C121.287 193.165 121.19 192.347 121.349 191.889C121.435 191.642 121.446 190.704 121.341 190.47L121.247 187.237C121.244 187.086 121.283 186.44 121.233 186.37C121.143 186.243 120.57 185.944 120.418 185.84L116.273 183.246L112.167 180.507L107.415 177.163C97.3484 170.103 87.4768 161.906 81.0337 151.271C81.214 150.42 80.3903 148.234 79.9602 147.42C79.4717 146.494 78.9791 146.175 78.9758 145.044C78.9748 144.761 78.8724 144.691 78.7216 144.458L81.2904 136.729C81.77 135.452 82.173 134.176 82.8958 133.008Z" fill="#FEF7E1"/>
<path d="M128.425 152.493C133.864 152.46 139.163 152.041 144.492 150.888C152.857 149.079 160.993 145.478 168.192 140.891C171.565 138.742 174.637 136.196 177.827 133.791C179.271 137.364 180.894 140.869 182.152 144.516C182.437 145.341 182.949 146.487 182.935 147.358L182.794 147.506C182.284 148.066 181.981 148.965 181.593 149.627L179.273 153.233C177.923 155.157 176.437 156.887 174.878 158.642C172.497 161.323 170.235 163.925 167.56 166.33L161.584 171.366C159.876 172.787 158.215 174.259 156.406 175.555L147.012 182.036L142.277 184.932C141.491 185.462 140.647 185.991 140.033 186.725L140.085 186.924C140.345 187.934 140.426 188.997 140.393 190.039C140.162 192.092 140.349 194.093 140.426 196.143C140.447 196.699 140.393 197.266 140.433 197.819L140.384 217.659C140.126 219.789 140.318 222.074 140.282 224.226L140.014 230.864C140.009 232.295 140.26 240.757 140.038 241.201L116 240.978L116.246 240.269C116.777 240.007 116.926 238.975 117.28 238.517C117.213 239.29 116.669 240.135 116.206 240.746L116.141 240.83H120.914L120.986 239.116C121.132 238.001 121.239 236.273 121.003 235.18C120.95 234.931 120.949 235.057 120.949 234.812C120.949 234.138 120.875 233.386 120.94 232.725C120.965 232.469 120.913 232.227 120.938 231.971C120.976 231.576 120.921 231.193 121.004 230.801C121.183 229.959 121.306 228.972 121.132 228.118C121.081 227.866 121.076 227.926 121.076 227.695L121.006 221.533C120.956 221.21 120.947 221.377 120.958 221.127C120.986 220.507 121.056 219.693 120.957 219.085L120.924 218.931C121.127 218.503 121.067 218.002 121.067 217.539L121.072 214.645L121.058 202.411C121.053 202.063 120.949 201.74 120.949 201.399L120.955 201.221V200.84C120.965 200.631 120.993 200.443 120.973 200.233C120.89 199.388 121.006 198.567 121.008 197.721C121.01 196.941 120.911 196.158 120.924 195.381C120.928 195.128 121 194.893 120.975 194.639C120.91 193.982 121.186 193.318 121.084 192.693C121.044 192.445 121.036 192.598 121.08 192.33C121.115 192.116 121.123 192.189 121.104 191.993L121.051 191.318C121.227 191.053 121.182 190.884 121.188 190.575L121.341 190.47C121.446 190.704 121.435 191.642 121.349 191.889C121.19 192.347 121.287 193.165 121.274 193.672C121.256 194.353 121.153 195.049 121.146 195.753C121.901 195.888 122.73 196.124 123.496 196.148C124.681 196.185 126.846 195.277 127.91 194.702L128.096 194.6C128.757 194.241 129.221 193.855 129.748 193.332C129.45 191.453 129.664 189.412 129.584 187.505L129.513 176.133L129.497 159.661L129.498 154.847C129.498 154.169 129.6 153.294 129.429 152.643L128.425 152.493Z" fill="url(#paint0_linear_31_8329)"/>
<path d="M70.445 68.1696C69.8407 66.8244 69.5254 65.3339 69.2646 63.8872C68.8525 61.6 69.0737 59.0056 69.0798 56.6846L69.1844 42.4943L69.0869 26.06C69.1141 23.9403 69.0651 21.7508 69.2862 19.642C69.6551 16.1251 70.3937 12.5946 72.0259 9.43627C72.8241 7.89153 74.3859 5.99104 76.1112 5.46733L76.2755 5.41924C77.3906 5.06908 78.4177 5.1128 79.4767 5.63227C81.6324 6.68979 83.4268 8.73856 85.2719 10.2543L96.0071 19.1968L105.652 27.2706C107.208 28.4916 108.625 30.0376 110.325 31.0479C110.457 31.1264 110.662 31.2864 110.803 31.3209C110.925 31.3506 111.257 31.2874 111.386 31.278L113.408 31.1297C114.469 31.0693 115.557 31.1117 116.621 31.1104L136.482 31.1269L142.875 31.1201C145.02 31.1162 147.003 31.0982 149.117 31.5276L178.845 6.49235C179.864 5.78758 181.78 5.0394 183.022 5.27406L183.193 5.30877C184.318 5.51847 185.091 5.93419 185.905 6.73333C188.786 9.56002 190.096 14.7225 190.7 18.5985C190.955 20.2377 190.944 21.9555 190.978 23.6109L190.968 34.0603L191.074 55.5697L191.338 62.3774C191.596 65.8791 190.219 69.6849 187.95 72.339C187.079 73.3576 185.894 74.649 184.761 75.3703C185.495 77.6103 186.007 79.8772 186.575 82.1598C187.126 84.3734 187.727 86.7162 188.015 88.98C188.396 91.9718 188.515 94.9227 188.702 97.9259C189.136 99.4521 189.207 101.064 189.386 102.634C190.026 108.256 190.039 113.265 187.21 118.307C186.594 119.404 185.701 120.257 185.077 121.313C184.611 122.101 183.808 122.792 183.138 123.413C180.648 125.722 177.814 127.706 174.789 129.254C175.244 130.064 175.724 130.833 176.279 131.581C176.8 132.285 177.556 132.943 177.827 133.791C174.637 136.196 171.565 138.742 168.192 140.891C160.993 145.478 152.857 149.079 144.492 150.888C139.163 152.041 133.864 152.46 128.425 152.493C126.778 152.461 125.025 152.137 123.399 151.87C120.402 151.378 117.352 150.809 114.418 150.017L107.05 147.711C105.177 147.117 103.259 146.246 101.459 145.45C96.9887 143.47 92.8198 141.201 88.7824 138.445C86.6275 136.974 84.1095 135.372 82.8958 133.008C83.5385 131.972 84.5853 130.281 85.5796 129.59C84.8961 128.652 83.8388 128.283 82.9052 127.679L80.1003 125.735C78.7754 124.774 77.3107 123.33 76.3115 122.051C72.8175 117.578 71.3759 111.887 71.4736 106.255C71.5285 103.107 72.0721 99.8507 72.4646 96.7249L75.7237 76.1483C74.5515 75.4993 73.48 74.8699 72.703 73.7403L72.5733 73.5486C71.4119 71.8512 70.8444 70.1673 70.445 68.1696Z" fill="#EBD4A2"/>
<path d="M72.4646 96.7249L72.6238 96.9232C73.8263 98.4433 74.832 100.047 76.1693 101.482C79.4237 104.973 85.0848 108.111 89.8379 108.749C92.1441 109.058 94.8106 108.994 97.079 108.467C99.2832 107.955 101.331 106.994 103.361 106.039C106.448 104.587 109.514 102.904 112.197 100.768L116.31 97.1441C117.772 95.7448 119.276 94.248 121.015 93.1961C122.367 92.3785 124.064 91.7767 125.577 91.3382C129.713 90.139 134.431 90.8947 138.159 92.9312C140.909 94.4336 142.593 96.7459 144.916 98.7119C149.222 102.356 154.013 105.344 159.227 107.487C161.27 108.327 163.404 109.151 165.635 109.291C168.253 109.456 171.369 108.706 173.882 108.003C178.103 106.823 182.322 105.244 185.789 102.519C187.15 101.449 188.33 99.5894 188.702 97.9258C189.136 99.4521 189.207 101.064 189.386 102.634C190.026 108.256 190.039 113.265 187.21 118.307C186.594 119.404 185.701 120.257 185.077 121.313C184.611 122.101 183.808 122.792 183.138 123.413C180.648 125.722 177.814 127.706 174.789 129.254C175.244 130.064 175.724 130.833 176.279 131.581C176.8 132.285 177.556 132.943 177.827 133.791C174.637 136.196 171.565 138.742 168.192 140.891C160.993 145.478 152.857 149.079 144.492 150.888C139.163 152.041 133.864 152.46 128.425 152.493C126.778 152.461 125.025 152.137 123.399 151.87C120.402 151.378 117.352 150.809 114.418 150.017L107.05 147.711C105.177 147.117 103.259 146.246 101.459 145.449C96.9887 143.47 92.8198 141.201 88.7824 138.445C86.6275 136.974 84.1095 135.372 82.8958 133.008C83.5385 131.972 84.5853 130.281 85.5796 129.59C84.8961 128.652 83.8388 128.283 82.9052 127.679L80.1003 125.735C78.7754 124.774 77.3107 123.33 76.3115 122.051C72.8175 117.578 71.3758 111.887 71.4736 106.255C71.5284 103.107 72.0721 99.8507 72.4646 96.7249Z" fill="#FEF7E1"/>
<path d="M174.789 129.254C175.244 130.064 175.724 130.833 176.279 131.581C176.8 132.285 177.556 132.943 177.827 133.791C174.637 136.196 171.565 138.742 168.192 140.891C160.993 145.478 152.857 149.079 144.492 150.888C139.163 152.041 133.864 152.46 128.425 152.493C126.778 152.461 125.025 152.137 123.399 151.87C120.402 151.378 117.352 150.809 114.418 150.017L107.05 147.711C105.177 147.117 103.259 146.246 101.459 145.45C96.9887 143.47 92.8198 141.201 88.7824 138.445C86.6275 136.974 84.1095 135.372 82.8958 133.008C83.5385 131.972 84.5853 130.281 85.5796 129.59C85.9635 129.612 86.3632 129.621 86.7237 129.768C87.9689 130.274 89.115 131.073 90.3498 131.622C93.1102 132.847 96.1173 133.782 98.9999 134.672C109.201 137.821 119.674 139.005 130.321 139.022C136.447 139.032 142.548 138.692 148.593 137.681C150.955 137.286 153.367 136.964 155.7 136.413C158.675 135.709 161.689 134.708 164.545 133.645C165.346 133.347 166.19 133.16 166.98 132.84C169.635 131.764 172.252 130.583 174.789 129.254Z" fill="#EBD4A2"/>
<path d="M101.935 76.3421C104.065 76.1742 106.316 76.8991 108.009 78.1654C110.05 79.6929 111.236 82.2124 111.595 84.6844C111.925 86.9513 111.54 89.4023 110.119 91.2581C108.301 93.6311 106.103 95.0217 103.109 95.4252C102.314 95.4864 101.35 95.3538 100.567 95.1997C98.3519 94.7645 96.2208 93.0362 94.9884 91.1867C93.7069 89.2631 92.8942 86.6276 93.388 84.3051C93.6475 83.0833 93.9679 81.6637 94.7246 80.6514C96.6573 78.0656 98.7421 76.7958 101.935 76.3421Z" fill="black"/>
<path d="M97.9771 79.5361C98.3031 79.4755 98.6682 79.5224 98.975 79.6489C99.6209 79.9152 100.168 80.4616 100.405 81.1198C100.63 81.7459 100.56 82.4251 100.258 83.0142C99.8634 83.785 99.2675 84.0719 98.4674 84.2982C98.0926 84.2527 97.7095 84.2096 97.3594 84.0605C96.7964 83.8206 96.2584 83.262 96.0497 82.6841C95.8461 82.1196 95.904 81.5212 96.1952 81.0004C96.6002 80.2763 97.1864 79.7766 97.9771 79.5361Z" fill="#FEF7E1"/>
<path d="M158.145 76.3479L158.278 76.3286C160.405 76.1425 162.559 77.1601 164.167 78.4637C166.003 79.9526 167.406 82.5871 167.593 84.9579C167.791 87.4619 167.122 90.1386 165.458 92.0685C163.678 94.133 161.336 95.3619 158.614 95.5376C156.418 95.4668 154.725 94.9742 152.947 93.6798C151.026 92.281 149.569 90.1655 149.215 87.7882C148.839 85.2666 149.411 82.2284 150.987 80.171C152.824 77.7733 155.232 76.7321 158.145 76.3479Z" fill="black"/>
<path d="M152.846 79.6161C153.277 79.5646 153.756 79.5354 154.185 79.6065C154.764 79.7027 155.249 80.0353 155.577 80.5162C155.882 80.9623 156.074 81.6416 155.947 82.173C155.72 83.1223 155.115 83.6728 154.308 84.159C153.927 84.2344 153.538 84.3258 153.149 84.2578C152.52 84.1476 152.029 83.7589 151.679 83.2346C151.303 82.6724 151.036 82.063 151.22 81.377C151.429 80.5988 152.191 80.0072 152.846 79.6161Z" fill="#FEF7E1"/>
<path d="M70.445 68.1695C70.4455 63.5515 71.254 58.9946 71.6422 54.4048L72.3244 43.9537C72.5085 40.8736 72.6738 37.8331 73.0935 34.7715C73.3705 32.7499 73.7621 30.4342 74.8016 28.6384C75.8619 26.8064 77.5481 25.2062 79.6535 24.7429C80.2852 24.6039 81.1815 24.5478 81.8198 24.6711C82.5284 24.808 83.2257 25.1532 83.8891 25.4277C85.2833 26.0041 86.7532 26.5205 88.0179 27.3592L90.282 28.7288C92.5694 29.7218 94.7596 31.1327 96.8541 32.4805L100.057 34.4432L104.457 37.5403C102.104 38.8121 99.7641 40.2094 97.7494 41.9847C96.8658 42.7634 96.0751 43.6998 95.258 44.5502C90.7276 49.2647 87.1414 54.6671 83.6652 60.1758L81.0723 64.1266L77.1545 70.7683C76.7155 72.5268 75.953 74.3606 75.7237 76.1483C74.5515 75.4993 73.48 74.8699 72.703 73.7403L72.5733 73.5486C71.4119 71.8512 70.8444 70.1673 70.445 68.1695Z" fill="#C6A37D"/>
<path d="M184.761 75.3704C183.682 73.0243 182.807 70.537 181.659 68.2374C177.384 59.6739 172.153 51.9622 165.413 45.137C164.866 44.5829 164.228 44.1201 163.661 43.5866C161.033 41.1166 158.338 38.837 155.217 37.0094C155.544 36.6598 156.103 36.4813 156.495 36.1822C158.403 34.7278 160.426 33.279 162.496 32.0557C164.023 31.1538 165.636 30.4264 167.197 29.592L169.488 28.2471C171.626 27.0847 174.168 26.0191 176.532 25.4569C178.831 24.9101 181.341 24.7276 183.406 26.1077C184.713 26.9814 185.552 28.6303 186.023 30.0844C186.928 32.8842 187.211 35.81 187.53 38.722L188.484 45.8964L189.608 52.2057C189.948 53.6918 190.435 55.1274 190.671 56.6371C190.81 57.5284 190.976 58.4508 191.032 59.3506C191.092 60.3145 191.073 61.2869 191.3 62.231L191.338 62.3775C191.596 65.8791 190.219 69.6849 187.95 72.339C187.079 73.3576 185.894 74.649 184.761 75.3704Z" fill="#C6A37D"/>
<path d="M130.089 113.727L130.895 114.275C131.734 114.834 139.775 119.747 140.141 119.749C140.804 119.752 142.349 118.874 143.031 118.582L148.088 116.514C149.197 116.069 150.347 115.525 151.519 115.29L151.715 115.464C151.628 115.847 151.422 116.054 151.145 116.317C150.133 117.276 148.721 118.075 147.557 118.842L142.144 122.381C139.849 123.853 137.562 125.738 135.026 126.763C133.246 127.482 131.496 127.749 129.588 127.643C127.74 127.505 126.021 126.978 124.351 126.187C122.964 125.531 121.874 124.582 120.596 123.766L111.846 118.078C110.311 116.997 108.787 115.977 107.544 114.547L108.228 114.731C109.459 115.061 110.63 115.607 111.808 116.091L116.135 117.915C117.468 118.529 118.772 119.26 120.207 119.6L130.089 113.727Z" fill="black"/>
<path d="M127.644 96.6576C128.326 96.5436 129.073 96.5718 129.765 96.5609C132.086 96.5241 134.428 96.7721 136.617 97.5943C137.915 98.0818 139.134 98.9872 139.693 100.288C140.36 101.842 139.982 103.889 139.358 105.39C137.961 108.752 134.989 111.492 131.645 112.871L129.963 113.399C128.695 113.633 126.853 112.871 125.841 112.174C122.905 110.153 120.044 106.999 119.48 103.34C119.261 101.922 119.929 100.446 120.78 99.3569C122.233 97.498 125.437 96.9537 127.644 96.6576Z" fill="black"/>
<defs>
<linearGradient id="paint0_linear_31_8329" x1="140.209" y1="142.747" x2="161.585" y2="235.852" gradientUnits="userSpaceOnUse">
<stop stop-color="#F8EBC2"/>
<stop offset="1" stop-color="#F0E6D7"/>
</linearGradient>
</defs>
</svg>
