<?xml version="1.0" encoding="UTF-8" standalone="no"?>
<!-- Created with Inkscape (http://www.inkscape.org/) -->

<svg
   width="96.890816mm"
   height="14.83024mm"
   viewBox="0 0 96.890816 14.83024"
   version="1.1"
   id="svg1"
   xmlns="http://www.w3.org/2000/svg"
   xmlns:svg="http://www.w3.org/2000/svg">
  <defs
     id="defs1" />
  <g
     id="g3"
     transform="translate(-55.16844,-86.707384)">
    <path
       style="fill:#e9a07f;fill-opacity:1;stroke:none;stroke-width:1.9558;stroke-opacity:1"
       d="m 55.168442,86.70739 h 96.890808 l -3.95472,1.483021 3.95472,1.186418 -3.46038,1.087552 3.26265,1.384154 -3.26265,1.285285 3.26265,1.087551 -3.16378,1.680758 3.26265,1.186418 -2.76831,1.186418 2.66944,0.988682 -2.47171,1.186423 2.57058,1.08755 -96.693081,-0.0989 3.559254,-1.28529 -3.361518,-1.58189 3.460388,-1.087551 -3.460388,-1.384155 3.064915,-1.186418 -3.262651,-1.087548 3.361518,-1.186419 -3.163782,-1.878496 2.867179,-0.790946 -3.064915,-1.285285 3.262651,-0.889815 z"
       id="path2" />
    <path
       style="fill:#f4c988;fill-opacity:1;stroke:none;stroke-width:1.75098;stroke-opacity:1"
       d="m 58.679066,87.546696 h 89.607524 l -3.65744,1.285285 3.65744,1.028225 -3.20027,0.942547 3.01741,1.199608 -3.01741,1.113912 3.01741,0.942538 -2.92597,1.456659 3.0174,1.028234 -2.56022,1.028225 2.46879,0.85686 -2.28593,1.028234 2.37736,0.942537 -89.424659,-0.0857 3.291704,-1.113916 -3.108832,-1.370972 3.200271,-0.942547 -3.200271,-1.199608 2.834526,-1.028215 -3.017398,-0.942548 3.108832,-1.028224 -2.92596,-1.628034 2.651654,-0.685486 -2.834526,-1.113916 3.017398,-0.771172 z"
       id="path3" />
  </g>
</svg>
