<svg width="92" height="89" viewBox="0 0 92 89" fill="none" xmlns="http://www.w3.org/2000/svg">
<g clip-path="url(#clip0_114_147)">
<path d="M43.3927 85.3145C67.3578 85.3145 86.7854 66.2162 86.7854 42.6572C86.7854 19.0983 67.3578 0 43.3927 0C19.4276 0 0 19.0983 0 42.6572C0 66.2162 19.4276 85.3145 43.3927 85.3145Z" fill="#F5D695"/>
<path d="M47.8672 89C71.8323 89 91.2598 69.9017 91.2598 46.3428C91.2598 22.7838 71.8323 3.68555 47.8672 3.68555C23.902 3.68555 4.47446 22.7838 4.47446 46.3428C4.47446 69.9017 23.902 89 47.8672 89Z" fill="#F3CB77"/>
<path d="M47.4378 78.6953C65.9193 78.6953 80.9016 62.5605 80.9016 42.6573C80.9016 22.7541 65.9193 6.61929 47.4378 6.61929C28.9562 6.61929 13.9739 22.7541 13.9739 42.6573C13.9739 62.5605 28.9562 78.6953 47.4378 78.6953Z" fill="#FCB47E"/>
<path d="M41.9217 78.6952C60.6064 78.6952 75.7533 64.7008 75.7533 47.4378C75.7533 30.1748 60.6064 16.1803 41.9217 16.1803C23.2371 16.1803 8.09015 30.1748 8.09015 47.4378C8.09015 64.7008 23.2371 78.6952 41.9217 78.6952Z" fill="#F38971"/>
<path d="M48.9087 79.4308C66.5779 79.4308 80.9016 66.4242 80.9016 50.3797C80.9016 34.3353 66.5779 21.3287 48.9087 21.3287C31.2395 21.3287 16.9158 34.3353 16.9158 50.3797C16.9158 66.4242 31.2395 79.4308 48.9087 79.4308Z" fill="#FC9A6E"/>
<path d="M45.9668 63.9858C55.1061 63.9858 62.5149 56.577 62.5149 47.4378C62.5149 38.2985 55.1061 30.8897 45.9668 30.8897C36.8276 30.8897 29.4188 38.2985 29.4188 47.4378C29.4188 56.577 36.8276 63.9858 45.9668 63.9858Z" fill="#F5CD55"/>
</g>
<defs>
<clipPath id="clip0_114_147">
<rect width="91.2599" height="89" fill="white"/>
</clipPath>
</defs>
</svg>
