<svg width="208" height="358" viewBox="0 0 208 358" fill="none" xmlns="http://www.w3.org/2000/svg">
<g clip-path="url(#clip0_161_1191)">
<path d="M86.2111 117.077C89.5026 143.752 91.3442 179.468 91.3454 216.65C91.3329 251.055 89.7444 284.27 86.8714 310.203C83.9984 336.136 80.0335 353.047 75.7042 357.835C85.586 356.914 98.4043 356.401 111.717 356.393C122.881 356.394 133.771 356.751 142.897 357.414C138.545 352.761 134.554 335.857 131.663 309.833C128.772 283.808 127.177 250.424 127.174 215.858C127.182 179.028 128.996 143.643 132.237 117.077H86.2111Z" fill="#B78A76"/>
<path d="M100.806 216.87C101.983 222.756 100.065 213.871 102.391 221.623C102.589 222.283 102.259 222.943 102.391 223.604C102.936 226.33 102.787 229.106 102.787 231.922C102.787 236.675 102.787 241.428 102.787 246.182C102.787 247.231 103.174 251.745 102.787 252.519C102.417 253.259 102.391 253.594 102.391 254.5" fill="#674C40"/>
<path d="M114.67 218.058C115.703 220.534 116.482 223.286 116.65 225.98C116.733 227.298 116.445 228.637 116.65 229.941C116.846 231.178 117.576 232.281 117.839 233.506C118.35 235.892 117.535 238.604 117.839 241.032C118.428 245.749 117.925 240.586 118.631 243.409C119.098 245.276 118.54 248.682 119.027 250.143C119.44 251.381 119.423 252.362 119.423 253.708" fill="#674C40"/>
<path d="M103.183 312.332C103.213 315.593 102.281 318.581 101.825 321.747C101.697 322.635 101.9 323.543 101.825 324.437C101.635 326.691 101.221 328.92 100.919 331.162C100.629 333.32 99.919 335.312 99.5612 337.439C99.4619 338.028 99.7076 338.652 99.5612 339.232C99.3157 340.205 98.4813 340.958 98.2031 341.922C98.0787 342.353 98.2919 342.828 98.2031 343.267C98.0784 343.885 97.0165 345.113 96.8451 345.509C96.32 346.722 96.0654 348.398 95.487 349.544C95.2154 350.082 94.4005 350.351 94.1289 350.889C93.979 351.186 93.7018 353.055 93.6763 353.131" fill="#674C40"/>
<path d="M93.2802 280.643C94.9638 288.942 94.4685 297.507 94.4685 305.994C94.4685 307.533 93.9948 310.91 94.4685 312.331C94.6005 312.728 94.5693 313.225 94.8646 313.52C95.2879 313.943 95.6568 312.957 95.6568 313.916" fill="#674C40"/>
<path d="M113.086 296.487C113.958 298.681 113.164 300.995 113.482 303.221C113.6 304.048 114.11 304.779 114.274 305.598C114.377 306.116 114.199 306.659 114.274 307.182C114.611 309.539 114.992 311.565 115.462 313.916C115.614 314.676 115.274 315.541 115.462 316.293C115.508 316.474 115.799 316.512 115.858 316.689C116.025 317.19 115.73 317.761 115.858 318.273C115.93 318.56 116.218 318.773 116.254 319.066C116.684 322.501 116.254 326.287 116.254 329.76C116.254 330.576 115.994 331.753 116.254 332.533C116.877 334.401 116.973 336.201 117.443 338.079C117.645 338.889 118.071 339.636 118.235 340.455C118.411 341.334 117.958 348.497 118.235 348.774C118.328 348.867 118.499 348.774 118.631 348.774" fill="#674C40"/>
<path d="M129.631 320.082C129.348 323.734 130.232 327.254 130.82 330.777C130.908 331.31 130.631 332.587 130.82 333.154C130.865 333.29 131.521 334.069 131.612 334.342C131.766 334.806 131.852 345.662 131.612 346.621C131.54 346.908 131.287 347.127 131.216 347.413C131.064 348.021 131.413 348.801 131.216 349.394C130.871 350.429 130.239 351.507 130.027 352.563C129.974 352.831 129.828 354.743 129.631 354.94C129.538 355.033 129.367 354.94 129.235 354.94" fill="#674C40"/>
<path d="M122.988 281.039C122.593 283.265 123.425 285.244 123.78 287.377C124.064 289.079 123.497 287.655 123.78 289.357C123.849 289.769 124.075 290.141 124.177 290.546C124.515 291.898 123.738 293.588 124.177 294.903C124.327 295.354 124.792 295.649 124.969 296.091C125.467 297.337 124.969 304.32 124.969 306.39C124.969 308.363 125.45 311.835 124.969 313.52C124.838 313.978 124.353 314.266 124.177 314.708C123.997 315.158 124.022 326.679 124.177 326.988C124.693 328.021 124.64 329.828 125.365 330.553" fill="#674C40"/>
<path d="M107.936 329.364C107.632 335.545 108.332 341.475 108.332 347.585C108.332 348.608 108.656 350.179 108.332 351.15C108.021 352.083 107.54 352.559 107.54 353.527" fill="#674C40"/>
<path d="M107.899 292.421C113.586 292.421 118.197 284.884 118.197 275.587C118.197 266.289 113.586 258.752 107.899 258.752C102.211 258.752 97.5999 266.289 97.5999 275.587C97.5999 284.884 102.211 292.421 107.899 292.421Z" fill="#674C40"/>
<path d="M109.124 290.942C114.156 290.942 118.235 283.582 118.235 274.503C118.235 265.425 114.156 258.065 109.124 258.065C104.093 258.065 100.014 265.425 100.014 274.503C100.014 283.582 104.093 290.942 109.124 290.942Z" fill="#7A5849"/>
<path d="M100.272 185.98C148.226 185.98 187.1 148.485 187.1 102.233C187.1 55.9807 148.226 18.4859 100.272 18.4859C52.3186 18.4859 13.4444 55.9807 13.4444 102.233C13.4444 148.485 52.3186 185.98 100.272 185.98Z" fill="#BAD785"/>
<path d="M69.7425 92.4296C94.0287 92.4296 113.717 74.2465 113.717 51.8166C113.717 29.3866 94.0287 11.2035 69.7425 11.2035C45.4562 11.2035 25.7683 29.3866 25.7683 51.8166C25.7683 74.2465 45.4562 92.4296 69.7425 92.4296Z" fill="#BAD785"/>
<path d="M65.2876 101.716C89.5739 101.716 109.262 83.533 109.262 61.103C109.262 38.6731 89.5739 20.49 65.2876 20.49C41.0014 20.49 21.3135 38.6731 21.3135 61.103C21.3135 83.533 41.0014 101.716 65.2876 101.716Z" fill="#BAD785"/>
<path d="M34.4511 131.082C53.4779 131.082 68.9022 114.529 68.9022 94.1103C68.9022 73.6913 53.4779 57.1384 34.4511 57.1384C15.4243 57.1384 0 73.6913 0 94.1103C0 114.529 15.4243 131.082 34.4511 131.082Z" fill="#A6C078"/>
<path d="M46.8944 133.039C65.9212 133.039 81.3455 116.487 81.3455 96.0676C81.3455 75.6485 65.9212 59.0956 46.8944 59.0956C27.8676 59.0956 12.4433 75.6485 12.4433 96.0676C12.4433 116.487 27.8676 133.039 46.8944 133.039Z" fill="#BAD785"/>
<path d="M138.365 209.507C163.424 209.507 183.739 187.562 183.739 160.492C183.739 133.421 163.424 111.476 138.365 111.476C113.305 111.476 92.9899 133.421 92.9899 160.492C92.9899 187.562 113.305 209.507 138.365 209.507Z" fill="#A6C078"/>
<path d="M135.341 196.284C160.401 196.284 180.716 174.339 180.716 147.268C180.716 120.198 160.401 98.2525 135.341 98.2525C110.282 98.2525 89.9668 120.198 89.9668 147.268C89.9668 174.339 110.282 196.284 135.341 196.284Z" fill="#BAD785"/>
<path d="M177.297 149.008C188.28 149.008 197.183 138.85 197.183 126.321C197.183 113.791 188.28 103.633 177.297 103.633C166.314 103.633 157.411 113.791 157.411 126.321C157.411 138.85 166.314 149.008 177.297 149.008Z" fill="#A6C078"/>
<path d="M156.29 124.36C184.753 124.36 207.827 98.0259 207.827 65.5411C207.827 33.0563 184.753 6.72215 156.29 6.72215C127.827 6.72215 104.754 33.0563 104.754 65.5411C104.754 98.0259 127.827 124.36 156.29 124.36Z" fill="#BAD785"/>
<path d="M180.757 143.338C191.74 143.338 200.643 133.18 200.643 120.65C200.643 108.12 191.74 97.9629 180.757 97.9629C169.774 97.9629 160.871 108.12 160.871 120.65C160.871 133.18 169.774 143.338 180.757 143.338Z" fill="#BAD785"/>
<path d="M46.495 185.42C69.389 185.42 87.9483 167.989 87.9483 146.487C87.9483 124.985 69.389 107.555 46.495 107.555C23.6009 107.555 5.04163 124.985 5.04163 146.487C5.04163 167.989 23.6009 185.42 46.495 185.42Z" fill="#A6C078"/>
<path d="M61.7392 173.027C84.6332 173.027 103.193 155.597 103.193 134.095C103.193 112.593 84.6332 95.1622 61.7392 95.1622C38.8451 95.1622 20.2858 112.593 20.2858 134.095C20.2858 155.597 38.8451 173.027 61.7392 173.027Z" fill="#BAD785"/>
<path d="M89.9089 210.628C108.317 210.628 123.24 197.461 123.24 181.218C123.24 164.976 108.317 151.809 89.9089 151.809C71.5009 151.809 56.5782 164.976 56.5782 181.218C56.5782 197.461 71.5009 210.628 89.9089 210.628Z" fill="#A6C078"/>
<path d="M96.4064 198.286C114.814 198.286 129.737 185.119 129.737 168.876C129.737 152.634 114.814 139.467 96.4064 139.467C77.9984 139.467 63.0757 152.634 63.0757 168.876C63.0757 185.119 77.9984 198.286 96.4064 198.286Z" fill="#BAD785"/>
<path d="M105.309 58.5924C121.242 58.5924 134.158 46.6793 134.158 31.9838C134.158 17.2883 121.242 5.37526 105.309 5.37526C89.3755 5.37526 76.4592 17.2883 76.4592 31.9838C76.4592 46.6793 89.3755 58.5924 105.309 58.5924Z" fill="#A6C078"/>
<path d="M109.515 53.2171C125.448 53.2171 138.365 41.304 138.365 26.6085C138.365 11.913 125.448 -3.05176e-05 109.515 -3.05176e-05C93.5822 -3.05176e-05 80.6659 11.913 80.6659 26.6085C80.6659 41.304 93.5822 53.2171 109.515 53.2171Z" fill="#BAD785"/>
<path d="M89.4889 120.999C110.759 120.999 128.001 103.882 128.001 82.7665C128.001 61.6514 110.759 44.5342 89.4889 44.5342C68.219 44.5342 50.9764 61.6514 50.9764 82.7665C50.9764 103.882 68.219 120.999 89.4889 120.999Z" fill="#A6C078"/>
<path d="M94.3903 110.804C115.273 110.804 132.203 93.5234 132.203 72.2072C132.203 50.891 115.273 33.6107 94.3903 33.6107C73.5072 33.6107 56.5782 50.891 56.5782 72.2072C56.5782 93.5234 73.5072 110.804 94.3903 110.804Z" fill="#BAD785"/>
<path d="M127.736 186.455C150.62 186.455 169.17 169.228 169.17 147.978C169.17 126.727 150.62 109.5 127.736 109.5C104.853 109.5 86.3022 126.727 86.3022 147.978C86.3022 169.228 104.853 186.455 127.736 186.455Z" fill="#A6C078"/>
<path d="M133.01 176.194C155.477 176.194 173.69 158.803 173.69 137.351C173.69 115.898 155.477 98.5067 133.01 98.5067C110.542 98.5067 92.3289 115.898 92.3289 137.351C92.3289 158.803 110.542 176.194 133.01 176.194Z" fill="#BAD785"/>
<path d="M66.0902 156.738C83.1061 156.738 96.9001 143.571 96.9001 127.328C96.9001 111.086 83.1061 97.9187 66.0902 97.9187C49.0744 97.9187 35.2803 111.086 35.2803 127.328C35.2803 143.571 49.0744 156.738 66.0902 156.738Z" fill="#A6C078"/>
<path d="M70.0114 148.895C86.7179 148.895 100.261 135.603 100.261 119.205C100.261 102.808 86.7179 89.5159 70.0114 89.5159C53.3049 89.5159 39.7617 102.808 39.7617 119.205C39.7617 135.603 53.3049 148.895 70.0114 148.895Z" fill="#BAD785"/>
<path d="M129.773 110.77C152.07 110.77 170.145 94.7502 170.145 74.9886C170.145 55.227 152.07 39.2071 129.773 39.2071C107.477 39.2071 89.4016 55.227 89.4016 74.9886C89.4016 94.7502 107.477 110.77 129.773 110.77Z" fill="#A6C078"/>
<path d="M134.911 101.228C156.803 101.228 174.549 85.0558 174.549 65.106C174.549 45.1562 156.803 28.9837 134.911 28.9837C113.02 28.9837 95.2738 45.1562 95.2738 65.106C95.2738 85.0558 113.02 101.228 134.911 101.228Z" fill="#BAD785"/>
</g>
<defs>
<clipPath id="clip0_161_1191">
<rect width="207.827" height="357.835" fill="white"/>
</clipPath>
</defs>
</svg>
