<svg width="60" height="60" viewBox="0 0 60 60" fill="none" xmlns="http://www.w3.org/2000/svg">
<path d="M28.7999 15.0811C28.7144 14.6883 28.4701 14.2702 28.3209 13.8903L26.9249 10.2981C27.0335 10.222 27.1527 10.1702 27.2658 10.1021L29.1851 9.01886L29.9689 8.57851C30.0875 8.51252 30.2499 8.39408 30.3856 8.39344C30.4859 8.39291 30.5775 8.45468 30.6463 8.52272C30.6939 8.56978 30.7321 8.61994 30.7395 8.68822C30.7594 8.87188 30.7421 9.07718 30.7422 9.26272L30.7393 10.4464L30.7435 13.4279L30.7573 14.4673L30.7646 15.1965C30.2748 15.2801 29.7606 15.2296 29.2691 15.1773C29.1275 15.1621 28.92 15.1583 28.7999 15.0811Z" fill="#693937"/>
<path d="M30.7435 13.4278C30.9479 13.1537 31.094 12.8338 31.3024 12.5603C31.9953 11.6512 33.0316 10.9985 34.0616 10.541C34.7892 10.2178 35.5692 10.02 36.3495 9.87615C36.6338 9.82376 36.9189 9.75666 37.2065 9.72501C37.5626 9.68581 37.9326 9.69501 38.2906 9.69389C38.6788 9.69272 39.0789 9.67942 39.4655 9.71288C39.7707 9.73925 40.0692 9.81614 40.3699 9.87065C40.6421 9.91993 40.9181 9.94419 41.188 10.0061C41.7144 10.127 42.2472 10.3152 42.7511 10.5085C42.6188 10.8679 42.4914 11.2555 42.2685 11.57L42.1262 11.7468C42.0789 11.7515 41.9873 11.7737 41.9442 11.7649C41.8883 11.7535 41.8064 11.6983 41.7542 11.6708C41.5959 11.5874 41.4374 11.4982 41.268 11.4391C41.0799 11.3734 40.8783 11.3537 40.6816 11.3276C40.0563 11.2447 39.3813 11.2784 38.7523 11.3069C37.8725 11.3467 37.023 11.427 36.1608 11.616C35.8039 11.6942 35.4465 11.8137 35.0951 11.9157C34.6008 12.0589 34.1453 12.1913 33.6763 12.4097C33.0188 12.7159 32.4189 13.1236 31.8479 13.5671L31.2445 14.0735C31.0849 14.2184 30.9526 14.3687 30.7572 14.4672L30.7435 13.4278Z" fill="#75EE04"/>
<path d="M30.7573 14.4672C30.9527 14.3687 31.0849 14.2184 31.2445 14.0735L31.8479 13.5671C32.4189 13.1236 33.0188 12.7159 33.6763 12.4097C34.1454 12.1913 34.6009 12.0589 35.0951 11.9156C35.4466 11.8137 35.804 11.6942 36.1609 11.616C37.023 11.427 37.8726 11.3467 38.7523 11.3068C39.3814 11.2784 40.0563 11.2447 40.6817 11.3276C40.8784 11.3537 41.0799 11.3734 41.2681 11.4391C41.4374 11.4981 41.596 11.5874 41.7542 11.6708C41.8065 11.6983 41.8884 11.7535 41.9442 11.7648C41.9874 11.7736 42.079 11.7515 42.1263 11.7468C42.0214 11.9585 41.9364 12.1994 41.8113 12.3981C41.7056 12.5659 41.5674 12.7155 41.4474 12.8732C40.8218 13.6949 40.1129 14.4753 39.2349 15.0382C39.0391 15.1637 38.824 15.2393 38.6218 15.3506C38.395 15.388 38.0394 15.2015 37.8146 15.1364L37.0072 14.9339C35.8145 14.7514 34.6023 14.5779 33.3932 14.7024C33.054 14.7373 32.7012 14.8095 32.3682 14.8828C32.1299 14.9353 31.8601 15.0379 31.6162 15.0117L30.7647 15.1964L30.7573 14.4672Z" fill="#48B101"/>
<path d="M31.6162 15.0117C31.9083 14.7967 32.1999 14.7045 32.5305 14.5706C33.3854 14.2243 34.27 14.0435 35.1933 14.0416C35.8484 14.0403 36.5019 14.1047 37.1581 14.0807C37.1004 14.3174 36.985 14.6632 37.0019 14.8993L37.0072 14.934C35.8144 14.7515 34.6023 14.5779 33.3931 14.7025C33.054 14.7374 32.7012 14.8096 32.3681 14.8829C32.1299 14.9354 31.8601 15.038 31.6162 15.0117Z" fill="#2D9201"/>
<path d="M38.6218 15.3505C39.2895 15.5508 39.9423 15.8847 40.5538 16.215C42.1999 17.1043 43.6679 18.2327 44.8984 19.6484C45.331 20.1461 45.7198 20.6857 46.0939 21.2281C47.9537 23.9247 48.8735 27.0645 49.1539 30.304C49.3587 32.6698 49.2407 34.9547 48.7885 37.2871C48.7111 37.6859 48.5957 38.0827 48.4864 38.4739C48.0733 39.9526 47.4954 41.3472 46.7277 42.6772C46.467 43.1287 46.1988 43.5913 45.8936 44.0142C45.3219 44.8066 44.6442 45.5602 43.9468 46.2431C43.2709 46.9048 42.5432 47.5295 41.7513 48.0481C39.6725 49.4097 37.2675 50.4058 34.7965 50.7422C34.2076 50.8224 33.6091 50.8843 33.0138 50.8595C31.9947 50.8172 31.0088 50.4859 29.9918 50.5093C29.2645 50.5261 28.5454 50.6418 27.8226 50.709C26.6253 50.8203 25.4114 50.7645 24.233 50.5198C20.008 49.6421 16.1139 47.0258 13.7499 43.4085C12.4692 41.4488 11.5168 39.1932 11.0652 36.8923C10.7219 35.1434 10.6487 33.3612 10.7304 31.5846C10.7881 30.3304 10.9112 29.0573 11.1711 27.8276C11.4048 26.7221 11.7126 25.6057 12.1372 24.5567C13.371 21.508 15.5268 18.6332 18.3065 16.8395C19.0957 16.3302 19.9175 15.858 20.7867 15.4985C22.596 14.7502 24.6738 14.4574 26.6217 14.6603C27.3618 14.7374 28.0747 14.9239 28.7999 15.0809C28.92 15.1581 29.1275 15.162 29.2691 15.1771C29.7606 15.2294 30.2748 15.2799 30.7646 15.1964L31.6162 15.0116C31.8601 15.0378 32.1299 14.9352 32.3681 14.8828C32.7012 14.8095 33.054 14.7373 33.3931 14.7023C34.6023 14.5778 35.8144 14.7513 37.0072 14.9339L37.8146 15.1364C38.0394 15.2014 38.395 15.3879 38.6218 15.3505Z" fill="#A286E9"/>
<path d="M25.2444 16.4802C26.1495 16.4132 27.0364 16.5269 27.919 16.7202C28.7138 16.8943 29.4733 17.1143 30.2969 17.1038C30.7886 17.0975 31.3156 17.0133 31.7926 16.8945C32.0647 16.8267 32.3274 16.735 32.6031 16.6764C34.6566 16.2398 36.8174 16.6019 38.7345 17.4079C39.3707 17.6755 39.9706 17.9604 40.552 18.3396C41.6206 19.0362 42.6439 19.8599 43.4959 20.813C45.3763 22.9166 46.4647 25.6378 47.0198 28.373C47.475 30.616 47.4878 32.9486 47.1869 35.2113C46.8234 37.9451 46.0161 40.5749 44.4768 42.8839C43.6785 44.0814 42.6414 45.1887 41.4693 46.0276C40.8178 46.4938 40.1263 46.8877 39.4154 47.2545C38.5026 47.7254 37.5456 48.1333 36.5573 48.4186C36.0466 48.566 35.5083 48.6657 34.9868 48.7693C34.152 48.9332 33.231 48.9857 32.3848 48.8865C31.6788 48.8037 30.9817 48.6599 30.2693 48.6395C29.3303 48.6126 28.4073 48.7768 27.4739 48.8336C23.9328 49.049 20.4187 47.5878 17.7986 45.2599C15.568 43.278 13.9646 40.4822 13.1854 37.6149C12.839 36.34 12.6493 35.0123 12.5746 33.6947C12.5169 32.6765 12.5687 31.6644 12.6567 30.6502C12.8585 28.3237 13.4183 25.9557 14.4807 23.866C15.1095 22.6293 15.9175 21.5054 16.8413 20.475C18.959 18.1132 22.0847 16.6537 25.2444 16.4802Z" fill="#A286E9"/>
<path d="M24.9967 17.5281C25.5238 17.5001 26.0143 17.5149 26.5401 17.5457C26.7314 17.557 26.9481 17.5498 27.1352 17.5873C28.1496 17.7908 29.116 18.1519 30.164 18.1807C31.2204 18.2095 32.2002 17.7449 33.2313 17.6043C34.0151 17.4974 34.8988 17.5138 35.6779 17.6523C36.0078 17.711 36.3305 17.808 36.6542 17.8931L37.4776 18.1126C38.6537 18.4747 39.8671 19.1164 40.8642 19.8384C41.2787 20.1385 41.6725 20.4903 42.0524 20.8327L42.7075 21.4801C42.2667 21.5608 41.7897 21.7013 41.383 21.889C41.1218 22.0094 40.8688 22.1654 40.6139 22.2999C39.5185 22.8775 38.4343 23.5758 37.4716 24.3597C37.2932 24.505 37.135 24.6736 36.9596 24.8231L35.4426 26.1382L33.5072 28.0098L30.4742 31.1044C30.129 31.4668 29.79 31.8746 29.4774 32.265C29.1721 32.6464 28.8617 33.0739 28.4789 33.3826L27.4099 33.5288L26.7814 33.6639L25.7237 33.7903C24.507 33.9266 23.2735 33.9686 22.0497 33.9649C20.9123 33.9616 19.7626 33.9243 18.6362 33.7543C17.9343 33.6483 17.2648 33.4715 16.5814 33.2907C16.3712 33.2351 16.1464 33.2008 15.9404 33.1358C15.2709 32.9245 14.6193 32.6301 13.9579 32.3965C13.922 32.3818 13.8902 32.3565 13.8579 32.3351C13.789 32.1433 13.8527 31.78 13.8631 31.572C13.903 30.7698 13.9343 29.9487 14.0653 29.1558C14.4974 26.5401 15.456 23.8639 17.2285 21.8501C17.3468 21.7157 17.4405 21.5614 17.5599 21.4277C17.705 21.2652 17.87 21.133 18.0462 21.0061C18.069 20.9623 18.0894 20.929 18.1243 20.8933C19.5738 19.4114 21.4681 18.281 23.4792 17.7732C23.9669 17.65 24.4935 17.537 24.9967 17.5281Z" fill="#C8B8F2"/>
<path d="M18.0462 21.006C18.069 20.9622 18.0894 20.9289 18.1243 20.8932C19.5738 19.4113 21.4681 18.281 23.4792 17.7732C23.9669 17.65 24.4935 17.5369 24.9967 17.5281C25.1766 17.6125 25.3152 17.7747 25.4483 17.9186C25.8757 18.3809 26.2118 18.8697 26.4249 19.4658C26.7423 20.3539 26.61 21.5105 26.207 22.3509C25.7108 23.3854 24.8215 24.295 23.7202 24.673C22.8321 24.9778 21.882 24.9259 20.9907 24.6692C21.2767 25.3164 21.2978 25.9428 21.0365 26.606C20.8221 27.1502 20.3241 27.6106 19.7938 27.8443L19.4384 27.9743C19.022 28.1189 18.2972 28.0017 17.9078 27.7998L17.561 27.6065C17.0731 27.3449 16.746 26.7461 16.5959 26.2344C16.4499 25.7364 16.487 25.0766 16.7462 24.6184C17.0852 24.0193 17.5859 23.6913 18.2383 23.516C18.4855 23.4496 18.7777 23.4516 19.0332 23.4521C18.4402 22.811 18.0838 21.8781 18.0462 21.006Z" fill="#FFF5F5"/>
</svg>
