<svg width="520" height="512" viewBox="0 0 520 512" fill="none" xmlns="http://www.w3.org/2000/svg">
<g clip-path="url(#clip0_183_1315)" filter="url(#filter0_d_183_1315)">
<path d="M515.983 187H395.842V209.48C355.223 201.762 308.223 197.646 260.213 197.6C211.254 197.653 163.373 201.939 122.25 209.95V186.58H4.29413C4.80758 166.223 31.9801 146.751 79.8924 132.407C127.805 118.064 192.574 110.01 260.092 110C327.866 110.003 392.869 118.111 440.841 132.546C488.813 146.982 515.837 166.565 515.983 187Z" fill="#9BB867"/>
<path d="M4.17334 187.21C4.385 202.869 20.3924 218.139 50.0692 230.99C20.4408 243.842 4.47525 259.108 4.29132 274.76C4.40514 275.414 4.54654 276.067 4.71551 276.72H4.17334V187.21Z" fill="#9BB867"/>
<path d="M4.29413 186.58H122.25V209.95C93.8189 215.458 69.2866 222.609 50.0692 230.99C20.3924 218.139 4.385 202.869 4.17334 187.21V187.11C4.21143 186.927 4.2517 186.743 4.29413 186.56V186.58Z" fill="#9BB867"/>
<path d="M516 274.13C515.434 258.73 499.598 243.734 470.531 231.07C499.96 218.246 515.813 203.035 516 187.44V274.13Z" fill="#9BB867"/>
<path d="M516 187.44C515.813 203.035 499.96 218.246 470.531 231.07C450.769 222.415 425.353 215.068 395.842 209.48V187H515.983C515.989 187.033 515.994 187.067 516 187.1L516 187.44Z" fill="#9BB867"/>
<path d="M515.983 187H395.842V209.48C355.223 201.762 308.223 197.646 260.213 197.6C211.254 197.653 163.373 201.939 122.25 209.95V186.58H4.29413C4.80758 166.223 31.9801 146.751 79.8924 132.407C127.805 118.064 192.574 110.01 260.092 110C327.866 110.003 392.869 118.111 440.841 132.546C488.813 146.982 515.837 166.565 515.983 187Z" fill="#9BB867"/>
<path d="M4.17334 187.21C4.385 202.869 20.3924 218.139 50.0692 230.99C20.4408 243.842 4.47525 259.108 4.29132 274.76C4.40514 275.414 4.54654 276.067 4.71551 276.72H4.17334V187.21Z" fill="#9BB867"/>
<path d="M4.29413 186.58H122.25V209.95C93.8189 215.458 69.2866 222.609 50.0692 230.99C20.3924 218.139 4.385 202.869 4.17334 187.21V187.11C4.21143 186.927 4.2517 186.743 4.29413 186.56V186.58Z" fill="#9BB867"/>
<path d="M516 274.13C515.434 258.73 499.598 243.734 470.531 231.07C499.96 218.246 515.813 203.035 516 187.44V274.13Z" fill="#9BB867"/>
<path d="M516 187.44C515.813 203.035 499.96 218.246 470.531 231.07C450.769 222.415 425.353 215.068 395.842 209.48V187H515.983C515.989 187.033 515.994 187.067 516 187.1L516 187.44Z" fill="#9BB867"/>
<path d="M515.81 278.111H395.668V255.631C355.053 263.352 308.053 267.472 260.04 267.521C211.078 267.465 163.196 263.176 122.077 255.161V278.541H4.12079C4.64294 298.897 31.8193 318.366 79.7306 332.707C127.642 347.049 192.407 355.102 259.919 355.111C327.693 355.108 392.696 347 440.668 332.565C488.64 318.13 515.663 298.546 515.81 278.111Z" fill="#BAD785"/>
<path d="M4 277.901C4.21166 262.242 20.219 246.972 49.8958 234.121C20.2675 221.269 4.3019 206.003 4.11798 190.351C4.23208 189.701 4.37348 189.051 4.54217 188.401H4V277.901Z" fill="#BAD785"/>
<path d="M4.12079 278.541H122.077V255.161C93.6455 249.654 69.1133 242.503 49.8958 234.121C20.219 246.972 4.21166 262.242 4 277.901L4 278.001C4.03801 278.188 4.07827 278.375 4.12078 278.561L4.12079 278.541Z" fill="#BAD785"/>
<path d="M515.827 190.981C515.261 206.381 499.425 221.378 470.358 234.041C499.787 246.865 515.64 262.077 515.827 277.671V190.981Z" fill="#BAD785"/>
<path d="M515.827 277.671C515.64 262.077 499.787 246.865 470.358 234.041C450.596 242.696 425.18 250.043 395.668 255.631V278.111H515.81C515.815 278.078 515.821 278.044 515.827 278.011L515.827 277.671Z" fill="#BAD785"/>
<path d="M515.81 278.111H395.668V255.631C355.053 263.352 308.053 267.472 260.04 267.521C211.078 267.465 163.196 263.176 122.077 255.161V278.541H4.12079C4.64294 298.897 31.8193 318.366 79.7306 332.707C127.642 347.049 192.407 355.102 259.919 355.111C327.693 355.108 392.696 347 440.668 332.565C488.64 318.13 515.663 298.546 515.81 278.111Z" fill="#BAD785"/>
<path d="M4 277.901C4.21166 262.242 20.219 246.972 49.8958 234.121C20.2675 221.269 4.3019 206.003 4.11798 190.351C4.23208 189.701 4.37348 189.051 4.54217 188.401H4V277.901Z" fill="#BAD785"/>
<path d="M4.12079 278.541H122.077V255.161C93.6455 249.654 69.1133 242.503 49.8958 234.121C20.219 246.972 4.21166 262.242 4 277.901L4 278.001C4.03801 278.188 4.07827 278.375 4.12078 278.561L4.12079 278.541Z" fill="#BAD785"/>
<path d="M515.827 190.981C515.261 206.381 499.425 221.378 470.358 234.041C499.787 246.865 515.64 262.077 515.827 277.671V190.981Z" fill="#BAD785"/>
<path d="M515.827 277.671C515.64 262.077 499.787 246.865 470.358 234.041C450.596 242.696 425.18 250.043 395.668 255.631V278.111H515.81C515.815 278.078 515.821 278.044 515.827 278.011L515.827 277.671Z" fill="#BAD785"/>
<path d="M262.455 433.361C297.302 433.361 325.551 406.148 325.551 372.579C325.551 339.011 297.302 311.798 262.455 311.798C227.608 311.798 199.359 339.011 199.359 372.579C199.359 406.148 227.608 433.361 262.455 433.361Z" fill="#D4AA00"/>
<path d="M262.455 433.361C297.302 433.361 325.551 406.148 325.551 372.579C325.551 339.011 297.302 311.798 262.455 311.798C227.608 311.798 199.359 339.011 199.359 372.579C199.359 406.148 227.608 433.361 262.455 433.361Z" fill="#D4AA00"/>
</g>
<defs>
<filter id="filter0_d_183_1315" x="0" y="0" width="520" height="520" filterUnits="userSpaceOnUse" color-interpolation-filters="sRGB">
<feFlood flood-opacity="0" result="BackgroundImageFix"/>
<feColorMatrix in="SourceAlpha" type="matrix" values="0 0 0 0 0 0 0 0 0 0 0 0 0 0 0 0 0 0 127 0" result="hardAlpha"/>
<feOffset dy="4"/>
<feGaussianBlur stdDeviation="2"/>
<feComposite in2="hardAlpha" operator="out"/>
<feColorMatrix type="matrix" values="0 0 0 0 0 0 0 0 0 0 0 0 0 0 0 0 0 0 0.25 0"/>
<feBlend mode="normal" in2="BackgroundImageFix" result="effect1_dropShadow_183_1315"/>
<feBlend mode="normal" in="SourceGraphic" in2="effect1_dropShadow_183_1315" result="shape"/>
</filter>
<clipPath id="clip0_183_1315">
<rect width="512" height="512" fill="white" transform="translate(4)"/>
</clipPath>
</defs>
</svg>
