<svg width="512" height="512" viewBox="0 0 512 512" fill="none" xmlns="http://www.w3.org/2000/svg">
<g clip-path="url(#clip0_183_1288)">
<path d="M511.983 187H391.842V209.48C351.223 201.762 304.223 197.646 256.213 197.6C207.254 197.653 159.373 201.939 118.25 209.95V186.58H0.294128C0.807579 166.223 27.9801 146.751 75.8924 132.407C123.805 118.064 188.574 110.01 256.092 110C323.866 110.003 388.869 118.111 436.841 132.546C484.813 146.982 511.837 166.565 511.983 187Z" fill="#6F46C3"/>
<path d="M0.17334 187.21C0.384998 202.869 16.3924 218.139 46.0692 230.99C16.4408 243.842 0.475246 259.108 0.291325 274.76C0.405136 275.414 0.546541 276.067 0.715506 276.72H0.17334V187.21Z" fill="#6F46C3"/>
<path d="M0.294134 186.58H118.25V209.95C89.8189 215.458 65.2866 222.609 46.0692 230.99C16.3924 218.139 0.384998 202.869 0.17334 187.21V187.11C0.211433 186.927 0.251698 186.743 0.294134 186.56V186.58Z" fill="#6F46C3"/>
<path d="M512 274.13C511.434 258.73 495.598 243.734 466.531 231.07C495.96 218.246 511.813 203.035 512 187.44V274.13Z" fill="#6F46C3"/>
<path d="M512 187.44C511.813 203.035 495.96 218.246 466.531 231.07C446.769 222.415 421.353 215.068 391.842 209.48V187H511.983C511.989 187.033 511.994 187.067 512 187.1L512 187.44Z" fill="#6F46C3"/>
<path d="M511.983 187H391.842V209.48C351.223 201.762 304.223 197.646 256.213 197.6C207.254 197.653 159.373 201.939 118.25 209.95V186.58H0.294128C0.807579 166.223 27.9801 146.751 75.8924 132.407C123.805 118.064 188.574 110.01 256.092 110C323.866 110.003 388.869 118.111 436.841 132.546C484.813 146.982 511.837 166.565 511.983 187Z" fill="#6F46C3"/>
<path d="M0.17334 187.21C0.384998 202.869 16.3924 218.139 46.0692 230.99C16.4408 243.842 0.475246 259.108 0.291325 274.76C0.405136 275.414 0.546541 276.067 0.715506 276.72H0.17334V187.21Z" fill="#6F46C3"/>
<path d="M0.294134 186.58H118.25V209.95C89.8189 215.458 65.2866 222.609 46.0692 230.99C16.3924 218.139 0.384998 202.869 0.17334 187.21V187.11C0.211433 186.927 0.251698 186.743 0.294134 186.56V186.58Z" fill="#6F46C3"/>
<path d="M512 274.13C511.434 258.73 495.598 243.734 466.531 231.07C495.96 218.246 511.813 203.035 512 187.44V274.13Z" fill="#6F46C3"/>
<path d="M512 187.44C511.813 203.035 495.96 218.246 466.531 231.07C446.769 222.415 421.353 215.068 391.842 209.48V187H511.983C511.989 187.033 511.994 187.067 512 187.1L512 187.44Z" fill="#6F46C3"/>
<path d="M511.81 278.111H391.668V255.631C351.053 263.352 304.053 267.472 256.04 267.521C207.078 267.465 159.196 263.176 118.077 255.161V278.541H0.120789C0.642943 298.897 27.8193 318.366 75.7306 332.707C123.642 347.049 188.407 355.102 255.919 355.111C323.693 355.108 388.696 347 436.668 332.565C484.64 318.13 511.663 298.546 511.81 278.111Z" fill="#A286E9"/>
<path d="M0 277.901C0.211657 262.242 16.219 246.972 45.8958 234.121C16.2675 221.269 0.301904 206.003 0.117985 190.351C0.232076 189.701 0.373481 189.051 0.542166 188.401H0V277.901Z" fill="#A286E9"/>
<path d="M0.120793 278.541H118.077V255.161C89.6455 249.654 65.1133 242.503 45.8958 234.121C16.219 246.972 0.211657 262.242 0 277.901L0 278.001C0.0380089 278.188 0.0782694 278.375 0.12078 278.561L0.120793 278.541Z" fill="#A286E9"/>
<path d="M511.827 190.981C511.261 206.381 495.425 221.378 466.358 234.041C495.787 246.865 511.64 262.077 511.827 277.671V190.981Z" fill="#A286E9"/>
<path d="M511.827 277.671C511.64 262.077 495.787 246.865 466.358 234.041C446.596 242.696 421.18 250.043 391.668 255.631V278.111H511.81C511.815 278.078 511.821 278.044 511.827 278.011L511.827 277.671Z" fill="#A286E9"/>
<path d="M511.81 278.111H391.668V255.631C351.053 263.352 304.053 267.472 256.04 267.521C207.078 267.465 159.196 263.176 118.077 255.161V278.541H0.120789C0.642943 298.897 27.8193 318.366 75.7306 332.707C123.642 347.049 188.407 355.102 255.919 355.111C323.693 355.108 388.696 347 436.668 332.565C484.64 318.13 511.663 298.546 511.81 278.111Z" fill="#A286E9"/>
<path d="M0 277.901C0.211657 262.242 16.219 246.972 45.8958 234.121C16.2675 221.269 0.301904 206.003 0.117985 190.351C0.232076 189.701 0.373481 189.051 0.542166 188.401H0V277.901Z" fill="#A286E9"/>
<path d="M0.120793 278.541H118.077V255.161C89.6455 249.654 65.1133 242.503 45.8958 234.121C16.219 246.972 0.211657 262.242 0 277.901L0 278.001C0.0380089 278.188 0.0782694 278.375 0.12078 278.561L0.120793 278.541Z" fill="#A286E9"/>
<path d="M511.827 190.981C511.261 206.381 495.425 221.378 466.358 234.041C495.787 246.865 511.64 262.077 511.827 277.671V190.981Z" fill="#A286E9"/>
<path d="M511.827 277.671C511.64 262.077 495.787 246.865 466.358 234.041C446.596 242.696 421.18 250.043 391.668 255.631V278.111H511.81C511.815 278.078 511.821 278.044 511.827 278.011L511.827 277.671Z" fill="#A286E9"/>
<path d="M258.455 433.361C293.302 433.361 321.551 406.148 321.551 372.579C321.551 339.011 293.302 311.798 258.455 311.798C223.608 311.798 195.359 339.011 195.359 372.579C195.359 406.148 223.608 433.361 258.455 433.361Z" fill="#D4AA00"/>
<path d="M258.455 433.361C293.302 433.361 321.551 406.148 321.551 372.579C321.551 339.011 293.302 311.798 258.455 311.798C223.608 311.798 195.359 339.011 195.359 372.579C195.359 406.148 223.608 433.361 258.455 433.361Z" fill="#D4AA00"/>
</g>
<defs>
<clipPath id="clip0_183_1288">
<rect width="512" height="512" fill="white"/>
</clipPath>
</defs>
</svg>
