<svg width="44" height="43" viewBox="0 0 44 43" fill="none" xmlns="http://www.w3.org/2000/svg">
<g clip-path="url(#clip0_114_42)">
<path d="M31.1274 28.291C31.309 28.519 31.4974 28.7397 31.5071 29.044L31.2809 29.1027L31.0611 28.5072L31.1274 28.291Z" fill="#493F3E"/>
<path d="M31.5071 29.0441C31.7119 28.9753 31.9259 28.8895 32.1378 28.847C33.1809 28.6377 34.4502 28.824 35.3984 29.291C36.5667 29.8664 37.5005 30.802 37.9235 32.049C38.3945 33.4374 38.3411 35.0049 37.678 36.3228C37.0792 37.513 35.9238 38.5133 34.6535 38.9276C33.7588 39.2194 32.8893 39.2739 31.9633 39.1026C31.9751 38.8614 32.1979 38.6641 32.3042 38.4529C32.5196 38.0249 32.6991 37.5668 32.8341 37.1067C32.9446 36.7302 32.978 36.3655 33.008 35.9755C33.1056 34.7057 32.8578 33.4229 32.2348 32.3028C31.8118 31.5423 31.3446 30.9672 30.7091 30.3762C30.5461 30.2247 30.3292 29.9995 30.1101 29.949C30.0164 29.9274 29.9983 29.8814 29.9362 29.8111L31.2809 29.1027L31.5071 29.0441Z" fill="#111723"/>
<path d="M27.3517 28.8366L27.3512 28.4399L29.4068 28.4932L29.4675 28.5668L29.5173 28.681C29.6656 28.803 29.8075 28.9214 30.0064 28.9348L30.4848 28.9731C30.7294 28.8655 30.8955 28.712 31.0611 28.5072L31.2809 29.1027L29.9362 29.8112C29.9983 29.8814 30.0164 29.9275 30.1101 29.949C30.3292 29.9996 30.5461 30.2247 30.7091 30.3762C31.3446 30.9672 31.8118 31.5423 32.2348 32.3028C32.8578 33.423 33.1056 34.7057 33.008 35.9755C32.978 36.3655 32.9446 36.7302 32.8341 37.1067C32.6991 37.5669 32.5196 38.0249 32.3042 38.4529C32.1979 38.6641 31.9751 38.8614 31.9633 39.1027C31.7358 39.2785 31.5544 39.5933 31.3536 39.8076C30.7424 40.4597 29.8937 41.0611 29.0744 41.4194C27.6213 42.0549 25.9621 42.1901 24.4272 41.7889C24.1064 41.705 23.7825 41.5719 23.4738 41.4503C22.0107 40.874 20.7317 39.5803 20.1088 38.1404C19.385 36.4669 19.3724 34.5241 20.0515 32.8317C20.7371 31.1225 22.2356 29.7468 23.9649 29.1388C24.3835 28.9916 24.8813 28.987 25.2744 28.8063L25.3241 28.7822C25.5979 28.6938 25.8975 28.7483 26.1809 28.7586C26.5594 28.7723 26.9538 28.7677 27.3275 28.8303L27.3517 28.8366Z" fill="#493F3E"/>
<path d="M27.3517 28.8366L27.3512 28.4399L29.4067 28.4932L29.4675 28.5668L29.5173 28.681C29.6656 28.803 29.8075 28.9214 30.0064 28.9348L30.4847 28.9731C30.7294 28.8655 30.8955 28.712 31.0611 28.5072L31.2809 29.1027L29.9362 29.8112C29.8397 29.7492 29.7225 29.7091 29.6208 29.6533C29.1609 29.4011 28.7264 29.19 28.2152 29.057C27.9317 28.9832 27.6222 28.9479 27.3517 28.8366Z" fill="#E11F27"/>
<path d="M25.9016 31.0366C26.8795 30.9942 27.9797 31.2 28.7722 31.8165C29.0521 32.0343 29.344 32.2706 29.5804 32.5354C29.7426 32.717 29.8649 32.9306 29.9964 33.1345C30.3732 33.719 30.6414 34.3125 30.7218 35.0106C30.8619 36.2278 30.567 37.2057 29.7937 38.1582C29.0044 39.1304 27.8917 39.7305 26.6522 39.8719C26.3621 39.907 26.0251 39.8904 25.7357 39.8585C24.549 39.7278 23.4836 39.1078 22.7465 38.1714C22.0436 37.2786 21.6636 36.204 21.8112 35.061C21.9364 34.0904 22.3142 33.229 22.9592 32.4904C23.7286 31.6092 24.7378 31.1191 25.9016 31.0366Z" fill="#E11F27"/>
<path d="M25.9518 31.6083C26.8669 31.5641 27.6253 31.7643 28.3924 32.2689C29.3498 32.8987 29.8517 33.733 30.0903 34.8464L30.1309 35.0679C30.2554 36.1665 29.9887 36.9946 29.2908 37.8443C28.6064 38.6774 27.6487 39.1484 26.5848 39.2573L26.5418 39.2658C25.6644 39.3709 24.6244 39.0797 23.9274 38.5431C23.0996 37.9062 22.526 37.0917 22.3983 36.0426C22.298 35.2185 22.4809 34.5308 22.8383 33.7933C22.9639 33.5342 23.0918 33.263 23.2741 33.0378C23.9545 32.1972 24.8831 31.7152 25.9518 31.6083Z" fill="#493F3E"/>
<path d="M7.77897 26.0506C7.24712 26.0309 6.76587 25.7114 6.30935 25.4565C5.84549 25.1974 5.36404 24.9383 4.92113 24.6451C4.06739 24.0799 3.24491 23.3519 2.54945 22.6028C2.33747 22.3745 2.19462 22.1252 2.01443 21.8753C1.77091 21.5376 1.51479 21.2089 1.30483 20.8477C1.18657 20.6442 1.1049 20.4243 1.00309 20.213C0.52049 19.212 0.158913 18.1391 0.0440923 17.027C0.000293465 16.6026 0.019632 16.1452 0.0380949 15.7186C0.109184 14.0728 0.504048 12.4534 1.21345 10.9648L2.0647 9.36642C2.25735 8.98773 2.58052 8.62926 2.83064 8.28338C3.49841 7.35997 4.26603 6.48669 5.13008 5.74069C5.50891 5.41361 5.91038 5.13067 6.30908 4.83042C7.13796 4.20632 8.00713 3.62777 8.92293 3.13857C9.43793 2.86351 9.96979 2.64088 10.4994 2.39958C11.3736 2.00114 12.2599 1.64914 13.1759 1.35757C15.6514 0.569528 18.2086 0.163816 20.7992 0.0610576L23.2581 0.0574188C23.5905 0.0651005 23.9259 0.0476476 24.2576 0.0690753C26.5379 0.216509 28.7593 0.687651 30.9253 1.40043C32.0053 1.7558 33.1009 2.16441 34.1114 2.6898L35.472 3.42393L36.1635 3.87641C36.352 3.9917 36.5532 4.07916 36.7379 4.20328C39.694 6.1898 42.4254 9.01671 43.4907 12.4922C43.8588 13.6931 44.045 15.0725 43.9097 16.3276C43.8111 17.2423 43.5397 18.0612 43.2049 18.9105C42.9983 19.4344 42.774 19.972 42.5082 20.4688C41.8492 21.7008 41.1147 22.9358 40.1375 23.9478C39.7884 24.3093 39.4203 24.602 39.0179 24.9005C38.6848 25.1478 38.3648 25.4095 38.0112 25.629C37.6684 25.8419 37.3009 26.0147 36.9344 26.1825C36.4849 26.3883 36.0436 26.5893 35.5689 26.7326C34.8977 26.9352 34.1333 27.132 33.4386 27.2277C32.6635 27.3345 31.902 27.3526 31.1216 27.3494C31.0661 26.5903 31.119 25.7944 31.1194 25.0318C31.1196 24.5883 31.0606 24.0888 31.1149 23.6536L31.1587 23.7183C32.0384 23.6475 32.9461 23.6141 33.8162 23.4647C34.605 23.3294 35.409 23.0543 36.1618 22.7886C36.6314 22.6229 37.096 22.4902 37.5385 22.2513C39.0732 21.4229 40.514 20.2217 41.0135 18.4795C41.1608 17.9655 41.1682 17.4454 41.1471 16.9163C41.0865 15.3935 40.6309 13.8723 39.8964 12.5398C39.6838 12.1541 39.4244 11.7936 39.1725 11.4333C38.9275 11.0827 38.6926 10.7222 38.4053 10.4035C38.032 9.98952 37.6151 9.60604 37.2064 9.22688C34.7535 6.95116 31.8491 5.41664 28.6412 4.50031C28.0309 4.32599 27.3953 4.21608 26.7739 4.08732C25.7901 3.88348 24.7742 3.69063 23.7739 3.59428C20.4478 3.27401 17.0285 3.69164 13.8058 4.51654C12.7501 4.78675 11.7203 5.07198 10.708 5.48167C9.73112 5.87694 8.79241 6.37678 7.87795 6.89853C7.40769 7.16685 6.9666 7.48981 6.5303 7.8088C4.6735 9.16643 2.82781 10.9969 2.20648 13.2837C2.00756 14.0158 1.85838 14.7799 1.88216 15.5413C1.91046 16.45 2.25095 17.4564 2.70551 18.2387C3.82838 20.1715 5.85034 21.8213 7.92991 22.6159C8.20988 22.7229 8.4565 22.8373 8.74955 22.9141C8.63736 22.9945 8.44862 23.0971 8.36351 23.2012C8.18697 23.4172 8.05362 24.3001 8.0043 24.6009L7.77897 26.0506Z" fill="#E11F27"/>
<path d="M25.2643 23.8103L25.2678 27.2511L20.756 27.2787L18.6585 27.2776C18.4176 27.2805 18.0837 27.2357 17.8608 27.3232C17.8098 27.3432 17.837 27.3345 17.7617 27.342C17.9086 27.1677 18.0344 26.9725 18.1308 26.7658C18.2816 26.4427 18.3723 25.7497 18.2452 25.4069L18.2281 25.3624C18.019 24.7975 17.7323 24.3945 17.2893 23.9871C17.3784 23.8999 17.4394 23.867 17.5642 23.8514C17.9381 23.8046 18.3279 23.8151 18.7044 23.8154L20.4488 23.8278L23.5218 23.7991L25.2643 23.8103Z" fill="#E11F27"/>
<path d="M25.2643 23.8102C25.2598 23.5902 25.231 23.3235 25.3078 23.1144L25.3254 23.0713C25.3788 22.9369 25.4564 22.8074 25.5705 22.7149C25.8497 22.4891 26.665 22.576 26.9978 22.6345C27.138 22.6592 27.1502 22.6863 27.224 22.7979L27.2345 22.7927L27.2681 22.7715C27.4239 22.6872 27.5998 22.6717 27.7727 22.6573C28.2973 22.6135 29.0094 22.6091 29.5085 22.7713C29.6763 22.6169 29.8343 22.5699 30.0637 22.5814C30.1907 22.5878 30.3147 22.616 30.4419 22.6184C30.6258 22.6219 30.7655 22.6791 30.8921 22.8162C31.1145 23.0568 31.1285 23.3464 31.1148 23.6536C31.0606 24.0888 31.1196 24.5882 31.1194 25.0317C31.1189 25.7944 31.0661 26.5902 31.1216 27.3493C31.1361 27.662 31.164 27.9794 31.1274 28.2911L31.0611 28.5072C30.8955 28.712 30.7294 28.8654 30.4847 28.9731L30.0064 28.9348C29.8075 28.9214 29.6656 28.803 29.5173 28.6809L29.4675 28.5668L29.4067 28.4932L27.3512 28.4399L27.3517 28.8366L27.3275 28.8303C26.9537 28.7677 26.5594 28.7722 26.1809 28.7586C25.8975 28.7483 25.5979 28.6937 25.3241 28.7822C25.2304 28.2747 25.2612 27.7648 25.2678 27.2511L25.2643 23.8102Z" fill="#E11F27"/>
<path d="M29.5085 22.7714C29.6764 22.617 29.8343 22.57 30.0637 22.5815C30.1907 22.5878 30.3147 22.6161 30.442 22.6185C30.6258 22.6219 30.7655 22.6791 30.8922 22.8163C31.1145 23.0569 31.1285 23.3465 31.1149 23.6536C31.0606 24.0888 31.1196 24.5883 31.1194 25.0318C31.119 25.7944 31.0661 26.5903 31.1216 27.3494C31.1361 27.662 31.164 27.9795 31.1275 28.2911L31.0611 28.5073C30.8955 28.7121 30.7294 28.8655 30.4848 28.9732L30.0064 28.9348C29.8075 28.9215 29.6656 28.803 29.5173 28.681L29.4675 28.5668L29.4684 26.104L29.4612 23.7431C29.4637 23.4463 29.4174 23.053 29.5085 22.7714Z" fill="#9E191F"/>
<path d="M25.2643 23.8102C25.2598 23.5902 25.231 23.3235 25.3078 23.1144L25.3254 23.0713C25.3788 22.9369 25.4564 22.8074 25.5705 22.7149C25.8497 22.4891 26.665 22.576 26.9978 22.6345C27.138 22.6592 27.1502 22.6863 27.224 22.7979C27.374 23.3933 27.3105 24.1246 27.3117 24.7387L27.2942 27.8556C27.2898 28.1809 27.3369 28.5065 27.3275 28.8303C26.9537 28.7677 26.5594 28.7722 26.1809 28.7586C25.8975 28.7483 25.5979 28.6937 25.3241 28.7822C25.2304 28.2747 25.2612 27.7648 25.2678 27.2511L25.2643 23.8102Z" fill="#9E191F"/>
<path d="M8.74954 22.9141C9.29831 22.7658 9.91311 22.9491 10.4568 23.0471L12.022 23.3053L13.6568 23.4852C14.5371 23.5615 15.4541 23.4578 16.3262 23.5881C16.622 23.6323 16.9452 23.7862 17.2018 23.9352L17.2893 23.987C17.7323 24.3944 18.019 24.7975 18.2281 25.3623L18.2452 25.4069C18.3723 25.7496 18.2816 26.4427 18.1308 26.7658C18.0344 26.9724 17.9086 27.1677 17.7617 27.342C17.2461 27.8184 16.6397 28.1688 15.9273 28.2193C15.1945 28.2712 14.4652 28.2167 13.7352 28.1558C12.2726 28.0338 10.8757 27.8149 9.44857 27.4741C9.0529 27.3796 8.46087 27.3092 8.15576 27.0293C7.85746 26.7557 7.80477 26.4325 7.77896 26.0506L8.00429 24.6009C8.05361 24.3 8.18696 23.4171 8.36351 23.2012C8.44861 23.0971 8.63735 22.9944 8.74954 22.9141Z" fill="#9E191F"/>
</g>
<defs>
<clipPath id="clip0_114_42">
<rect width="44" height="43" fill="white"/>
</clipPath>
</defs>
</svg>
