<svg width="519" height="283" viewBox="0 0 519 283" fill="none" xmlns="http://www.w3.org/2000/svg">
<g clip-path="url(#clip0_378_638)">
<path d="M0.584459 246.37H519V245.201H0.584459C0.261674 245.201 0 245.463 0 245.786C0 246.108 0.261668 246.37 0.584459 246.37Z" fill="#B78A76"/>
<path d="M237.291 256.306C240.213 270.333 256.87 253.091 256.87 253.091L276.742 250.753C276.742 250.753 289.307 251.046 297.49 257.475C305.672 263.904 311.225 255.429 311.225 255.429C320.443 258.502 331.737 258.49 341.519 257.505C355.614 256.087 366.911 245.208 368.848 231.175C379.776 152.015 319.699 113.113 319.699 113.113L302.166 65.7721C302.166 65.7721 307.718 52.0373 309.471 39.7636C311.225 27.49 298.367 15.8008 282.586 4.11158C275.682 -1.00244 267.771 -0.634867 261.056 1.39676C253.523 3.67583 246.952 8.36252 242.097 14.5565C238.074 19.6881 231.175 26.9557 223.591 28.2147C220.967 28.6472 218.377 29.6875 215.958 31.5812C213.456 33.5391 212.352 36.8062 212.317 40.8682C212.13 58.6124 226.782 79.9744 239.628 83.3058C255.409 87.3971 246.934 126.264 246.934 126.264C221.218 162.5 239.336 202.828 239.336 202.828L234.66 235.558C234.66 235.558 234.368 242.279 237.291 256.306Z" fill="#B78A76"/>
<path d="M323.206 180.911L316.777 260.981C316.777 260.981 325.544 283.191 295.736 282.022C265.929 280.853 283.463 235.265 283.463 235.265L292.814 175.65" fill="#B78A76"/>
<path d="M297.954 282.651C297.226 282.651 296.48 282.636 295.714 282.606C289.115 282.347 284.256 279.917 281.271 275.383C272.737 262.419 282.229 236.863 282.895 235.114L292.237 175.56C292.287 175.241 292.584 175.026 292.905 175.073C293.223 175.123 293.441 175.422 293.392 175.741L284.04 235.356C284.034 235.397 284.023 235.437 284.008 235.475C283.906 235.74 273.925 262.101 282.248 274.741C285.014 278.942 289.56 281.195 295.759 281.438C305.492 281.818 312.038 279.741 315.221 275.261C319.384 269.4 316.265 261.277 316.233 261.196C316.201 261.113 316.187 261.023 316.194 260.935L322.623 180.864C322.649 180.542 322.925 180.308 323.253 180.328C323.575 180.354 323.815 180.635 323.789 180.957L317.37 260.897C317.795 262.043 320.457 269.9 316.178 275.931C313.012 280.394 306.886 282.651 297.954 282.651Z" fill="#7A5849"/>
<path d="M270.02 197.275C270.02 197.275 271.774 271.502 234.953 269.748C198.132 267.995 231.446 244.617 231.446 244.617L234.66 235.557" fill="#B78A76"/>
<path d="M236.216 270.363C235.789 270.363 235.359 270.353 234.925 270.332C224.411 269.832 218.471 267.476 217.269 263.331C215.105 255.862 229.215 245.493 230.957 244.247L234.11 235.362C234.218 235.057 234.552 234.899 234.856 235.007C235.16 235.115 235.319 235.448 235.211 235.753L231.997 244.812C231.956 244.927 231.881 245.025 231.782 245.095C231.627 245.203 216.365 256.015 218.392 263.006C219.44 266.618 225.021 268.69 234.981 269.164C241.614 269.484 247.428 267.253 252.252 262.543C270.342 244.883 269.447 197.763 269.436 197.289C269.428 196.967 269.684 196.699 270.007 196.691C270.312 196.691 270.597 196.939 270.605 197.262C270.651 199.217 271.524 245.361 253.069 263.379C248.319 268.017 242.654 270.363 236.216 270.363Z" fill="#7A5849"/>
<path d="M212.317 40.8684C216.513 41.371 223.082 41.3476 228.524 37.7182C234.351 33.8315 228.302 30.2078 223.591 28.2148C220.967 28.6473 218.377 29.6877 215.958 31.5813C213.456 33.5393 212.352 36.8064 212.317 40.8684Z" fill="#7A5849"/>
<path d="M280.13 30.3592C280.13 30.3592 269.932 4.16583 284.539 3.79931C299.146 3.43279 310.683 26.1315 310.683 26.1315C310.683 26.1315 347.345 92.96 297.116 89.3562C246.886 85.7523 270.889 59.0749 270.889 59.0749C270.889 59.0749 282.345 44.9899 280.13 30.3592Z" fill="#7A5849"/>
<path d="M336.087 226.099C342.555 228.976 349.314 231.913 356.388 231.632C363.463 231.351 370.907 226.795 372.01 219.802C372.579 216.192 371.45 212.318 372.832 208.935C374.692 204.383 380.691 202.627 385.355 204.187C390.018 205.747 393.444 209.77 395.9 214.03C400.496 222 402.338 232.461 397.41 240.23C393.139 246.965 385.037 250.009 377.5 252.619C367.462 256.096 356.255 259.547 346.528 255.276C336.745 250.981 331.416 238.57 335.039 228.518" fill="#B78A76"/>
<path d="M314.506 99.8968C314.506 99.8968 327.364 106.326 320.935 113.339C314.506 120.353 274.763 140.225 260.151 137.302C245.54 134.38 242.033 125.613 242.033 123.275C242.033 120.937 243.135 92.6573 247.811 93.8263C252.487 94.9952 281.776 121.522 314.506 99.8968Z" fill="#CB4022"/>
</g>
<defs>
<clipPath id="clip0_378_638">
<rect width="519" height="282.651" fill="white"/>
</clipPath>
</defs>
</svg>
