<svg width="537" height="521" viewBox="0 0 537 521" fill="none" xmlns="http://www.w3.org/2000/svg">
<g clip-path="url(#clip0_378_649)">
<path d="M284.357 395.443C276.385 396.665 270.555 401.768 271.333 406.841C272.111 411.913 279.203 415.034 287.177 413.811C290.369 413.366 293.408 412.163 296.04 410.302L329.748 404.699L327.499 391.375L293.866 396.134C290.797 395.148 287.536 394.911 284.357 395.443Z" fill="#FFB6B6"/>
<path d="M429.614 353.91L416.544 381.645L350.836 403.764L296.312 406.673L294.947 393.577L354.038 381.222L414.673 352.568L429.614 353.91Z" fill="#C6A37D"/>
<path d="M280.535 295.886L278.743 295.925L282.169 451.584L283.961 451.545L280.535 295.886Z" fill="#3F3D56"/>
<path d="M280.574 364.807C280.412 364.255 276.697 351.127 284.741 338.223L286.262 339.171C278.655 351.373 282.256 364.175 282.294 364.304L280.574 364.807Z" fill="#3F3D56"/>
<path d="M285.37 339.22C285.37 339.22 282.924 322.505 305.452 317.918C310.145 316.962 314.557 316.309 318.602 315.874C323.376 315.36 325.238 321.896 320.926 324.007C314.68 327.064 308.804 330.915 305.742 335.476C297.296 348.056 285.37 339.22 285.37 339.22Z" fill="#CB4022"/>
<path d="M282.891 413.142L281.171 412.639C281.209 412.51 284.81 399.707 277.204 387.506L278.724 386.558C286.768 399.462 283.054 412.59 282.891 413.142Z" fill="#3F3D56"/>
<path d="M278.096 387.554C278.096 387.554 280.541 370.84 258.013 366.252C253.32 365.297 248.908 364.644 244.863 364.208C240.089 363.695 238.227 370.23 242.54 372.341C248.786 375.398 254.661 379.249 257.724 383.811C266.17 396.39 278.096 387.554 278.096 387.554Z" fill="#CB4022"/>
<path d="M309.45 274.273C313.985 273.078 318.225 270.994 318.084 268.933C317.917 266.485 311.622 264.845 306.191 264.595C310.287 261.39 314.051 256.96 312.9 254.956C311.842 253.114 306.919 253.828 302.377 255.45C305.065 251.607 306.955 247.277 305.516 245.795C303.723 243.95 297.36 247.136 293.018 250.657C293.864 245.171 293.436 238.245 290.975 237.619C288.917 237.095 285.999 241.123 283.998 245.512C283.114 240.906 281.325 236.534 279.259 236.534C276.316 236.534 273.931 245.406 273.931 251.186C273.931 251.513 273.939 251.821 273.954 252.115C273.659 251.772 273.32 251.415 272.934 251.04C268.788 247.013 260.761 242.543 258.711 244.654C257.272 246.136 259.161 250.466 261.849 254.308C257.307 252.686 252.385 251.973 251.326 253.815C249.904 256.29 255.982 262.468 260.923 265.465C260.626 265.429 260.314 265.399 259.982 265.376C254.215 264.983 245.201 266.759 245 269.695C244.86 271.755 249.1 273.839 253.635 275.034C249.12 276.731 244.902 279.368 245.285 281.458C245.75 283.994 252.837 284.882 258.409 284.362C254.246 288.356 249.732 295.511 251.616 297.608C252.996 299.145 257.445 297.554 261.462 295.134C259.534 299.555 258.487 304.418 260.253 305.599C262.586 307.16 268.986 301.727 272.36 297.053C272.017 302.772 273.385 310.628 276.1 310.939C278.153 311.173 280.427 307.032 281.828 302.556C283.318 307.144 285.759 311.477 287.864 311.19C290.601 310.817 291.794 302.763 291.284 297.04C294.764 301.522 300.622 306.316 302.832 304.838C304.598 303.657 303.551 298.794 301.623 294.373C305.64 296.793 310.088 298.384 311.469 296.847C313.353 294.75 308.839 287.595 304.676 283.601C310.248 284.121 317.335 283.233 317.8 280.697C318.183 278.607 313.965 275.97 309.45 274.273ZM285.034 290.45C283.868 290.609 282.803 290.836 281.992 291.416C281.131 290.561 279.874 290.301 278.475 290.141C276.91 289.963 275.487 289.945 274.402 290.849C274.005 289.745 273.028 288.962 271.891 288.201C270.913 287.547 269.965 287.01 268.974 286.906C268.896 285.695 268.128 284.666 267.187 283.619C266.588 282.952 265.988 282.355 265.322 281.956C266.283 280.786 266.172 279.308 265.875 277.686C265.663 276.529 265.387 275.474 264.771 274.691C265.585 273.792 265.788 272.524 265.884 271.12C265.989 269.586 265.945 268.196 265.06 267.161C267.347 267.452 268.451 266.027 269.477 264.242C270.063 263.222 270.534 262.239 270.57 261.243C271.772 261.083 272.747 260.246 273.727 259.237C274.565 258.374 275.277 257.52 275.545 256.537C276.505 257.344 277.814 257.466 279.259 257.466C280.666 257.466 281.945 257.35 282.898 256.599C283.637 257.267 284.67 257.613 285.81 257.904C286.899 258.181 287.926 258.366 288.86 258.18C289.201 258.958 289.807 259.666 290.499 260.379C291.48 261.388 292.454 262.225 293.657 262.385C293.693 263.381 294.164 264.363 294.75 265.383C295.44 266.584 296.164 267.622 297.26 268.086C297.132 268.783 297.146 269.551 297.201 270.358C297.297 271.762 297.499 273.031 298.314 273.93C297.698 274.713 297.422 275.767 297.21 276.924C296.913 278.547 296.802 280.025 297.763 281.195C297.097 281.594 296.497 282.191 295.897 282.858C294.957 283.905 294.188 284.934 294.111 286.145C293.12 286.249 292.171 286.786 291.193 287.44C289.858 288.333 288.746 289.259 288.532 290.697C287.53 290.21 286.33 290.273 285.034 290.45Z" fill="#CB4022"/>
<path d="M281.923 293.241C292.432 293.241 300.952 284.721 300.952 274.212C300.952 263.702 292.432 255.183 281.923 255.183C271.413 255.183 262.894 263.702 262.894 274.212C262.894 284.721 271.413 293.241 281.923 293.241Z" fill="#FCB47E"/>
<path d="M52.422 504.962C52.422 505.553 52.8969 506.028 53.4883 506.028H521.44C522.032 506.028 522.506 505.553 522.506 504.962C522.506 504.37 522.032 503.896 521.44 503.896H53.4883C52.8969 503.896 52.422 504.37 52.422 504.962Z" fill="#3F3D56"/>
<path d="M308.425 459.222L296.69 488.904L281.504 478.549L290.478 447.487L308.425 459.222Z" fill="#FFB6B6"/>
<path d="M259.415 448.177L228.353 477.859L240.778 490.975L272.531 466.125L259.415 448.177Z" fill="#FFB6B6"/>
<path d="M435.436 351.538L435.091 349.123L427.153 333.591L400.922 340.494L405.754 361.893L435.436 351.538Z" fill="#FFB6B6"/>
<path d="M424.391 455.08L425.198 465.448C425.198 465.448 428.533 508.922 401.612 512.373C374.691 515.824 362.957 519.276 347.08 492.355L322.23 448.177L307.716 465.448L288.407 450.248C288.407 450.248 302.212 396.407 313.257 394.336C314.637 394.077 316.018 393.947 317.377 393.919C326.52 393.729 335.139 398.201 340.61 405.53L371.93 447.487L383.32 442.31L424.391 455.08Z" fill="#2F2E41"/>
<path d="M275.292 487.523L281.504 475.788L299.451 488.213C299.451 488.213 303.593 503.399 297.381 505.47C291.168 507.541 273.911 504.78 273.911 504.78C273.911 504.78 242.158 511.683 241.468 505.47C240.778 499.258 255.964 497.877 255.964 497.877L275.292 487.523Z" fill="#2F2E41"/>
<path d="M342.939 479.24L294.965 449.012L270.46 470.956L253.893 451.629C253.893 451.629 284.265 406.761 293.239 404.69C302.212 402.619 316.708 401.239 316.708 401.239L360.886 441.965L342.939 479.24Z" fill="#2F2E41"/>
<path d="M227.663 475.098L243.539 492.355L241.445 494.146C241.445 494.146 237.327 512.085 227.663 506.017C217.999 499.948 217.308 498.568 217.308 498.568C217.308 498.568 189.697 504.78 186.936 493.736C184.175 482.691 191.768 484.762 191.768 484.762L198.663 488.904L227.663 475.098Z" fill="#2F2E41"/>
<path d="M409.205 348.087C421.405 348.087 431.294 338.198 431.294 325.999C431.294 313.799 421.405 303.91 409.205 303.91C397.006 303.91 387.116 313.799 387.116 325.999C387.116 338.198 397.006 348.087 409.205 348.087Z" fill="#FFB6B6"/>
<path d="M404.028 357.406L435.781 347.742C435.781 347.742 448.206 376.734 446.135 389.849C444.064 402.964 425.198 465.448 425.198 465.448L383.32 442.31C383.32 442.31 382.63 428.505 380.559 422.292C378.488 416.08 371.93 397.097 386.426 381.221C400.922 365.344 404.028 357.406 404.028 357.406Z" fill="#C6A37D"/>
<path d="M93.936 139.75L92.145 139.79L100.209 506.238L102 506.199L93.936 139.75Z" fill="#3F3D56"/>
<path d="M96.4043 301.635C96.3124 301.321 87.4289 269.955 106.08 240.036L107.601 240.984C89.3696 270.23 98.0339 300.824 98.1236 301.131L96.4043 301.635Z" fill="#3F3D56"/>
<path d="M106.531 241.739C106.531 241.739 100.774 202.391 153.808 191.591C164.856 189.342 175.243 187.804 184.765 186.78C196.004 185.57 200.388 200.955 190.235 205.925C175.531 213.121 161.699 222.189 154.49 232.926C134.606 262.541 106.531 241.739 106.531 241.739Z" fill="#CB4022"/>
<path d="M99.5323 415.422L97.813 414.918C97.9022 414.613 106.55 383.989 88.3358 354.771L89.8565 353.823C108.508 383.742 99.6242 415.109 99.5323 415.422Z" fill="#3F3D56"/>
<path d="M89.406 355.526C89.406 355.526 95.1629 316.178 42.1289 305.379C31.0801 303.129 20.6931 301.591 11.1716 300.567C-0.0675012 299.358 -4.45158 314.743 5.70155 319.712C20.4056 326.909 34.2374 335.976 41.4468 346.714C61.3302 376.328 89.406 355.526 89.406 355.526Z" fill="#CB4022"/>
<path d="M163.22 88.8446C173.895 86.0299 183.877 81.1255 183.546 76.2738C183.153 70.5103 168.332 66.6485 155.547 66.0608C165.191 58.516 174.052 48.0865 171.342 43.3696C168.851 39.0331 157.261 40.7128 146.569 44.5322C152.897 35.4857 157.345 25.2918 153.957 21.8032C149.737 17.4576 134.759 24.9582 124.537 33.249C126.526 20.3327 125.52 4.02883 119.727 2.55375C114.881 1.31973 108.012 10.8038 103.302 21.1352C101.221 10.2932 97.0075 0 92.1445 0C85.217 0 79.6011 20.8868 79.6011 34.4945C79.6011 35.2637 79.6215 35.9878 79.6566 36.6796C78.9613 35.8735 78.1644 35.0314 77.2556 34.1488C67.4937 24.6685 48.5975 14.1457 43.7712 19.1153C40.3832 22.6039 44.8318 32.7978 51.1595 41.8443C40.467 38.025 28.8779 36.3452 26.3867 40.6817C23.0393 46.5085 37.3477 61.0541 48.9781 68.108C48.279 68.0238 47.5445 67.9528 46.7627 67.8995C33.1866 66.9732 11.9659 71.1542 11.4943 78.0657C11.1633 82.9174 21.1458 87.8218 31.8208 90.6365C21.1928 94.6316 11.2632 100.839 12.1645 105.758C13.2583 111.729 29.9423 113.819 43.0605 112.595C33.2602 121.998 22.6336 138.842 27.0684 143.779C30.3183 147.397 40.7913 143.652 50.2476 137.955C45.7092 148.363 43.2444 159.811 47.4013 162.591C52.8948 166.266 67.961 153.476 75.9045 142.471C75.0951 155.935 78.3166 174.431 84.7087 175.161C89.5403 175.713 94.8944 165.964 98.1925 155.428C101.699 166.227 107.448 176.429 112.403 175.753C118.846 174.874 121.656 155.915 120.454 142.441C128.647 152.994 142.437 164.279 147.639 160.799C151.796 158.019 149.331 146.571 144.793 136.163C154.249 141.86 164.722 145.605 167.972 141.987C172.407 137.051 161.78 120.206 151.98 110.803C165.098 112.027 181.782 109.937 182.876 103.966C183.777 99.0471 173.848 92.8397 163.22 88.8446ZM105.74 126.928C102.996 127.302 100.487 127.837 98.5793 129.202C96.5522 127.19 93.5915 126.577 90.2997 126.201C86.6138 125.78 83.2642 125.74 80.7099 127.867C79.7753 125.269 77.4771 123.423 74.8 121.633C72.4981 120.093 70.2657 118.829 67.9321 118.585C67.7498 115.735 65.9406 113.312 63.7264 110.847C62.3146 109.276 60.9021 107.871 59.3347 106.931C61.5961 104.177 61.3354 100.697 60.6357 96.8781C60.1366 94.1541 59.4881 91.6719 58.0372 89.8281C59.955 87.7114 60.4324 84.7258 60.6579 81.4203C60.9042 77.811 60.8019 74.5385 58.7185 72.1017C64.1024 72.7865 66.7007 69.4324 69.1156 65.2287C70.4951 62.8273 71.6043 60.514 71.6886 58.1693C74.52 57.7933 76.8137 55.8234 79.122 53.4466C81.0938 51.4162 82.7711 49.4057 83.4011 47.0918C85.6606 48.9906 88.7434 49.2779 92.1445 49.2779C95.4578 49.2779 98.4689 49.0049 100.711 47.2356C102.452 48.8087 104.884 49.6246 107.568 50.308C110.13 50.9603 112.548 51.3966 114.747 50.9575C115.55 52.7911 116.977 54.4562 118.607 56.1345C120.915 58.5113 123.208 60.4812 126.04 60.8571C126.124 63.2019 127.233 65.5152 128.613 67.9166C130.237 70.7432 131.942 73.1873 134.522 74.2778C134.221 75.9197 134.253 77.727 134.383 79.6284C134.608 82.9339 135.086 85.9195 137.003 88.0362C135.552 89.88 134.904 92.3621 134.405 95.0862C133.705 98.9054 133.444 102.385 135.706 105.139C134.138 106.079 132.726 107.484 131.314 109.055C129.1 111.52 127.291 113.943 127.108 116.793C124.775 117.037 122.542 118.301 120.241 119.841C117.097 121.944 114.478 124.124 113.975 127.508C111.615 126.364 108.791 126.511 105.74 126.928Z" fill="#CB4022"/>
<path d="M98.4163 133.498C123.158 133.498 143.214 113.442 143.214 88.7002C143.214 63.9589 123.158 43.9021 98.4163 43.9021C73.675 43.9021 53.6182 63.9589 53.6182 88.7002C53.6182 113.442 73.675 133.498 98.4163 133.498Z" fill="#FCB47E"/>
<path d="M512.322 417.744L510.53 417.784L512.457 505.342L514.249 505.303L512.322 417.744Z" fill="#3F3D56"/>
<path d="M511.575 456.632C511.482 456.314 509.347 448.766 513.963 441.36L515.484 442.309C511.304 449.013 513.275 456.059 513.295 456.129L511.575 456.632Z" fill="#3F3D56"/>
<path d="M514.649 442.128C514.649 442.128 513.274 432.726 525.946 430.146C528.586 429.609 531.068 429.241 533.343 428.996C536.028 428.707 537.076 432.384 534.65 433.571C531.136 435.29 527.831 437.457 526.109 440.023C521.358 447.099 514.649 442.128 514.649 442.128Z" fill="#CB4022"/>
<path d="M513.632 483.82L511.912 483.316C511.932 483.246 513.903 476.201 509.723 469.497L511.244 468.549C515.861 475.955 513.725 483.502 513.632 483.82Z" fill="#3F3D56"/>
<path d="M510.558 469.316C510.558 469.316 511.933 459.915 499.261 457.334C496.621 456.797 494.14 456.429 491.865 456.185C489.179 455.896 488.132 459.572 490.558 460.759C494.071 462.479 497.376 464.645 499.098 467.211C503.849 474.287 510.558 469.316 510.558 469.316Z" fill="#CB4022"/>
<path d="M528.195 405.596C530.745 404.923 533.131 403.752 533.051 402.592C532.957 401.215 529.416 400.293 526.361 400.152C528.666 398.349 530.783 395.857 530.135 394.73C529.54 393.694 526.771 394.096 524.216 395.008C525.728 392.847 526.791 390.411 525.981 389.577C524.973 388.539 521.394 390.331 518.952 392.312C519.427 389.226 519.187 385.33 517.803 384.978C516.645 384.683 515.003 386.949 513.878 389.418C513.381 386.827 512.374 384.368 511.212 384.368C509.557 384.368 508.215 389.358 508.215 392.61C508.215 392.794 508.22 392.967 508.228 393.132C508.062 392.939 507.872 392.738 507.655 392.527C505.322 390.262 500.807 387.748 499.654 388.935C498.844 389.769 499.907 392.204 501.419 394.366C498.864 393.453 496.095 393.052 495.5 394.088C494.7 395.48 498.119 398.956 500.898 400.641C500.731 400.621 500.555 400.604 500.369 400.591C497.125 400.37 492.054 401.369 491.942 403.021C491.863 404.18 494.248 405.352 496.798 406.024C494.259 406.979 491.886 408.462 492.102 409.637C492.363 411.064 496.35 411.563 499.484 411.271C497.142 413.518 494.603 417.542 495.663 418.722C496.439 419.586 498.942 418.692 501.201 417.33C500.117 419.817 499.528 422.553 500.521 423.217C501.834 424.095 505.434 421.039 507.332 418.409C507.138 421.626 507.908 426.046 509.435 426.22C510.59 426.352 511.869 424.023 512.657 421.505C513.495 424.086 514.869 426.523 516.053 426.362C517.592 426.152 518.263 421.622 517.976 418.402C519.934 420.924 523.229 423.62 524.472 422.789C525.465 422.124 524.876 419.389 523.792 416.902C526.051 418.263 528.554 419.158 529.33 418.294C530.39 417.114 527.851 413.089 525.509 410.843C528.643 411.135 532.63 410.636 532.891 409.209C533.107 408.034 530.734 406.551 528.195 405.596ZM514.461 414.696C513.805 414.785 513.205 414.913 512.75 415.239C512.265 414.758 511.558 414.612 510.771 414.522C509.891 414.421 509.09 414.412 508.48 414.92C508.257 414.299 507.707 413.858 507.068 413.43C506.518 413.062 505.984 412.76 505.427 412.702C505.383 412.021 504.951 411.442 504.422 410.853C504.085 410.478 503.747 410.142 503.373 409.918C503.913 409.26 503.851 408.428 503.683 407.516C503.564 406.865 503.409 406.272 503.062 405.831C503.521 405.325 503.635 404.612 503.689 403.822C503.748 402.96 503.723 402.178 503.225 401.596C504.512 401.759 505.133 400.958 505.71 399.953C506.039 399.38 506.304 398.827 506.324 398.267C507.001 398.177 507.549 397.706 508.1 397.138C508.572 396.653 508.972 396.173 509.123 395.62C509.663 396.073 510.399 396.142 511.212 396.142C512.004 396.142 512.723 396.077 513.259 395.654C513.675 396.03 514.256 396.225 514.897 396.388C515.509 396.544 516.087 396.648 516.613 396.543C516.804 396.981 517.145 397.379 517.535 397.78C518.086 398.348 518.634 398.819 519.311 398.909C519.331 399.469 519.596 400.022 519.926 400.596C520.314 401.271 520.721 401.855 521.338 402.115C521.266 402.508 521.273 402.94 521.304 403.394C521.358 404.184 521.472 404.897 521.931 405.403C521.584 405.843 521.429 406.437 521.31 407.087C521.142 408 521.08 408.831 521.621 409.489C521.246 409.714 520.908 410.05 520.571 410.425C520.042 411.014 519.61 411.593 519.566 412.274C519.009 412.332 518.475 412.634 517.925 413.002C517.174 413.505 516.548 414.026 516.428 414.834C515.864 414.561 515.19 414.596 514.461 414.696Z" fill="#CB4022"/>
<path d="M512.711 416.266C518.622 416.266 523.415 411.473 523.415 405.562C523.415 399.65 518.622 394.858 512.711 394.858C506.799 394.858 502.007 399.65 502.007 405.562C502.007 411.473 506.799 416.266 512.711 416.266Z" fill="#FCB47E"/>
<path d="M334.143 502.351C328.975 508.542 327.981 516.227 331.921 519.515C335.862 522.803 343.244 520.449 348.412 514.255C350.511 511.809 351.993 508.897 352.735 505.76L374.299 479.253L363.795 470.752L341.73 496.577C338.776 497.868 336.174 499.848 334.143 502.351Z" fill="#FFB6B6"/>
<path d="M428.384 371.332L435.889 401.061L399.156 459.86L361.657 497.548L349.503 487.465L387.321 440.409L415.987 379.78L428.384 371.332Z" fill="#C6A37D"/>
<path d="M388.842 322.202C394.507 322.188 394.829 322.226 395.745 322.202C402.771 322.017 404.609 319.252 408.17 319.441C414.526 319.777 406.137 351.646 402.648 366.38C399.226 380.829 410.79 393.777 411.621 394.681C423.359 407.447 443.978 409.781 447.516 404.345C450.379 399.945 440.231 393.254 442.684 383.637C445.082 374.235 456.155 375.236 459.25 366.38C462.492 357.105 451.599 352.427 444.755 329.795C440.824 316.798 441.519 314.376 437.852 306.326C428.048 284.808 379.996 293.97 385.391 313.919C386.434 317.778 383.657 322.214 388.842 322.202Z" fill="#7A5849"/>
</g>
<defs>
<clipPath id="clip0_378_649">
<rect width="536.012" height="521" fill="white"/>
</clipPath>
</defs>
</svg>
